<svg id="Слой_1" data-name="Слой 1" xmlns="http://www.w3.org/2000/svg" viewBox="0 0 292.22 51.88"><defs><style>.cls-1{fill:#fff;}</style></defs><title>mobБезымянный-1</title><path class="cls-1" d="M118.88,203.09c0-3.77-.13-7.29.09-10.79a4.12,4.12,0,0,1,1.91-2.51,225.72,225.72,0,0,1,42.23-20.89c24-9,49-14,74.44-16.57,3.73-.38,7.55-.24,11.21-.93,6.24-1.19,8.81,3.68,12.35,6.95a47.46,47.46,0,0,1,4,5.08c3.67-4,6.47-7.29,9.53-10.3a5.87,5.87,0,0,1,3.9-1.55c33.88,1.69,66.72,8.28,97.85,22,11.16,4.91,21.8,11,32.62,16.64a3.82,3.82,0,0,1,1.89,2.56c.22,3.37.08,6.76.08,10.34Z" transform="translate(-118.84 -151.22)"/></svg>