<?xml version="1.0" standalone="no"?>
<!DOCTYPE svg PUBLIC "-//W3C//DTD SVG 1.1//EN" "http://www.w3.org/Graphics/SVG/1.1/DTD/svg11.dtd" >
<svg xmlns="http://www.w3.org/2000/svg" xmlns:xlink="http://www.w3.org/1999/xlink" version="1.1">
<metadata></metadata>
<defs>
<font id="alexxis_demoregular" horiz-adv-x="571" >
<font-face units-per-em="2048" ascent="1638" descent="-410" />
<missing-glyph horiz-adv-x="401" />
<glyph unicode="&#xd;" horiz-adv-x="508" />
<glyph horiz-adv-x="0" />
<glyph horiz-adv-x="0" />
<glyph unicode=" "  horiz-adv-x="401" />
<glyph unicode="&#x09;" horiz-adv-x="401" />
<glyph unicode="&#xa0;" horiz-adv-x="401" />
<glyph unicode="!" horiz-adv-x="272" d="M85 0v135h94v-135h-94zM85 237v1193h94v-1193h-94z" />
<glyph unicode="&#x22;" horiz-adv-x="402" d="M85 1177l42 107h-42v140h92v-140l-49 -124zM224 1177l42 107h-42v140h92v-140l-49 -124z" />
<glyph unicode="#" horiz-adv-x="884" d="M96 245l16 92h139l30 171h-138l16 93h139l24 139h92l-24 -139h171l25 139h92l-24 -139h138l-16 -93h-139l-30 -171h139l-16 -92h-139l-25 -139h-92l24 139h-171l-24 -139h-93l25 139h-139zM344 337h171l30 171h-171z" />
<glyph unicode="$" horiz-adv-x="652" d="M100 214v225h92v-225q0 -28 11 -50q9 -23 27 -43q19 -18 42 -27q1 -1 4 -1q24 -9 47 -9q24 0 47 9q3 0 4 1q21 9 41 27q19 19 29 43q10 25 10 50v109q0 99 -62 179l-22 27l-94 120l-104 130q-72 93 -72 212v123q0 45 17 86q17 40 48 72q31 31 71 48q18 8 40 12v209h94 v-209q22 -5 40 -12q41 -18 71 -48q31 -32 47 -72q18 -40 18 -86v-225h-92v225q0 25 -10 50q-11 25 -29 42q-19 19 -41 28q-1 1 -4 1q-23 10 -47 10q-23 0 -47 -10q-3 0 -4 -1q-24 -10 -42 -28q-17 -18 -27 -42q-11 -22 -11 -50v-123q0 -85 53 -154l31 -40l94 -118l94 -120 q82 -104 82 -236v-109q0 -46 -18 -87q-16 -39 -47 -71q-30 -30 -71 -48q-23 -10 -40 -12v-209h-94v209q-17 2 -40 12q-40 17 -71 48t-48 71q-17 42 -17 87z" />
<glyph unicode="%" horiz-adv-x="1040" d="M62 955v6q0 73 51 128q38 39 88 52q20 5 44 6h6q74 0 128 -51q39 -38 52 -87q5 -22 6 -44v-6q0 -74 -52 -129q-38 -39 -86 -51q-22 -6 -45 -7h-3q-75 0 -131 52q-39 37 -52 86q-5 21 -6 45zM138 957q1 -13 4 -26q8 -29 31 -51q32 -31 75 -31h3q15 1 27 4q29 8 51 31 q30 31 30 73v5q0 14 -4 27q-7 28 -29 50q-33 31 -77 31h-3q-13 0 -25 -4q-29 -7 -51 -30q-32 -33 -32 -76v-3zM222 31l515 1373l107 -25l-516 -1373zM595 421v3q0 77 53 132q37 39 85 52q22 5 45 6h6q75 0 129 -52q38 -37 51 -85q6 -22 7 -45v-6q0 -73 -52 -129 q-37 -38 -87 -51q-21 -6 -44 -7h-3q-76 0 -131 52q-40 38 -53 88q-5 20 -6 42zM673 424q1 -14 4 -27q7 -29 30 -50q33 -31 79 -31q13 1 26 4q29 8 51 31q31 32 31 75v3q-1 14 -4 26q-7 29 -31 51q-31 31 -73 31h-5q-14 0 -26 -3q-29 -8 -51 -31q-31 -32 -31 -74v-5z" />
<glyph unicode="&#x26;" horiz-adv-x="735" d="M80 250v251q0 59 25 112q26 53 70 88q-95 71 -95 202v273q0 103 70 177q69 73 167 73t168 -73q69 -74 69 -177v-271q-2 -63 -32 -118q-29 -55 -79 -89q67 -54 84 -151l45 -260q32 12 67 12h25v-97h-25q-26 0 -51 -12l27 -154l-91 -17l-14 85q-34 -49 -84 -76 q-52 -28 -109 -28q-98 0 -167 73q-70 74 -70 177zM172 250q0 -63 43 -108q42 -45 102 -45q40 0 74 21t53 57q17 33 43 59l-50 295q-18 101 -125 125q-58 -2 -99 -47t-41 -106v-251zM172 904q0 -58 31 -98t82 -49l8 -1q15 -3 25 -4q60 3 102 50t42 113v261q0 63 -42 108 q-43 45 -103 45t-102 -45q-43 -45 -43 -108v-272z" />
<glyph unicode="'" horiz-adv-x="261" d="M85 1177l42 107h-42v140h92v-140l-49 -124z" />
<glyph unicode="(" horiz-adv-x="405" d="M60 193v982q0 80 57 137q56 56 136 56h69v-92h-69q-41 0 -71 -30q-30 -29 -30 -71v-982q0 -41 30 -71t71 -30h69v-92h-69q-80 0 -136 57q-57 56 -57 136z" />
<glyph unicode=")" horiz-adv-x="396" d="M60 0v92h69q42 0 71 30q30 30 30 71v982q0 42 -30 71q-29 30 -71 30h-69v92h69q80 0 137 -56q56 -57 56 -137v-982q0 -80 -56 -136q-57 -57 -137 -57h-69z" />
<glyph unicode="*" horiz-adv-x="557" d="M111 1466l40 78l66 -33v78h88v-80l77 36l38 -80l-85 -40l55 -57l-64 -61l-65 68l-65 -68l-64 61l56 58z" />
<glyph unicode="+" horiz-adv-x="929" d="M80 411v93h332v331h92v-331h331v-93h-331v-331h-92v331h-332z" />
<glyph unicode="," horiz-adv-x="199" d="M54 0v142h93v-142l-49 -125l-44 17l43 108h-43z" />
<glyph unicode="-" horiz-adv-x="670" d="M126 409v93h432v-93h-432z" />
<glyph unicode="." horiz-adv-x="173" d="M38 0v142h93v-142h-93z" />
<glyph unicode="/" horiz-adv-x="569" d="M77 44l326 1343l91 -22l-326 -1343z" />
<glyph unicode="0" horiz-adv-x="603" d="M66 235v946q0 98 69 167q70 70 168 70q97 0 166 -70q70 -69 70 -167v-946q0 -98 -70 -167q-69 -70 -166 -70q-98 0 -168 70q-69 69 -69 167zM159 235q0 -60 41 -102q43 -42 103 -42q58 0 101 42q42 42 42 102v946q0 60 -42 102q-43 42 -101 42q-60 0 -103 -42 q-41 -42 -41 -102v-946z" />
<glyph unicode="1" horiz-adv-x="369" d="M70 1332q26 16 61 63q27 35 63 35q14 0 30 -5q61 -20 61 -90v-1335h-92v1325q-40 -50 -76 -72z" />
<glyph unicode="2" horiz-adv-x="594" d="M79 1146q0 113 70 193q69 81 168 81q11 0 22 -1q100 -17 156 -112q28 -47 28 -115q0 -71 -30 -164l-3 -5l-312 -919q-1 -2 -1 -4q0 -4 1 -7h345v-93h-350q-51 0 -78 49q-14 25 -14 51q0 28 18 56l2 2l313 919q17 63 17 111q0 46 -16 77q-34 61 -96 62h-1q-61 0 -103 -53 q-43 -54 -43 -128h-93z" />
<glyph unicode="3" horiz-adv-x="580" d="M64 162l88 29q11 -31 27 -53t35 -33.5t64 -11.5q44 0 63 11t36 32t26.5 52.5t9.5 68.5q0 36 -3 182t-24.5 173.5t-40.5 38t-141 11.5v95h21q103 0 121 9q20 10 36 29.5t25.5 48.5t10.5 202v31q0 144 -8 170q-10 28 -25 48.5t-35 31t-64 10.5q-45 0 -65 -10t-36.5 -30 t-26.5 -48l-88 30q15 43 42.5 77t66 54t106.5 20t107 -21t65.5 -55t41.5 -77q13 -41 13 -208v-23q-1 -188 -16.5 -232t-35 -69.5t-34.5 -38.5q16 -14 45.5 -55.5t33.5 -192.5q3 -132 3 -187v-14q-1 -51 -16 -96.5t-41.5 -81.5t-65.5 -57.5t-108 -21.5t-107.5 22.5 t-65.5 58.5t-40 81z" />
<glyph unicode="4" horiz-adv-x="623" d="M70 650v4q0 28 14 74l210 687l95 -23l-217 -713q-4 -8 -4 -16q0 -10 6 -19q5 -9 11 -9h266v789h92v-1422h-92v541h-276q-56 5 -80 41.5t-25 65.5z" />
<glyph unicode="5" horiz-adv-x="604" d="M67 0v159h92v-67h164q50 0 85 45q35 44 35 258q0 213 -35 258t-85 45h-147q-45 0 -77 35t-32 85v606h422v-92h-330v-514q0 -29 17 -29h147q88 0 150 -71q62 -72 62 -323q0 -252 -62 -323q-62 -72 -150 -72h-256z" />
<glyph unicode="6" horiz-adv-x="603" d="M67 239v916q0 109 66 188q69 82 168 82t168 -82q30 -36 47 -82l-86 -32q-12 31 -31 55q-42 49 -98 49t-98 -49q-44 -53 -44 -129v-409q63 49 142 49q97 0 165 -69q69 -68 69 -165v-322q0 -97 -69 -165q-68 -69 -165 -69t-165 69q-69 68 -69 165zM159 275q0 -76 44 -129 q42 -49 98 -49t98 49q44 53 44 129v286q0 59 -42 100q-41 42 -100 42t-100 -42q-42 -41 -42 -100v-286z" />
<glyph unicode="7" horiz-adv-x="621" d="M52 5l389 1328h-275v-101h-92v193h391q47 0 69 -32q10 -15 10 -40q0 -27 -12 -64l-369 -1284h-111z" />
<glyph unicode="8" horiz-adv-x="600" d="M67 234v299q0 117 96 188q-96 71 -96 189v278q0 97 68 165q69 69 166 69t165 -69q69 -68 69 -165v-278q0 -119 -96 -189q96 -70 96 -188v-299q0 -97 -69 -165q-68 -69 -165 -69t-166 69q-68 68 -68 165zM159 234q0 -59 41 -100q42 -42 101 -42t100 42q42 41 42 100v299 q0 58 -42 100q-41 42 -100 42t-101 -42q-41 -42 -41 -100v-299zM159 910q0 -59 41 -101q42 -41 101 -41t100 41q42 42 42 101v278q0 59 -42 100q-41 42 -100 42t-101 -42q-41 -41 -41 -100v-278z" />
<glyph unicode="9" horiz-adv-x="586" d="M59 857v331q0 96 68 165q68 68 164 68h3q96 0 164 -68q69 -69 69 -165v-328q0 -74 -254 -859h-106l203 640q-48 -10 -89 -10q-100 0 -156 60q-66 70 -66 166zM151 857q0 -58 41 -100q41 -41 99 -41q65 7 93 40t51 104v328q0 58 -42 100q-41 41 -99 41h-3q-58 0 -99 -41 q-41 -42 -41 -100v-331z" />
<glyph unicode=":" horiz-adv-x="194" d="M54 0v142h93v-142h-93zM54 430v142h93v-142h-93z" />
<glyph unicode=";" horiz-adv-x="211" d="M54 0v142h93v-142l-49 -125l-44 17l43 108h-43zM54 430v142h93v-142h-93z" />
<glyph unicode="&#x3c;" horiz-adv-x="892" d="M174 381l485 372l57 -75l-387 -297l387 -296l-57 -75z" />
<glyph unicode="=" horiz-adv-x="707" d="M135 258v92h428v-92h-428zM135 443v92h428v-92h-428z" />
<glyph unicode="&#x3e;" horiz-adv-x="896" d="M184 75l387 296l-387 297l57 75l485 -372l-485 -371z" />
<glyph unicode="?" horiz-adv-x="566" d="M62 1023v154q0 103 64 176q65 73 156 73h25q81 0 139 -64q57 -65 57 -156q0 -144 -71 -361q-103 -269 -103 -455v-159h-93v145q-1 14 -1 29q0 203 117 489q58 195 58 312q0 52 -30 90q-31 37 -73 37h-25q-52 0 -90 -46q-37 -45 -37 -110v-154h-93zM236 0v134h93v-134h-93 z" />
<glyph unicode="@" horiz-adv-x="906" d="M111 322v472q0 141 100 241q99 99 240 99t241 -99q100 -100 100 -241v-472q0 -24 -4 -47q-9 -66 -74 -83q-15 -4 -29 -4q-45 0 -76 42q-7 10 -13 21q-53 -27 -113 -27q-101 0 -173 71q-72 72 -72 173v18q0 101 72 173t173 72q47 0 93 -19q-4 46 -38 78q-35 32 -81 32 q-50 0 -85 -35q-36 -35 -36 -85h-93q0 88 63 151q62 63 151 63q88 0 151 -63q62 -63 62 -151v-344q0 -53 14 -73q2 -2 5 -2h2q4 1 5 5q2 18 2 34v472q0 102 -72 175q-73 72 -175 72t-174 -72t-72 -175v-472q0 -102 72 -174q72 -73 174 -73t175 73l66 -66 q-100 -100 -241 -100q-140 0 -240 100q-100 99 -100 240zM332 468q0 -62 44 -107q44 -44 107 -44q53 0 94 33v255q-41 32 -94 32q-63 0 -107 -44t-44 -107v-18z" />
<glyph unicode="A" horiz-adv-x="660" d="M32 0l248 1434h100l248 -1434h-100l-46 267h-304l-47 -267h-99zM194 365h271l-135 781z" />
<glyph unicode="B" horiz-adv-x="550" d="M45 -1v1435h223q105 0 178 -74q74 -73 74 -178v-262q0 -128 -103 -203q103 -76 103 -204v-262q0 -104 -74 -178q-73 -75 -178 -75h-175v1h-48zM143 97h125q64 0 109 45t45 109v262q0 63 -45 109q-45 45 -109 45h-125v-570zM143 766h125q64 0 109 45t45 109v262 q0 64 -45 109t-109 45h-125v-570z" />
<glyph unicode="C" horiz-adv-x="555" d="M40 242v944q0 103 72 176q73 72 175 72h3q93 0 159 -66t66 -160v-157h-98v157q0 53 -37 90q-38 37 -90 37h-3q-61 0 -105 -44q-43 -43 -43 -105v-944q0 -59 42 -101t101 -42q56 0 96 38q39 40 39 96v150h98v-150q0 -97 -68 -165t-165 -68q-100 0 -171 71t-71 171z" />
<glyph unicode="D" horiz-adv-x="563" d="M46 -2v1436h270q85 0 145 -61q60 -60 60 -145v-1024q0 -85 -60 -145q-60 -61 -145 -61h-270zM144 97h172q44 0 76 32q31 31 31 75v1024q0 44 -31 75q-32 32 -76 32h-172v-1238z" />
<glyph unicode="E" horiz-adv-x="519" d="M45 0v1434h426v-98h-328v-570h328v-97h-328v-570h328v-99h-426z" />
<glyph unicode="F" horiz-adv-x="537" d="M55 0v1434h426v-98h-328v-570h328v-97h-328v-669h-98z" />
<glyph unicode="G" horiz-adv-x="577" d="M50 205v1022q0 86 61 146q60 61 145 61h73q81 0 139 -58t58 -140v-185h-99v185q0 41 -29 71q-29 28 -69 28h-73q-44 0 -75 -32q-32 -31 -32 -76v-1022q0 -44 32 -75q31 -32 75 -32h73q40 0 69 28q29 30 29 70v472h-158v99h257v-571q0 -81 -58 -139t-139 -58h-73 q-85 0 -145 61q-61 60 -61 145z" />
<glyph unicode="H" horiz-adv-x="577" d="M50 0v1434h99v-668l278 2v666h99v-1434h-99v669h-278v-669h-99z" />
<glyph unicode="I" horiz-adv-x="207" d="M52 -20v1448h99v-1448h-99z" />
<glyph unicode="J" horiz-adv-x="586" d="M50 196v155h98v-155q0 -39 29 -69q28 -28 69 -28h72q45 0 77 31q31 32 31 76v1228h98v-1228q0 -85 -60 -145q-61 -61 -146 -61h-72q-81 0 -138 58q-58 58 -58 138z" />
<glyph unicode="K" horiz-adv-x="602" d="M64 0v1434h98v-657h57q91 0 156 66q66 65 66 156v435h97v-435q0 -183 -158 -276q158 -97 158 -282v-441h-97v441q0 96 -69 164q-68 68 -164 68h-46v-673h-98z" />
<glyph unicode="L" horiz-adv-x="594" d="M55 -3v1437h107v-1338h250q25 0 25 22v32h106v-33q0 -49 -39 -84q-38 -36 -92 -36h-357z" />
<glyph unicode="M" horiz-adv-x="704" d="M52 0v1434h179l122 -1012l122 1012h179v-1434h-98v1284l-155 -1280h-96l-155 1280v-1284h-98z" />
<glyph unicode="N" horiz-adv-x="590" d="M51 0v1434h99l279 -1059v1059h98v-1434h-101l-277 1051v-1051h-98z" />
<glyph unicode="O" horiz-adv-x="581" d="M52 239v957q0 99 70 169t168 70q99 0 169 -70t70 -169v-957q0 -99 -70 -169t-169 -70q-98 0 -168 70t-70 169zM150 239q0 -58 42 -99q41 -42 98 -42q58 0 99 42q42 41 42 99v957q0 58 -42 99q-41 42 -99 42q-57 0 -98 -42q-42 -41 -42 -99v-957z" />
<glyph unicode="P" horiz-adv-x="572" d="M52 0v1435h223q104 0 178 -75q75 -73 75 -176v-263q0 -105 -75 -178q-74 -74 -178 -74h-125v-669h-98zM150 767h125q64 0 108 45q46 45 46 109v263q0 63 -46 107q-44 45 -108 45h-125v-569z" />
<glyph unicode="Q" horiz-adv-x="586" d="M50 240v957q0 99 70 169t169 70q98 0 168 -70t70 -169v-957q0 -81 -50 -146q-48 -63 -126 -85l115 -22l-19 -96l-256 50l14 75q-155 58 -155 224zM148 240q0 -58 42 -99q41 -42 99 -42q57 0 98 42q42 41 42 99v957q0 58 -42 99q-41 41 -98 41q-58 0 -99 -41 q-42 -41 -42 -99v-957z" />
<glyph unicode="R" horiz-adv-x="576" d="M50 0v1434h225q104 0 178 -74q75 -75 75 -179v-264q0 -124 -100 -201q72 -60 72 -153v-423q0 -40 40 -40h16v-99h-16q-57 1 -98 41q-41 41 -41 98v423q0 41 -29 72q-30 29 -72 29h-151v-664h-99zM149 763h126q64 0 108 46q46 44 46 108v264q0 64 -46 110q-44 44 -108 44 h-126v-572z" />
<glyph unicode="S" horiz-adv-x="581" d="M55 238v239h98v-239q0 -28 10 -55q11 -24 31 -44q19 -19 44 -30q28 -11 54 -11q27 0 55 11q24 11 44 30q20 20 29 44q12 27 12 55v115q0 107 -66 190l-233 296q-78 99 -78 224v131q0 48 18 93q18 43 51 75q34 34 75 52q47 20 93 20t93 -20q42 -18 75 -52q33 -32 51 -75 q19 -45 19 -93v-239h-98v239q0 28 -12 55q-9 24 -29 44q-20 19 -44 29q-28 12 -55 12q-26 0 -54 -12q-24 -10 -44 -29q-20 -20 -31 -44q-10 -27 -10 -55v-131q0 -91 57 -163l232 -296q88 -110 88 -251v-115q0 -48 -19 -93q-18 -43 -51 -76q-32 -33 -75 -51q-45 -18 -93 -18 q-47 0 -93 18q-42 18 -75 51t-51 76q-18 45 -18 93z" />
<glyph unicode="T" horiz-adv-x="676" d="M53 1336v98h566v-98h-234v-1335h-98v1335h-234z" />
<glyph unicode="U" horiz-adv-x="577" d="M54 241v1193h98v-1193q0 -58 41 -99q41 -40 99 -40q56 0 97 40q41 41 41 99v1193h98v-1193q0 -99 -69 -169q-70 -69 -167 -69q-99 0 -169 69q-69 70 -69 169z" />
<glyph unicode="V" horiz-adv-x="590" d="M58 372v1062h98v-1062q0 -167 139 -261q140 94 140 261v1062h98v-1062q0 -243 -214 -362l-24 -13l-24 13q-213 119 -213 362z" />
<glyph unicode="W" horiz-adv-x="968" d="M56 241v1193h98v-1193q0 -58 41 -99q41 -40 99 -40q56 0 97 40q41 41 41 99v1193h98v-1193q0 -58 41 -99q41 -40 99 -40q57 0 98 40q41 41 41 99v1193h98v-1193q0 -99 -70 -169q-69 -69 -167 -69q-99 0 -168 69q-12 12 -21 24q-9 -12 -20 -24q-70 -69 -167 -69 q-99 0 -169 69q-69 70 -69 169z" />
<glyph unicode="X" horiz-adv-x="602" d="M63 0v381q0 196 154 321q-154 124 -154 321v411h98v-411q0 -166 139 -260q138 94 138 260v411h99v-411q0 -197 -155 -321q155 -125 155 -321v-381h-99v381q0 166 -138 260q-139 -94 -139 -260v-381h-98z" />
<glyph unicode="Y" horiz-adv-x="589" d="M54 910v524h98v-524q0 -58 41 -100q41 -41 99 -41q57 0 99 41q41 42 41 100v524h98v-524q0 -86 -54 -151q-53 -66 -135 -83v-675h-98v675q-81 17 -135 83q-54 65 -54 151z" />
<glyph unicode="Z" horiz-adv-x="717" d="M53 0l445 1335h-220q-56 0 -84 -46l-6 -10l-83 52l5 9q59 94 168 94h357l-445 -1336h281q66 0 93 61l7 15l89 -40l-6 -15q-54 -119 -183 -119h-418z" />
<glyph unicode="[" horiz-adv-x="377" d="M65 0v1364h236v-98h-138v-1167h138v-99h-236z" />
<glyph unicode="\" horiz-adv-x="569" d="M67 1365l91 22l326 -1343l-91 -22z" />
<glyph unicode="]" horiz-adv-x="373" d="M65 0v99h138v1167h-138v98h236v-1364h-236z" />
<glyph unicode="^" horiz-adv-x="484" d="M48 1375l187 151l187 -151l-58 -72l-129 104l-129 -104z" />
<glyph unicode="_" horiz-adv-x="809" d="M77 -2h640v-94h-640v94z" />
<glyph unicode="`" horiz-adv-x="189" d="M27 1595h92l37 -140h-58z" />
<glyph unicode="a" d="M33 268v19q0 111 79 190t190 79q53 0 101 -21q-3 54 -42 92q-40 38 -94 38q-57 0 -97 -40q-41 -41 -41 -98h-96q0 98 68 166q69 69 166 69t165 -69q69 -68 69 -166v-375q0 -42 30 -82l5 -8l-75 -61q-4 5 -9 13q-7 9 -15 22q-64 -37 -135 -37q-111 0 -190 79t-79 190z M129 268q0 -71 51 -122q50 -49 122 -49q57 0 103 35q-1 12 -1 20v272q-45 35 -102 35q-72 0 -122 -50q-51 -50 -51 -122v-19z" />
<glyph unicode="b" horiz-adv-x="566" d="M56 0v1409h96v-695q63 46 139 46q97 0 165 -67q68 -69 68 -165v-310q0 -90 -64 -155q-64 -63 -154 -63h-37q-64 0 -117 34v-34h-96zM152 213q0 -48 35 -82q34 -35 82 -35h37q50 0 86 36q35 36 35 86v310q0 56 -39 96q-41 40 -97 40q-57 0 -98 -41t-41 -98v-312z" />
<glyph unicode="c" horiz-adv-x="568" d="M59 219v311q0 97 68 164q67 68 164 68q98 0 167 -68q69 -70 69 -168h-97q0 58 -41 98q-40 42 -98 42q-56 0 -96 -40t-40 -96v-311q0 -49 36 -85t86 -36q63 0 108 46q45 44 45 107h97q0 -103 -73 -177q-73 -73 -177 -73q-91 0 -154 64q-64 64 -64 154z" />
<glyph unicode="d" horiz-adv-x="632" d="M67 218v311q0 96 69 165q68 67 165 67q76 0 138 -46v694h97v-1261q0 -40 27 -68l15 -16l-71 -66l-14 16q-23 23 -37 54q-72 -68 -170 -68q-90 0 -155 63q-64 65 -64 155zM165 218q0 -50 35 -86q35 -35 86 -35q63 0 108 44q45 46 45 109v275q0 58 -41 99q-40 41 -97 41 q-56 0 -97 -40q-39 -40 -39 -96v-311z" />
<glyph unicode="e" horiz-adv-x="579" d="M60 218v312q0 96 69 164q67 68 164 68t167 -69t70 -166v-191h-373v-118q0 -50 36 -85q35 -36 85 -36q106 0 144 98q11 27 11 55h97q0 -46 -17 -90q-29 -71 -93 -116q-64 -44 -142 -44q-90 0 -154 64t-64 154zM157 433h276v94q0 57 -42 98q-41 40 -98 40t-96 -39 q-40 -40 -40 -96v-97z" />
<glyph unicode="f" horiz-adv-x="439" d="M43 659v96h104v451q0 84 59 144q60 59 144 59h71v-96h-71q-45 0 -76 -32q-31 -31 -31 -75v-451h108v-96h-108v-660h-96v660h-104z" />
<glyph unicode="g" horiz-adv-x="602" d="M63 -122h100q0 -56 42 -96t100 -40q59 0 101 40q41 40 41 96v172q-63 -44 -142 -44q-100 0 -171 69q-71 67 -71 163v293q0 96 71 165q71 67 171 67q79 0 142 -44v40h101v-881q0 -96 -71 -164q-72 -68 -172 -68t-171 68t-71 164zM163 238q0 -56 42 -96t100 -40 q59 0 101 40q41 40 41 96v293q0 56 -41 96q-42 40 -101 40q-58 0 -100 -40t-42 -96v-293z" />
<glyph unicode="h" horiz-adv-x="587" d="M59 0v1410h96v-698q67 50 148 50q93 0 159 -66t66 -159v-537h-98v537q0 53 -37 91q-37 37 -90 37q-60 0 -104 -44q-44 -42 -44 -103v-518h-96z" />
<glyph unicode="i" horiz-adv-x="226" d="M64 0v761h96v-761h-96zM64 899v148h97v-148h-97z" />
<glyph unicode="j" horiz-adv-x="240" d="M-101 -275h71q45 0 77 32q31 32 31 76v931h97v-931q0 -85 -59 -144q-61 -61 -146 -61h-71v97zM78 899v148h97v-148h-97z" />
<glyph unicode="k" horiz-adv-x="584" d="M60 0v1410h97v-932h81q80 0 137 56q57 57 57 138v92h98v-92q0 -148 -122 -236q122 -72 122 -212v-224h-98v224q0 62 -44 106t-106 44h-125v-374h-97z" />
<glyph unicode="l" horiz-adv-x="235" d="M72 0v1409h97v-1409h-97z" />
<glyph unicode="m" horiz-adv-x="953" d="M53 -1v764h97v-46q62 46 140 46q115 0 186 -94q71 92 187 92q96 0 164 -68q69 -69 69 -166v-528h-97v528q0 57 -41 97q-39 40 -95 40q-58 0 -98 -41q-41 -39 -42 -97v-526h-97v529q0 57 -41 96q-39 40 -95 40q-58 0 -99 -41q-41 -40 -41 -98v-527h-97z" />
<glyph unicode="n" horiz-adv-x="594" d="M66 0v762h97v-50q66 50 147 50q93 0 159 -65q66 -67 66 -159v-538h-97v538q0 53 -38 90q-37 37 -90 37q-60 0 -104 -43q-43 -43 -43 -104v-518h-97z" />
<glyph unicode="o" d="M51 236v291q0 97 70 166q69 69 166 69t166 -69t69 -166v-291q0 -98 -69 -167t-166 -69t-166 69q-70 69 -70 167zM149 236q0 -58 41 -98q39 -41 97 -41q57 0 98 41q39 40 39 98v291q0 57 -39 97q-41 41 -98 41q-58 0 -97 -41q-41 -40 -41 -97v-291z" />
<glyph unicode="p" horiz-adv-x="594" d="M71 -348v1111h95v-36q54 36 117 36h38q88 0 151 -63q61 -62 61 -150v-329q0 -88 -61 -151q-63 -62 -151 -62h-38q-62 0 -117 36v-392h-95zM166 221q0 -48 35 -83q34 -34 82 -34h38q48 0 83 34q34 35 34 83v329q0 49 -34 83q-35 34 -83 34h-38q-48 0 -82 -34 q-35 -34 -35 -83v-329z" />
<glyph unicode="q" horiz-adv-x="582" d="M56 224v325q0 88 62 152q64 62 152 62h36q63 0 117 -36v36h95v-992q0 -32 32 -32h28v-96h-28q-53 0 -90 38q-37 37 -37 90v273q-54 -36 -117 -36h-35q-89 0 -152 64q-63 63 -63 152zM152 224q0 -50 35 -84q35 -35 84 -35h35q48 0 83 34q34 34 34 82v329q0 48 -34 83 q-35 34 -83 34h-36q-49 0 -84 -34q-34 -35 -34 -84v-325z" />
<glyph unicode="r" horiz-adv-x="545" d="M70 0v763h98v-37q55 36 120 36h37q95 0 158 -67l-71 -68q-35 38 -87 38h-37q-49 0 -85 -35q-35 -36 -35 -85v-545h-98z" />
<glyph unicode="s" horiz-adv-x="585" d="M54 216h97q0 -48 35 -83q36 -34 85 -34h79q78 0 78 77q0 78 -67 115l-208 115q-99 57 -99 170q0 78 54 132q55 55 133 55h70q88 0 152 -62q62 -64 62 -152h-97q0 48 -34 83q-34 34 -83 34h-70q-37 0 -64 -27q-26 -26 -26 -63q0 -56 50 -84l206 -116q118 -65 118 -200 q0 -72 -51 -123q-51 -52 -124 -52h-79q-90 0 -154 63q-63 64 -63 152z" />
<glyph unicode="t" horiz-adv-x="427" d="M57 665v96h98v648h97v-648h96v-96h-96v-481q0 -36 26 -62t62 -26h11v-96h-11q-77 0 -131 54t-54 130v481h-98z" />
<glyph unicode="u" horiz-adv-x="628" d="M69 235v527h97v-527q0 -57 40 -98q40 -39 98 -39q56 0 96 39q41 41 41 98v527h96v-605q0 -49 38 -80l11 -9l-62 -75l-11 9q-31 26 -50 63q-67 -65 -159 -65q-98 0 -167 69q-68 68 -68 166z" />
<glyph unicode="v" horiz-adv-x="585" d="M56 366v396h96v-396q0 -163 137 -254q135 91 135 254v396h97v-396q0 -238 -210 -354l-22 -13l-24 13q-209 116 -209 354z" />
<glyph unicode="w" horiz-adv-x="964" d="M56 236v527h97v-527q0 -58 41 -98q40 -40 98 -40q56 0 97 40q40 40 40 98v527h98v-527q0 -58 40 -98q41 -40 98 -40t97 40q41 40 41 98v527h97v-527q0 -98 -69 -167t-166 -69q-98 0 -167 69q-11 11 -21 23q-8 -12 -19 -23q-69 -69 -166 -69q-98 0 -167 69t-69 167z" />
<glyph unicode="x" horiz-adv-x="583" d="M63 0v200q0 101 116 170q-116 71 -116 170v222h97v-222q0 -71 136 -117q136 46 136 117v222h96v-222q0 -99 -116 -170q116 -69 116 -170v-200h-96v200q0 72 -136 117q-136 -45 -136 -117v-200h-97z" />
<glyph unicode="y" horiz-adv-x="572" d="M56 -116h95q0 -57 40 -96q40 -40 96 -40t96 40q40 39 40 96v170q-61 -45 -136 -45q-96 0 -163 68q-68 68 -68 164v521h95v-521q0 -57 40 -97q40 -39 96 -39t96 39q40 40 40 97v521h96v-878q0 -96 -68 -164t-164 -68t-163 68q-68 68 -68 164z" />
<glyph unicode="z" horiz-adv-x="632" d="M62 0l337 665h-117q-50 0 -78 -40l-14 -21l-80 56l15 21q57 81 157 81h275l-337 -665h188q44 0 67 38l20 32l83 -51l-21 -33q-51 -83 -149 -83h-346z" />
<glyph unicode="{" horiz-adv-x="525" d="M50 684l92 115q48 61 48 138v238q0 80 57 137q56 56 136 56h69v-92h-69q-41 0 -71 -30q-30 -29 -30 -71v-238q0 -109 -68 -195l-46 -58l46 -57q68 -86 68 -196v-238q0 -41 30 -71t71 -30h69v-92h-69q-80 0 -136 57q-57 56 -57 136v238q0 77 -48 138z" />
<glyph unicode="|" horiz-adv-x="1014" />
<glyph unicode="}" horiz-adv-x="497" d="M50 0v92h69q41 0 71 30t30 71v238q0 110 68 196l46 57l-46 58q-68 86 -68 195v238q0 42 -30 71q-30 30 -71 30h-69v92h69q80 0 136 -56q57 -57 57 -137v-238q0 -77 48 -138l92 -115l-92 -115q-48 -61 -48 -138v-238q0 -80 -57 -136q-56 -57 -136 -57h-69z" />
<glyph unicode="~" horiz-adv-x="1014" />
<glyph unicode="&#xa1;" horiz-adv-x="672" />
<glyph unicode="&#xa2;" horiz-adv-x="1139" />
<glyph unicode="&#xa3;" horiz-adv-x="839" d="M80 0v94h110v462h-110v94h110v472q0 99 70 169t168 70q99 0 169 -70t70 -169v-159h-94v159q0 60 -43 102q-42 42 -102 42q-59 0 -101 -42q-43 -42 -43 -102v-472h112v-94h-112v-462h460v-94h-664z" />
<glyph unicode="&#xa4;" horiz-adv-x="1014" />
<glyph unicode="&#xa5;" horiz-adv-x="603" d="M70 852v493h92v-493q0 -54 39 -92q38 -39 92 -39q55 0 93 39q38 38 38 92v493h93v-493q0 -67 -37 -123q-37 -54 -96 -80h123v-93h-167v-92h167v-93h-167v-371h-93v371h-168v93h168v92h-168v93h124q-60 26 -96 80q-37 56 -37 123z" />
<glyph unicode="&#xa6;" horiz-adv-x="1014" />
<glyph unicode="&#xa7;" horiz-adv-x="1014" />
<glyph unicode="&#xa8;" horiz-adv-x="1024" />
<glyph unicode="&#xa9;" horiz-adv-x="655" d="M98 626q0 94 68 161q67 67 161 67q95 0 162 -67t67 -161q0 -95 -67 -162t-162 -67q-94 0 -161 67q-68 67 -68 162zM121 626q0 -86 61 -146q60 -60 145 -60t146 60q60 60 60 146q0 85 -60 145q-61 60 -146 60t-145 -60q-61 -60 -61 -145zM273 511v228q0 21 15 36t35 15h13 q19 0 32 -13q14 -14 14 -33v-42h-23v42q0 10 -7 17q-6 7 -16 7h-13q-11 0 -19 -9q-9 -8 -9 -20v-228q0 -12 8 -19q8 -8 19 -8h12q11 0 18 7t7 18v40h23v-40q0 -20 -14 -34t-34 -14h-12q-20 0 -35 15q-14 14 -14 35z" />
<glyph unicode="&#xaa;" horiz-adv-x="654" d="M99 628q0 95 67 162t162 67q94 0 162 -67q67 -67 67 -162q0 -94 -67 -161q-68 -67 -162 -67q-95 0 -162 67t-67 161zM122 628q0 -85 60 -145q61 -60 146 -60t145 60q61 60 61 145t-61 146q-60 60 -145 60t-146 -60q-60 -61 -60 -146zM270 465v327h51q24 0 41 -17t17 -41 v-60q0 -28 -23 -46q17 -13 17 -35v-96q0 -10 9 -10h4v-22h-4q-13 0 -23 9q-9 10 -9 23v96q0 10 -7 16q-6 7 -16 7h-35v-151h-22zM292 639h29q15 0 25 10q10 11 10 25v60q0 15 -10 25q-10 11 -25 11h-29v-131z" />
<glyph unicode="&#xab;" horiz-adv-x="631" />
<glyph unicode="&#xac;" horiz-adv-x="1014" />
<glyph unicode="&#xad;" horiz-adv-x="670" d="M126 409v93h432v-93h-432z" />
<glyph unicode="&#xae;" horiz-adv-x="1674" />
<glyph unicode="&#xaf;" horiz-adv-x="670" d="M126 1278v93h432v-93h-432z" />
<glyph unicode="&#xb0;" horiz-adv-x="214" d="M-33 966q0 12 3 24q11 42 48 66q26 16 55 16q12 0 25 -3q43 -10 66 -48q16 -26 16 -54q0 -12 -3 -25q-9 -43 -47 -66q-27 -17 -57 -17q-11 0 -23 3q-43 11 -66 48q-17 27 -17 56zM11 965q0 -17 10 -32q14 -22 38 -28q8 -2 15 -2q18 0 33 10q22 13 28 38q2 7 2 15 q0 17 -10 32q-14 23 -39 29q-7 1 -14 1q-17 0 -33 -9q-22 -14 -28 -39q-2 -7 -2 -15z" />
<glyph unicode="&#xb1;" horiz-adv-x="929" d="M80 551v93h332v331h92v-331h331v-93h-331v-331h-92v331h-332zM145 91v87h625v-87h-625z" />
<glyph unicode="&#xb2;" horiz-adv-x="594" d="M79 1146q0 113 70 193q69 81 168 81q11 0 22 -1q100 -17 156 -112q28 -47 28 -115q0 -71 -30 -164l-3 -5l-312 -919q-1 -2 -1 -4q0 -4 1 -7h345v-93h-350q-51 0 -78 49q-14 25 -14 51q0 28 18 56l2 2l313 919q17 63 17 111q0 46 -16 77q-34 61 -96 62h-1q-61 0 -103 -53 q-43 -54 -43 -128h-93z" />
<glyph unicode="&#xb3;" horiz-adv-x="580" d="M64 162l88 29q11 -31 27 -53t35 -33.5t64 -11.5q44 0 63 11t36 32t26.5 52.5t9.5 68.5q0 36 -3 182t-24.5 173.5t-40.5 38t-141 11.5v95h21q103 0 121 9q20 10 36 29.5t25.5 48.5t10.5 202v31q0 144 -8 170q-10 28 -25 48.5t-35 31t-64 10.5q-45 0 -65 -10t-36.5 -30 t-26.5 -48l-88 30q15 43 42.5 77t66 54t106.5 20t107 -21t65.5 -55t41.5 -77q13 -41 13 -208v-23q-1 -188 -16.5 -232t-35 -69.5t-34.5 -38.5q16 -14 45.5 -55.5t33.5 -192.5q3 -132 3 -187v-14q-1 -51 -16 -96.5t-41.5 -81.5t-65.5 -57.5t-108 -21.5t-107.5 22.5 t-65.5 58.5t-40 81z" />
<glyph unicode="&#xb4;" horiz-adv-x="256" d="M53 1365l37 140h92l-71 -140h-58z" />
<glyph unicode="&#xb5;" horiz-adv-x="0" />
<glyph unicode="&#xb6;" horiz-adv-x="1024" />
<glyph unicode="&#xb7;" horiz-adv-x="508" d="M38 657v121h79v-121h-79z" />
<glyph unicode="&#xb8;" horiz-adv-x="1024" />
<glyph unicode="&#xb9;" horiz-adv-x="369" d="M70 1332q26 16 61 63q27 35 63 35q14 0 30 -5q61 -20 61 -90v-1335h-92v1325q-40 -50 -76 -72z" />
<glyph unicode="&#xba;" horiz-adv-x="439" d="M62 807v94h320v-94h-320zM66 1137v174q0 58 46 100q45 41 109 41t110 -41q46 -42 46 -100v-174q0 -59 -46 -101q-46 -41 -110 -41t-109 41q-46 42 -46 101zM130 1137q0 -35 27 -59q26 -25 64 -25t65 25q26 24 26 59v174q0 34 -26 58q-27 25 -65 25t-64 -25 q-27 -24 -27 -58v-174z" />
<glyph unicode="&#xbb;" horiz-adv-x="631" />
<glyph unicode="&#xbc;" horiz-adv-x="875" d="M-411 1332q26 16 61 63q27 35 63 35q14 0 30 -5q61 -20 61 -90v-1335h-92v1325q-40 -50 -76 -72z" />
<glyph unicode="&#xbd;" horiz-adv-x="1014" d="M70 1332q26 16 61 63q27 35 63 35q14 0 30 -5q61 -20 61 -90v-1335h-92v1325q-40 -50 -76 -72zM1435 1146q0 113 70 193q69 81 168 81q11 0 22 -1q100 -17 156 -112q28 -47 28 -115q0 -71 -30 -164l-3 -5l-312 -919q-1 -2 -1 -4q0 -4 1 -7h345v-93h-350q-51 0 -78 49 q-14 25 -14 51q0 28 18 56l2 2l313 919q17 63 17 111q0 46 -16 77q-34 61 -96 62h-1q-61 0 -103 -53q-43 -54 -43 -128h-93z" />
<glyph unicode="&#xbe;" horiz-adv-x="875" d="M-417 162l88 29q11 -31 27 -53t35 -33.5t64 -11.5q44 0 63 11t36 32t26.5 52.5t9.5 68.5q0 36 -3 182t-24.5 173.5t-40.5 38t-141 11.5v95h21q103 0 121 9q20 10 36 29.5t25.5 48.5t10.5 202v31q0 144 -8 170q-10 28 -25 48.5t-35 31t-64 10.5q-45 0 -65 -10t-36.5 -30 t-26.5 -48l-88 30q15 43 42.5 77t66 54t106.5 20t107 -21t65.5 -55t41.5 -77q13 -41 13 -208v-23q-1 -188 -16.5 -232t-35 -69.5t-34.5 -38.5q16 -14 45.5 -55.5t33.5 -192.5q3 -132 3 -187v-14q-1 -51 -16 -96.5t-41.5 -81.5t-65.5 -57.5t-108 -21.5t-107.5 22.5 t-65.5 58.5t-40 81z" />
<glyph unicode="&#xbf;" horiz-adv-x="566" d="M62 -182q0 144 71 361q103 269 103 455v159h93v-145q1 -14 1 -29q0 -203 -117 -489q-58 -195 -58 -312q0 -52 30 -90q31 -37 73 -37h25q52 0 90 46q37 45 37 110v154h93v-154q0 -103 -64 -176q-65 -73 -156 -73h-25q-81 0 -139 64q-57 65 -57 156zM236 890v134h93v-134 h-93z" />
<glyph unicode="&#xc0;" horiz-adv-x="660" d="M32 0l248 1434h100l248 -1434h-100l-46 267h-304l-47 -267h-99zM194 365h271l-135 781zM244 1595h92l37 -140h-58z" />
<glyph unicode="&#xc1;" horiz-adv-x="660" d="M32 0l248 1434h100l248 -1434h-100l-46 267h-304l-47 -267h-99zM194 365h271l-135 781zM287 1455l37 140h92l-71 -140h-58z" />
<glyph unicode="&#xc2;" horiz-adv-x="660" d="M32 0l248 1434h100l248 -1434h-100l-46 267h-304l-47 -267h-99zM143 1525l187 151l187 -151l-58 -72l-129 104l-129 -104zM194 365h271l-135 781z" />
<glyph unicode="&#xc3;" horiz-adv-x="660" d="M32 0l248 1434h100l248 -1434h-100l-46 267h-304l-47 -267h-99zM97 1548q47 54 127 54q53 0 120 -24q52 -19 89 -19q43 0 67 25l63 -57q-45 -50 -136 -50q-52 0 -111 21q-53 19 -90 19q-43 0 -65 -25zM194 365h271l-135 781z" />
<glyph unicode="&#xc4;" horiz-adv-x="1540" />
<glyph unicode="&#xc5;" horiz-adv-x="1540" />
<glyph unicode="&#xc6;" horiz-adv-x="2118" />
<glyph unicode="&#xc7;" horiz-adv-x="1399" />
<glyph unicode="&#xc8;" horiz-adv-x="550" d="M55 0v1434h426v-98h-328v-570h328v-97h-328v-570h328v-99h-426zM182 1595h92l37 -140h-58z" />
<glyph unicode="&#xc9;" horiz-adv-x="540" d="M55 0v1434h426v-98h-328v-570h328v-97h-328v-570h328v-99h-426zM225 1455l37 140h92l-71 -140h-58z" />
<glyph unicode="&#xca;" horiz-adv-x="565" d="M65 0v1434h426v-98h-328v-570h328v-97h-328v-570h328v-99h-426zM91 1555l187 151l187 -151l-58 -72l-129 104l-129 -104z" />
<glyph unicode="&#xcb;" horiz-adv-x="519" d="M45 0v1434h426v-98h-328v-570h328v-97h-328v-570h328v-99h-426z" />
<glyph unicode="&#xcc;" horiz-adv-x="285" d="M56 1595h92l37 -140h-58zM102 -20v1448h99v-1448h-99z" />
<glyph unicode="&#xcd;" horiz-adv-x="223" d="M62 -20v1448h99v-1448h-99zM79 1455l37 140h92l-71 -140h-58z" />
<glyph unicode="&#xce;" horiz-adv-x="380" d="M-5 1515l187 151l187 -151l-58 -72l-129 104l-129 -104zM132 -20v1448h99v-1448h-99z" />
<glyph unicode="&#xcf;" horiz-adv-x="657" />
<glyph unicode="&#xd0;" horiz-adv-x="1518" />
<glyph unicode="&#xd1;" horiz-adv-x="603" d="M58 0v1434h99l279 -1059v1059h98v-1434h-101l-277 1051v-1051h-98zM81 1528q47 54 126 54q53 0 121 -24q52 -19 89 -19q43 0 67 25l62 -57q-44 -50 -135 -50q-52 0 -112 21q-53 19 -90 19q-43 0 -65 -25z" />
<glyph unicode="&#xd2;" horiz-adv-x="581" d="M52 239v957q0 99 70 169t168 70q99 0 169 -70t70 -169v-957q0 -99 -70 -169t-169 -70q-98 0 -168 70t-70 169zM150 239q0 -58 42 -99q41 -42 98 -42q58 0 99 42q42 41 42 99v957q0 58 -42 99q-41 42 -99 42q-57 0 -98 -42q-42 -41 -42 -99v-957zM205 1595h92l37 -140h-58 z" />
<glyph unicode="&#xd3;" horiz-adv-x="581" d="M52 239v957q0 99 70 169t168 70q99 0 169 -70t70 -169v-957q0 -99 -70 -169t-169 -70q-98 0 -168 70t-70 169zM150 239q0 -58 42 -99q41 -42 98 -42q58 0 99 42q42 41 42 99v957q0 58 -42 99q-41 42 -99 42q-57 0 -98 -42q-42 -41 -42 -99v-957zM248 1455l37 140h92 l-71 -140h-58z" />
<glyph unicode="&#xd4;" horiz-adv-x="581" d="M52 239v957q0 99 70 169t168 70q99 0 169 -70t70 -169v-957q0 -99 -70 -169t-169 -70q-98 0 -168 70t-70 169zM104 1505l187 151l187 -151l-58 -72l-129 104l-129 -104zM150 239q0 -58 42 -99q41 -42 98 -42q58 0 99 42q42 41 42 99v957q0 58 -42 99q-41 42 -99 42 q-57 0 -98 -42q-42 -41 -42 -99v-957z" />
<glyph unicode="&#xd5;" horiz-adv-x="581" d="M52 239v957q0 99 70 169t168 70q99 0 169 -70t70 -169v-957q0 -99 -70 -169t-169 -70q-98 0 -168 70t-70 169zM58 1538q47 54 127 54q53 0 120 -24q52 -19 89 -19q43 0 67 25l63 -57q-45 -50 -136 -50q-52 0 -111 21q-53 19 -90 19q-43 0 -65 -25zM150 239q0 -58 42 -99 q41 -42 98 -42q58 0 99 42q42 41 42 99v957q0 58 -42 99q-41 42 -99 42q-57 0 -98 -42q-42 -41 -42 -99v-957z" />
<glyph unicode="&#xd6;" horiz-adv-x="1614" />
<glyph unicode="&#xd7;" horiz-adv-x="771" d="M83 151l235 233l-233 236l66 65l233 -236l236 233l65 -66l-236 -233l233 -235l-66 -65l-233 235l-235 -233z" />
<glyph unicode="&#xd8;" horiz-adv-x="602" d="M72 239v957q0 99 70 169t168 70q99 0 169 -70t70 -169v-957q0 -99 -70 -169t-169 -70q-98 0 -168 70t-70 169zM95 18l353 1423l91 -22l-353 -1423zM170 239q0 -58 42 -99q41 -42 98 -42q58 0 99 42q42 41 42 99v957q0 58 -42 99q-41 42 -99 42q-57 0 -98 -42 q-42 -41 -42 -99v-957z" />
<glyph unicode="&#xd9;" horiz-adv-x="577" d="M54 241v1193h98v-1193q0 -58 41 -99q41 -40 99 -40q56 0 97 40q41 41 41 99v1193h98v-1193q0 -99 -69 -169q-70 -69 -167 -69q-99 0 -169 69q-69 70 -69 169zM205 1595h92l37 -140h-58z" />
<glyph unicode="&#xda;" horiz-adv-x="577" d="M54 241v1193h98v-1193q0 -58 41 -99q41 -40 99 -40q56 0 97 40q41 41 41 99v1193h98v-1193q0 -99 -69 -169q-70 -69 -167 -69q-99 0 -169 69q-69 70 -69 169zM248 1455l37 140h92l-71 -140h-58z" />
<glyph unicode="&#xdb;" horiz-adv-x="603" d="M54 241v1193h98v-1193q0 -58 41 -99q41 -40 99 -40q56 0 97 40q41 41 41 99v1193h98v-1193q0 -99 -69 -169q-70 -69 -167 -69q-99 0 -169 69q-69 70 -69 169zM113 1545l187 151l187 -151l-58 -72l-129 104l-129 -104z" />
<glyph unicode="&#xdc;" horiz-adv-x="1501" />
<glyph unicode="&#xdd;" horiz-adv-x="589" d="M54 910v524h98v-524q0 -58 41 -100q41 -41 99 -41q57 0 99 41q41 42 41 100v524h98v-524q0 -86 -54 -151q-53 -66 -135 -83v-675h-98v675q-81 17 -135 83q-54 65 -54 151zM249 1465l37 140h92l-71 -140h-58z" />
<glyph unicode="&#xde;" horiz-adv-x="1120" />
<glyph unicode="&#xdf;" horiz-adv-x="1251" />
<glyph unicode="&#xe0;" d="M50 260v19q0 107 76 183t183 76q51 0 98 -20q-3 52 -41 88q-38 37 -90 37q-55 0 -94 -39t-39 -94h-93q0 94 66 160t160 66q93 0 159 -66t66 -160v-362q0 -40 29 -79l5 -7l-72 -59q-4 5 -9 12q-7 9 -15 22q-61 -36 -130 -36q-107 0 -183 76t-76 183zM143 260 q0 -68 49 -117q48 -48 117 -48q55 0 100 34q-1 12 -1 19v263q-44 33 -99 33q-69 0 -117 -48q-49 -48 -49 -117v-19zM207 935h92l36 -140h-58z" />
<glyph unicode="&#xe1;" d="M50 260v19q0 107 76 183t183 76q51 0 98 -20q-3 52 -41 88q-38 37 -90 37q-55 0 -94 -39t-39 -94h-93q0 94 66 160t160 66q93 0 159 -66t66 -160v-362q0 -40 29 -79l5 -7l-72 -59q-4 5 -9 12q-7 9 -15 22q-61 -36 -130 -36q-107 0 -183 76t-76 183zM143 260 q0 -68 49 -117q48 -48 117 -48q55 0 100 34q-1 12 -1 19v263q-44 33 -99 33q-69 0 -117 -48q-49 -48 -49 -117v-19zM250 795l36 140h92l-70 -140h-58z" />
<glyph unicode="&#xe2;" d="M50 260v19q0 107 76 183t183 76q51 0 98 -20q-3 52 -41 88q-38 37 -90 37q-55 0 -94 -39t-39 -94h-93q0 94 66 160t160 66q93 0 159 -66t66 -160v-362q0 -40 29 -79l5 -7l-72 -59q-4 5 -9 12q-7 9 -15 22q-61 -36 -130 -36q-107 0 -183 76t-76 183zM106 835l186 151 l187 -151l-58 -72l-129 104l-128 -104zM143 260q0 -68 49 -117q48 -48 117 -48q55 0 100 34q-1 12 -1 19v263q-44 33 -99 33q-69 0 -117 -48q-49 -48 -49 -117v-19z" />
<glyph unicode="&#xe3;" d="M50 260v19q0 107 76 183t183 76q51 0 98 -20q-3 52 -41 88q-38 37 -90 37q-55 0 -94 -39t-39 -94h-93q0 94 66 160t160 66q93 0 159 -66t66 -160v-362q0 -40 29 -79l5 -7l-72 -59q-4 5 -9 12q-7 9 -15 22q-61 -36 -130 -36q-107 0 -183 76t-76 183zM60 838q47 54 126 54 q53 0 121 -24q52 -19 89 -19q43 0 67 25l62 -57q-44 -50 -135 -50q-52 0 -112 21q-53 19 -90 19q-43 0 -65 -25zM143 260q0 -68 49 -117q48 -48 117 -48q55 0 100 34q-1 12 -1 19v263q-44 33 -99 33q-69 0 -117 -48q-49 -48 -49 -117v-19z" />
<glyph unicode="&#xe4;" d="M33 268v19q0 111 79 190t190 79q53 0 101 -21q-3 54 -42 92q-40 38 -94 38q-57 0 -97 -40q-41 -41 -41 -98h-96q0 98 68 166q69 69 166 69t165 -69q69 -68 69 -166v-375q0 -42 30 -82l5 -8l-75 -61q-4 5 -9 13q-7 9 -15 22q-64 -37 -135 -37q-111 0 -190 79t-79 190z M129 268q0 -71 51 -122q50 -49 122 -49q57 0 103 35q-1 12 -1 20v272q-45 35 -102 35q-72 0 -122 -50q-51 -50 -51 -122v-19z" />
<glyph unicode="&#xe5;" d="M33 268v19q0 111 79 190t190 79q53 0 101 -21q-3 54 -42 92q-40 38 -94 38q-57 0 -97 -40q-41 -41 -41 -98h-96q0 98 68 166q69 69 166 69t165 -69q69 -68 69 -166v-375q0 -42 30 -82l5 -8l-75 -61q-4 5 -9 13q-7 9 -15 22q-64 -37 -135 -37q-111 0 -190 79t-79 190z M129 268q0 -71 51 -122q50 -49 122 -49q57 0 103 35q-1 12 -1 20v272q-45 35 -102 35q-72 0 -122 -50q-51 -50 -51 -122v-19z" />
<glyph unicode="&#xe6;" horiz-adv-x="926" d="M43 268v19q0 111 79 190t190 79q53 0 101 -21q-3 54 -42 92q-40 38 -94 38q-57 0 -97 -40q-41 -41 -41 -98h-96q0 98 68 166q69 69 166 69t165 -69q69 -68 69 -166v-375q0 -42 30 -82l5 -8l-75 -61q-4 5 -9 13q-7 9 -15 22q-64 -37 -135 -37q-111 0 -190 79t-79 190z M139 268q0 -71 51 -122q50 -49 122 -49q57 0 103 35q-1 12 -1 20v272q-45 35 -102 35q-72 0 -122 -50q-51 -50 -51 -122v-19zM412 218v312q0 96 69 164q67 68 164 68t167 -69t70 -166v-191h-373v-118q0 -50 36 -85q35 -36 85 -36q106 0 144 98q11 27 11 55h97q0 -46 -17 -90 q-29 -71 -93 -116q-64 -44 -142 -44q-90 0 -154 64t-64 154zM509 433h276v94q0 57 -42 98q-41 40 -98 40t-96 -39q-40 -40 -40 -96v-97z" />
<glyph unicode="&#xe7;" horiz-adv-x="905" />
<glyph unicode="&#xe8;" horiz-adv-x="579" d="M50 218v312q0 96 69 164q67 68 164 68t167 -69t70 -166v-191h-373v-118q0 -50 36 -85q35 -36 85 -36q106 0 144 98q11 27 11 55h97q0 -46 -17 -90q-29 -71 -93 -116q-64 -44 -142 -44q-90 0 -154 64t-64 154zM147 433h276v94q0 57 -42 98q-41 40 -98 40t-96 -39 q-40 -40 -40 -96v-97zM187 925h92l36 -140h-58z" />
<glyph unicode="&#xe9;" horiz-adv-x="579" d="M50 218v312q0 96 69 164q67 68 164 68t167 -69t70 -166v-191h-373v-118q0 -50 36 -85q35 -36 85 -36q106 0 144 98q11 27 11 55h97q0 -46 -17 -90q-29 -71 -93 -116q-64 -44 -142 -44q-90 0 -154 64t-64 154zM147 433h276v94q0 57 -42 98q-41 40 -98 40t-96 -39 q-40 -40 -40 -96v-97zM230 785l36 140h92l-70 -140h-58z" />
<glyph unicode="&#xea;" d="M50 218v312q0 96 69 164q67 68 164 68t167 -69t70 -166v-191h-373v-118q0 -50 36 -85q35 -36 85 -36q106 0 144 98q11 27 11 55h97q0 -46 -17 -90q-29 -71 -93 -116q-64 -44 -142 -44q-90 0 -154 64t-64 154zM96 815l186 151l187 -151l-58 -72l-129 104l-128 -104z M147 433h276v94q0 57 -42 98q-41 40 -98 40t-96 -39q-40 -40 -40 -96v-97z" />
<glyph unicode="&#xeb;" horiz-adv-x="909" />
<glyph unicode="&#xec;" horiz-adv-x="189" d="M27 1595h92l37 -140h-58z" />
<glyph unicode="&#xed;" horiz-adv-x="204" d="M35 1455l37 140h92l-71 -140h-58z" />
<glyph unicode="&#xee;" horiz-adv-x="448" d="M35 1525l187 151l187 -151l-58 -72l-129 104l-129 -104z" />
<glyph unicode="&#xef;" horiz-adv-x="514" />
<glyph unicode="&#xf0;" horiz-adv-x="1139" />
<glyph unicode="&#xf1;" horiz-adv-x="600" d="M66 0v762h97v-50q66 50 147 50q93 0 159 -65q66 -67 66 -159v-538h-97v538q0 53 -38 90q-37 37 -90 37q-60 0 -104 -43q-43 -43 -43 -104v-518h-97zM69 858q47 54 127 54q53 0 120 -24q52 -19 89 -19q43 0 67 25l63 -57q-45 -50 -136 -50q-52 0 -111 21q-53 19 -90 19 q-43 0 -65 -25z" />
<glyph unicode="&#xf2;" d="M51 236v291q0 97 70 166q69 69 166 69t166 -69t69 -166v-291q0 -98 -69 -167t-166 -69t-166 69q-70 69 -70 167zM149 236q0 -58 41 -98q39 -41 97 -41q57 0 98 41q39 40 39 98v291q0 57 -39 97q-41 41 -98 41q-58 0 -97 -41q-41 -40 -41 -97v-291zM201 915h92l37 -140 h-58z" />
<glyph unicode="&#xf3;" d="M51 236v291q0 97 70 166q69 69 166 69t166 -69t69 -166v-291q0 -98 -69 -167t-166 -69t-166 69q-70 69 -70 167zM149 236q0 -58 41 -98q39 -41 97 -41q57 0 98 41q39 40 39 98v291q0 57 -39 97q-41 41 -98 41q-58 0 -97 -41q-41 -40 -41 -97v-291zM244 785l37 140h92 l-71 -140h-58z" />
<glyph unicode="&#xf4;" d="M51 236v291q0 97 70 166q69 69 166 69t166 -69t69 -166v-291q0 -98 -69 -167t-166 -69t-166 69q-70 69 -70 167zM100 815l187 151l187 -151l-58 -72l-129 104l-129 -104zM149 236q0 -58 41 -98q39 -41 97 -41q57 0 98 41q39 40 39 98v291q0 57 -39 97q-41 41 -98 41 q-58 0 -97 -41q-41 -40 -41 -97v-291z" />
<glyph unicode="&#xf5;" d="M58 236v291q0 97 70 166q69 69 166 69t166 -69t69 -166v-291q0 -98 -69 -167t-166 -69t-166 69q-70 69 -70 167zM61 848q47 54 127 54q53 0 120 -24q52 -19 89 -19q43 0 67 25l63 -57q-45 -50 -136 -50q-52 0 -111 21q-53 19 -90 19q-43 0 -65 -25zM156 236q0 -58 41 -98 q39 -41 97 -41q57 0 98 41q39 40 39 98v291q0 57 -39 97q-41 41 -98 41q-58 0 -97 -41q-41 -40 -41 -97v-291z" />
<glyph unicode="&#xf6;" horiz-adv-x="577" d="M51 236v291q0 97 70 166q69 69 166 69t166 -69t69 -166v-291q0 -98 -69 -167t-166 -69t-166 69q-70 69 -70 167zM149 236q0 -58 41 -98q39 -41 97 -41q57 0 98 41q39 40 39 98v291q0 57 -39 97q-41 41 -98 41q-58 0 -97 -41q-41 -40 -41 -97v-291z" />
<glyph unicode="&#xf7;" horiz-adv-x="1014" d="M130 324v92h755v-92h-755zM420 158q0 37 25 63q26 26 63 26q36 0 62 -26t26 -63q0 -36 -26 -62t-62 -26q-37 0 -63 26q-25 26 -25 62zM420 582q0 37 25 62q26 26 63 26q36 0 62 -26q26 -25 26 -62t-26 -62q-26 -26 -62 -26q-37 0 -63 26q-25 25 -25 62z" />
<glyph unicode="&#xf8;" d="M51 236v291q0 97 70 166q69 69 166 69t166 -69t69 -166v-291q0 -98 -69 -167t-166 -69t-166 69q-70 69 -70 167zM79 -282l326 1343l91 -22l-326 -1343zM149 236q0 -58 41 -98q39 -41 97 -41q57 0 98 41q39 40 39 98v291q0 57 -39 97q-41 41 -98 41q-58 0 -97 -41 q-41 -40 -41 -97v-291z" />
<glyph unicode="&#xf9;" horiz-adv-x="628" d="M59 235v527h97v-527q0 -57 40 -98q40 -39 98 -39q56 0 96 39q41 41 41 98v527h96v-605q0 -49 38 -80l11 -9l-62 -75l-11 9q-31 26 -50 63q-67 -65 -159 -65q-98 0 -167 69q-68 68 -68 166zM222 905h92l37 -140h-58z" />
<glyph unicode="&#xfa;" horiz-adv-x="612" d="M59 235v527h97v-527q0 -57 40 -98q40 -39 98 -39q56 0 96 39q41 41 41 98v527h96v-605q0 -49 38 -80l11 -9l-62 -75l-11 9q-31 26 -50 63q-67 -65 -159 -65q-98 0 -167 69q-68 68 -68 166zM275 795l37 140h92l-71 -140h-58z" />
<glyph unicode="&#xfb;" horiz-adv-x="628" d="M69 235v527h97v-527q0 -57 40 -98q40 -39 98 -39q56 0 96 39q41 41 41 98v527h96v-605q0 -49 38 -80l11 -9l-62 -75l-11 9q-31 26 -50 63q-67 -65 -159 -65q-98 0 -167 69q-68 68 -68 166zM121 845l187 151l187 -151l-58 -72l-129 104l-129 -104z" />
<glyph unicode="&#xfc;" horiz-adv-x="628" d="M69 235v527h97v-527q0 -57 40 -98q40 -39 98 -39q56 0 96 39q41 41 41 98v527h96v-605q0 -49 38 -80l11 -9l-62 -75l-11 9q-31 26 -50 63q-67 -65 -159 -65q-98 0 -167 69q-68 68 -68 166z" />
<glyph unicode="&#xfd;" horiz-adv-x="563" d="M56 -116h95q0 -57 40 -96q40 -40 96 -40t96 40q40 39 40 96v170q-61 -45 -136 -45q-96 0 -163 68q-68 68 -68 164v521h95v-521q0 -57 40 -97q40 -39 96 -39t96 39q40 40 40 97v521h96v-878q0 -96 -68 -164t-164 -68t-163 68q-68 68 -68 164zM259 775l36 140h92l-70 -140 h-58z" />
<glyph unicode="&#xfe;" horiz-adv-x="594" d="M71 -348v1111h95v-36q54 36 117 36h38q88 0 151 -63q61 -62 61 -150v-329q0 -88 -61 -151q-63 -62 -151 -62h-38q-62 0 -117 36v-392h-95zM72 0v1409h97v-1409h-97zM166 221q0 -48 35 -83q34 -34 82 -34h38q48 0 83 34q34 35 34 83v329q0 49 -34 83q-35 34 -83 34h-38 q-48 0 -82 -34q-35 -34 -35 -83v-329z" />
<glyph unicode="&#xff;" horiz-adv-x="608" d="M56 -116h95q0 -57 40 -96q40 -40 96 -40t96 40q40 39 40 96v170q-61 -45 -136 -45q-96 0 -163 68q-68 68 -68 164v521h95v-521q0 -57 40 -97q40 -39 96 -39t96 39q40 40 40 97v521h96v-878q0 -96 -68 -164t-164 -68t-163 68q-68 68 -68 164z" />
<glyph unicode="&#x2c6;" horiz-adv-x="493" d="M48 1175l187 151l187 -151l-58 -72l-129 104l-129 -104z" />
<glyph unicode="&#x2dc;" horiz-adv-x="672" d="M97 1548q47 54 127 54q53 0 120 -24q52 -19 89 -19q43 0 67 25l63 -57q-45 -50 -136 -50q-52 0 -111 21q-53 19 -90 19q-43 0 -65 -25z" />
<glyph unicode="&#x2000;" horiz-adv-x="853" />
<glyph unicode="&#x2001;" horiz-adv-x="1706" />
<glyph unicode="&#x2002;" horiz-adv-x="853" />
<glyph unicode="&#x2003;" horiz-adv-x="1706" />
<glyph unicode="&#x2004;" horiz-adv-x="568" />
<glyph unicode="&#x2005;" horiz-adv-x="426" />
<glyph unicode="&#x2006;" horiz-adv-x="284" />
<glyph unicode="&#x2007;" horiz-adv-x="284" />
<glyph unicode="&#x2008;" horiz-adv-x="213" />
<glyph unicode="&#x2009;" horiz-adv-x="341" />
<glyph unicode="&#x200a;" horiz-adv-x="94" />
<glyph unicode="&#x2010;" horiz-adv-x="670" d="M126 409v93h432v-93h-432z" />
<glyph unicode="&#x2011;" horiz-adv-x="670" d="M126 409v93h432v-93h-432z" />
<glyph unicode="&#x2012;" horiz-adv-x="670" d="M126 409v93h432v-93h-432z" />
<glyph unicode="&#x2013;" horiz-adv-x="1108" />
<glyph unicode="&#x2014;" horiz-adv-x="2048" />
<glyph unicode="&#x2018;" horiz-adv-x="557" />
<glyph unicode="&#x2019;" horiz-adv-x="557" />
<glyph unicode="&#x201a;" horiz-adv-x="557" />
<glyph unicode="&#x201c;" horiz-adv-x="557" />
<glyph unicode="&#x201d;" horiz-adv-x="557" />
<glyph unicode="&#x201e;" horiz-adv-x="557" />
<glyph unicode="&#x2022;" horiz-adv-x="1024" />
<glyph unicode="&#x2026;" horiz-adv-x="2048" d="M38 0v142h93v-142h-93zM721 0v142h93v-142h-93zM1404 0v142h93v-142h-93z" />
<glyph unicode="&#x202f;" horiz-adv-x="341" />
<glyph unicode="&#x2039;" horiz-adv-x="631" />
<glyph unicode="&#x203a;" horiz-adv-x="631" />
<glyph unicode="&#x205f;" horiz-adv-x="426" />
<glyph unicode="&#x20ac;" horiz-adv-x="625" d="M60 543v94h127v94h-127v94h127v306q0 98 59 167t141 69h3q75 0 129 -63t54 -152v-150h-80v150q0 50 -30 85q-31 36 -73 36h-3q-49 0 -85 -42q-35 -41 -35 -100v-306h204v-94h-204v-94h204v-94h-204v-312q0 -57 34 -97t83 -40q45 0 77 37q32 38 32 91v143h80v-143 q0 -92 -56 -157q-55 -65 -133 -65q-82 0 -139 68q-58 67 -58 163v312h-127z" />
<glyph unicode="&#x2122;" horiz-adv-x="624" d="M59 1424v40h255v-40h-106v-534h-44v534h-105zM300 890v574h81l55 -405l55 405h80v-574h-44v514l-70 -512h-43l-69 512v-514h-45z" />
<glyph unicode="&#x25fc;" horiz-adv-x="760" d="M0 0v760h760v-760h-760z" />
</font>
</defs>
</svg>
