<?xml version="1.0" encoding="UTF-8" standalone="no"?>
<!DOCTYPE svg  PUBLIC '-//W3C//DTD SVG 1.1//EN'  'http://www.w3.org/Graphics/SVG/1.1/DTD/svg11.dtd'>
<svg xmlns="http://www.w3.org/2000/svg" version="1.1">
<defs>
<font id="MicrosoftJhengHeiBold" horiz-adv-x="1220" vert-adv-y="2048">
<font-face font-weight="700" underline-position="-473" units-per-em="2048" unicode-range="U+0020-2074" x-height="1106" cap-height="1549" ascent="1823" underline-thickness="119" descent="-225" font-family="Microsoft JhengHei" bbox="-189 -520 2096 2008" panose-1="2 11 8 3 2 5 4 4 2 4"/>
<missing-glyph/>
<glyph horiz-adv-x="512" glyph-name="space" unicode=" "/>
<glyph horiz-adv-x="988" glyph-name="exclam" d="M452 1549l-28 -1097h-191l-27 1097h246zM183 118q0 60 43 100.5t105 40.5q61 0 104 -40.5t43 -100.5q0 -58 -42.5 -98.5t-99.5 -40.5q-67 0 -110 41t-43 98z" unicode="!"/>
<glyph horiz-adv-x="946" glyph-name="quotedbl" d="M393 1549l-33 -481h-158l-31 481h222zM775 1549l-33 -482h-156l-33 482h222z" unicode='&quot;'/>
<glyph horiz-adv-x="1308" glyph-name="numbersign" d="M1263 1129l-31 -143h-252l-65 -304h275l-36 -142h-268l-91 -410h-164l87 410h-262l-87 -410h-163l86 410h-254l27 142h257l63 304h-270l27 143h272l87 416h166l-87 -416h264l89 416h163l-87 -416h254zM816 986h-265l-67 -304h266z" unicode="#"/>
<glyph glyph-name="dollar" d="M687 -226h-128v227q-225 0 -386 95v227q64 -54 183 -94.5t203 -40.5v497q-231 99 -315 201.5t-84 249.5q0 157 111.5 276t287.5 138v197h128v-193q215 -7 310 -64v-222q-125 89 -310 99v-513q220 -98 314 -196.5t94 -246.5q0 -163 -108.5 -269.5t-299.5 -132.5v-235z M559 1362q-181 -38 -181 -205q0 -77 36.5 -129.5t144.5 -112.5v447zM687 195q190 39 190 200q0 134 -190 232v-432z" unicode="$"/>
<glyph horiz-adv-x="1848" glyph-name="percent" d="M90 1156q0 193 103.5 304t275.5 111q169 0 261.5 -104t92.5 -286q0 -185 -103.5 -298.5t-274.5 -113.5q-161 0 -258 106t-97 281zM264 1166q0 -122 51 -187t142 -65q194 0 194 261q0 253 -188 253q-95 0 -147 -68.5t-52 -193.5zM1515 1549l-998 -1556h-193l998 1556h193z M1027 364q0 191 104 304t275 113q169 0 261.5 -104.5t92.5 -288.5t-104 -297.5t-273 -113.5q-163 0 -259.5 108t-96.5 279zM1200 373q0 -121 51.5 -186t142.5 -65q194 0 194 261q0 121 -50.5 186.5t-138.5 65.5q-199 0 -199 -262z" unicode="%"/>
<glyph horiz-adv-x="1808" glyph-name="ampersand" d="M1216 198q-229 -223 -558 -223q-251 0 -398.5 121.5t-147.5 334.5q0 312 365 464q-182 141 -182 325q0 162 116 258.5t309 96.5q178 0 291 -91.5t113 -240.5q0 -239 -288 -357q221 -91 408 -374q172 233 172 550q0 79 -20 149h214q17 -59 17 -144q0 -379 -272 -720 q77 -97 133 -135.5t122 -38.5q69 0 158 35v-197q-93 -36 -194 -36q-100 0 -181 49t-177 174zM672 980q238 82 238 245q0 81 -55 129.5t-135 48.5q-93 0 -151 -52t-58 -135q0 -147 161 -236zM1109 359q-203 328 -476 431q-282 -116 -282 -350q0 -126 86.5 -200t227.5 -74 q259 0 444 193z" unicode="&amp;"/>
<glyph horiz-adv-x="557" glyph-name="quotesingle" d="M389 1549l-33 -481h-156l-32 481h221z" unicode="&apos;"/>
<glyph horiz-adv-x="719" glyph-name="parenleft" d="M497 -352q-339 383 -339 944q0 554 339 957h201q-334 -418 -334 -956q0 -535 334 -945h-201z" unicode="("/>
<glyph horiz-adv-x="719" glyph-name="parenright" d="M23 -352q335 408 335 945q0 536 -336 956h202q341 -404 341 -957q0 -560 -342 -944h-200z" unicode=")"/>
<glyph horiz-adv-x="952" glyph-name="asterisk" d="M874 1173l-296 -53l208 -251l-146 -101l-162 283l-162 -283l-147 101l208 251l-297 53l58 164l280 -110l-33 322h186l-33 -322l279 110z" unicode="*"/>
<glyph horiz-adv-x="1531" glyph-name="plus" d="M1281 555h-430v-428h-169v428h-429v171h429v429h169v-429h430v-171z" unicode="+"/>
<glyph horiz-adv-x="521" glyph-name="comma" d="M386 255l-168 -536h-176l121 536h223z" unicode=","/>
<glyph horiz-adv-x="889" glyph-name="hyphen" d="M745 520h-590v174h590v-174z" unicode="-"/>
<glyph horiz-adv-x="521" glyph-name="period" d="M112 116q0 61 44 101t105 40q60 0 104 -39.5t44 -101.5q0 -58 -42 -99.5t-108 -41.5q-61 0 -104 40.5t-43 100.5z" unicode="."/>
<glyph horiz-adv-x="904" glyph-name="slash" d="M923 1549l-747 -1806h-214l745 1806h216z" unicode="/"/>
<glyph glyph-name="zero" d="M87 745q0 408 139.5 619t404.5 211q505 0 505 -793q0 -388 -138 -598t-400 -210q-253 0 -382 198t-129 573zM326 754q0 -592 287 -592q283 0 283 604q0 620 -277 620q-293 0 -293 -632z" unicode="0"/>
<glyph glyph-name="one" d="M1100 0h-912v196h339v1119l-348 -94v206l583 153v-1384h338v-196z" unicode="1"/>
<glyph glyph-name="two" d="M1072 0h-963v196l449 442q150 147 221.5 254t71.5 233q0 257 -272 257q-204 0 -392 -171v226q189 138 434 138q213 0 339.5 -113.5t126.5 -310.5q0 -142 -80 -282.5t-279 -332.5l-344 -328v-5h688v-203z" unicode="2"/>
<glyph glyph-name="three" d="M148 283q159 -121 360 -121q149 0 238 72.5t89 196.5q0 273 -398 273h-132v189h124q355 0 355 255q0 238 -271 238q-160 0 -306 -108v210q153 87 362 87q200 0 327.5 -101.5t127.5 -273.5q0 -305 -310 -389v-4q164 -16 263 -117.5t99 -249.5q0 -216 -156.5 -341 t-407.5 -125q-227 0 -364 81v228z" unicode="3"/>
<glyph glyph-name="four" d="M1151 382h-194v-382h-223v382h-709v152l675 1015h257v-988h194v-179zM734 561v606q0 68 4 156h-4q-25 -62 -59 -120l-426 -642h485z" unicode="4"/>
<glyph glyph-name="five" d="M177 263q160 -101 328 -101q150 0 244 82t94 222q0 290 -372 290q-88 0 -247 -15v808h787v-202h-576v-403q87 5 131 5q238 0 377 -123t139 -342q0 -233 -154 -371.5t-411 -138.5q-220 0 -340 65v224z" unicode="5"/>
<glyph glyph-name="six" d="M1037 1322q-118 64 -254 64q-200 0 -315.5 -169.5t-114.5 -437.5h5q109 199 344 199q200 0 318 -132.5t118 -346.5q0 -226 -141.5 -375.5t-362.5 -149.5q-251 0 -385 189.5t-134 521.5q0 393 174 641.5t484 248.5q167 0 264 -44v-209zM364 508q0 -145 76 -245.5 t198 -100.5q121 0 192.5 91t71.5 225q0 151 -68 232.5t-198 81.5q-116 0 -194 -82t-78 -202z" unicode="6"/>
<glyph glyph-name="seven" d="M1123 1457l-591 -1457h-245l570 1347h-760v202h1026v-92z" unicode="7"/>
<glyph glyph-name="eight" d="M428 814q-275 123 -275 368q0 177 137 285t339 108q189 0 317.5 -101t128.5 -269q0 -256 -290 -390v-4q336 -120 336 -410q0 -204 -147 -315.5t-393 -111.5q-208 0 -344 112t-136 298q0 291 327 426v4zM844 1181q0 97 -61.5 153.5t-164.5 56.5q-98 0 -165.5 -60 t-67.5 -149q0 -182 228 -275q231 96 231 274zM600 709q-269 -107 -269 -313q0 -108 80 -173.5t204 -65.5q121 0 198.5 64t77.5 172q0 213 -291 316z" unicode="8"/>
<glyph glyph-name="nine" d="M181 238q129 -76 281 -76q203 0 312 154t109 432q-3 0 -5 1q-101 -182 -334 -182q-197 0 -322.5 137t-125.5 343q0 232 142.5 380t371.5 148q241 0 373.5 -186t132.5 -528q0 -416 -167 -651.5t-478 -235.5q-167 0 -290 54v210zM330 1073q0 -144 73.5 -229.5t203.5 -85.5 q113 0 188.5 78t75.5 191q0 149 -74.5 254t-200.5 105q-117 0 -191.5 -91t-74.5 -222z" unicode="9"/>
<glyph horiz-adv-x="521" glyph-name="colon" d="M112 985q0 61 44 101t105 40q60 0 104 -39.5t44 -101.5q0 -60 -43 -100.5t-107 -40.5q-61 0 -104 40.5t-43 100.5zM112 116q0 61 44 101t105 40q60 0 104 -39.5t44 -101.5q0 -58 -42 -99.5t-108 -41.5q-61 0 -104 40.5t-43 100.5z" unicode=":"/>
<glyph horiz-adv-x="521" glyph-name="semicolon" d="M117 985q0 61 44 101t105 40q62 0 105.5 -40.5t43.5 -100.5q0 -61 -44 -101t-107 -40q-61 0 -104 40.5t-43 100.5zM386 255l-168 -536h-176l121 536h223z" unicode=";"/>
<glyph horiz-adv-x="1531" glyph-name="less" d="M1245 113l-956 464v103l956 507v-195l-702 -357v-6l702 -322v-194z" unicode="&lt;"/>
<glyph horiz-adv-x="1531" glyph-name="equal" d="M1281 787h-1028v170h1028v-170zM1281 323h-1028v170h1028v-170z" unicode="="/>
<glyph horiz-adv-x="1531" glyph-name="greater" d="M1245 582l-956 -464v194l704 320v6l-704 358v195l956 -506v-103z" unicode="&gt;"/>
<glyph horiz-adv-x="983" glyph-name="question" d="M335 436q-24 73 -24 151q0 80 37.5 151.5t137.5 163.5q119 109 149 167t30 116q0 89 -62.5 141t-159.5 52q-185 0 -328 -143v237q168 103 358 103q192 0 308.5 -94.5t116.5 -264.5q0 -99 -45.5 -184.5t-166.5 -192.5q-116 -103 -143.5 -157t-27.5 -108q0 -67 33 -138 h-213zM305 118q0 58 43.5 99.5t104.5 41.5q58 0 102.5 -40t44.5 -101q0 -58 -42.5 -98.5t-99.5 -40.5q-67 0 -110 41.5t-43 97.5z" unicode="?"/>
<glyph horiz-adv-x="2111" glyph-name="at" d="M1453 1146q-50 -529 -50 -604q0 -198 112 -198q107 0 176.5 123t69.5 316q0 282 -179 460.5t-495 178.5q-315 0 -523.5 -220.5t-208.5 -549.5q0 -322 192 -514t524 -192q258 0 453 90v-159q-188 -80 -471 -80q-393 0 -637 233.5t-244 618.5q0 395 257 657.5t659 262.5 q374 0 615 -214t241 -562q0 -267 -134.5 -432t-327.5 -165q-236 0 -241 239h-6q-78 -239 -297 -239q-148 0 -239 108t-91 296q0 246 126 405t319 159q75 0 134.5 -36.5t77.5 -99.5h4l11 118h173zM794 599q0 -117 49.5 -186t135.5 -69q122 0 193.5 126t71.5 331 q0 215 -179 215q-121 0 -196 -122t-75 -295z" unicode="@"/>
<glyph horiz-adv-x="1472" glyph-name="A" d="M1450 0h-264l-145 403h-620l-138 -403h-264l584 1549h267zM974 602l-216 611q-12 33 -24 117h-7q-9 -69 -25 -115l-215 -613h487z" unicode="A"/>
<glyph horiz-adv-x="1320" glyph-name="B" d="M194 0v1549h484q219 0 345.5 -97t126.5 -261q0 -128 -77 -225t-203 -136v-4q158 -18 254.5 -119t96.5 -256q0 -202 -144.5 -326.5t-381.5 -124.5h-501zM434 1352v-453h174q137 0 213 66t76 181q0 206 -282 206h-181zM434 701v-504h226q147 0 228 68t81 189 q0 247 -333 247h-202z" unicode="B"/>
<glyph horiz-adv-x="1373" glyph-name="C" d="M1268 61q-172 -87 -433 -87q-336 0 -538.5 211.5t-202.5 558.5q0 362 224.5 596.5t578.5 234.5q223 0 371 -62v-243q-164 92 -363 92q-253 0 -406 -166.5t-153 -435.5q0 -257 143.5 -416t384.5 -159q224 0 394 103v-227z" unicode="C"/>
<glyph horiz-adv-x="1579" glyph-name="D" d="M194 0v1549h470q820 0 820 -755q0 -363 -233.5 -578.5t-598.5 -215.5h-458zM434 1343v-1137h211q274 0 430.5 153.5t156.5 429.5q0 271 -149 412.5t-432 141.5h-217z" unicode="D"/>
<glyph horiz-adv-x="1140" glyph-name="E" d="M1052 0h-858v1549h823v-206h-583v-456h541v-205h-541v-476h618v-206z" unicode="E"/>
<glyph horiz-adv-x="1105" glyph-name="F" d="M1018 1343h-584v-481h539v-205h-539v-657h-240v1549h824v-206z" unicode="F"/>
<glyph horiz-adv-x="1537" glyph-name="G" d="M1392 105q-232 -131 -535 -131q-347 0 -555 211t-208 568q0 361 230.5 591.5t593.5 230.5q250 0 428 -77v-246q-183 113 -443 113q-245 0 -401 -165t-156 -433q0 -276 143.5 -430.5t388.5 -154.5q162 0 273 60v388h-329v204h570v-729z" unicode="G"/>
<glyph horiz-adv-x="1614" glyph-name="H" d="M1419 0h-240v680h-745v-680h-240v1549h240v-658h745v658h240v-1549z" unicode="H"/>
<glyph horiz-adv-x="628" glyph-name="I" d="M433 1353v-1v-1155v-1v-196h-240v196v1v1155v1v196h240v-196z" unicode="I"/>
<glyph horiz-adv-x="858" glyph-name="J" d="M678 576q0 -287 -126 -444.5t-349 -157.5q-102 0 -176 31v231q69 -51 169 -51q242 0 242 395v969h240v-973z" unicode="J"/>
<glyph horiz-adv-x="1337" glyph-name="K" d="M1345 0h-319l-546 696q-30 38 -41 65h-5v-761h-240v1549h240v-730h5q14 28 42 65l525 665h292l-620 -742z" unicode="K"/>
<glyph horiz-adv-x="1072" glyph-name="L" d="M1039 0h-845v1549h240v-1343h605v-206z" unicode="L"/>
<glyph horiz-adv-x="2032" glyph-name="M" d="M1600 0v1000q0 131 14 311h-6q-30 -129 -47 -169l-471 -1142h-157l-473 1133q-18 43 -47 178h-6q10 -140 10 -338v-973h-223v1549h335l419 -1023q49 -120 65 -199h7q19 63 70 202l426 1020h322v-1549h-238z" unicode="M"/>
<glyph horiz-adv-x="1687" glyph-name="N" d="M1493 0h-268l-741 1142q-41 63 -60 109h-6q9 -60 9 -226v-1025h-233v1549h284l719 -1120q51 -80 68 -111h5q-11 72 -11 222v1009h234v-1549z" unicode="N"/>
<glyph horiz-adv-x="1671" glyph-name="O" d="M94 755q0 367 205.5 593.5t554.5 226.5q327 0 525 -220t198 -564q0 -365 -202 -591t-546 -226q-328 0 -531.5 218t-203.5 563zM346 772q0 -256 131 -421.5t354 -165.5q234 0 364 157.5t130 425.5q0 274 -125.5 434t-357.5 160q-226 0 -361 -166t-135 -424z" unicode="O"/>
<glyph horiz-adv-x="1281" glyph-name="P" d="M434 567v-567h-240v1549h468q263 0 403 -121.5t140 -352.5q0 -233 -167 -374.5t-413 -133.5h-191zM434 1348v-581h172q347 0 347 298q0 283 -333 283h-186z" unicode="P"/>
<glyph horiz-adv-x="1671" glyph-name="Q" d="M1057 8l408 -389h-328l-324 356q-344 8 -531.5 225t-187.5 556q0 367 197.5 592t564.5 225q336 0 528.5 -215.5t192.5 -566.5q0 -300 -126.5 -508t-393.5 -275zM844 1364q-236 0 -368 -163t-132 -429q0 -268 128.5 -428t357.5 -160q234 0 365.5 157t131.5 427 q0 280 -122.5 438t-360.5 158z" unicode="Q"/>
<glyph horiz-adv-x="1365" glyph-name="R" d="M1370 0h-281l-252 422q-74 124 -134.5 169t-138.5 45h-130v-636h-240v1549h493q241 0 372.5 -108.5t131.5 -307.5q0 -156 -91 -267t-254 -155v-4q104 -36 233 -244zM434 1351v-516h213q133 0 212.5 77t79.5 196q0 243 -288 243h-217z" unicode="R"/>
<glyph horiz-adv-x="1197" glyph-name="S" d="M122 321q178 -145 419 -145q308 0 308 211q0 61 -34 110t-91.5 85.5t-227.5 117.5q-209 100 -292 203t-83 242q0 200 158 315t404 115q233 0 352 -57v-246q-143 99 -357 99q-137 0 -221 -55t-84 -151q0 -87 61.5 -143t259.5 -150q231 -108 319 -216.5t88 -249.5 q0 -210 -152 -321t-421 -111q-99 0 -220 24t-186 64v259z" unicode="S"/>
<glyph horiz-adv-x="1207" glyph-name="T" d="M1170 1343h-445v-1343h-241v1343h-444v206h1130v-206z" unicode="T"/>
<glyph horiz-adv-x="1548" glyph-name="U" d="M1373 642q0 -668 -611 -668q-586 0 -586 646v929h240v-923q0 -441 364 -441q353 0 353 426v938h240v-907z" unicode="U"/>
<glyph horiz-adv-x="1409" glyph-name="V" d="M1393 1549l-559 -1549h-268l-550 1549h263l392 -1175q22 -65 31 -144h5q7 66 35 146l397 1173h254z" unicode="V"/>
<glyph horiz-adv-x="2121" glyph-name="W" d="M2096 1549l-427 -1549h-274l-297 1084q-21 77 -25 163h-4q-8 -91 -28 -162l-301 -1085h-278l-438 1549h264l290 -1133q19 -75 24 -164h7q4 66 32 166l321 1131h244l302 -1142q16 -62 26 -153h4q4 74 27 158l280 1137h251z" unicode="W"/>
<glyph horiz-adv-x="1356" glyph-name="X" d="M1332 0h-289l-325 562q-16 27 -34 86h-5q-8 -27 -36 -88l-332 -560h-291l510 777l-468 772h294l282 -517q31 -57 52 -116h4q8 20 57 121l300 512h272l-479 -768z" unicode="X"/>
<glyph horiz-adv-x="1264" glyph-name="Y" d="M1257 1549l-508 -984v-565h-241v560l-496 989h275l312 -657q0 -1 37 -106h3q12 52 39 104l324 659h255z" unicode="Y"/>
<glyph horiz-adv-x="1289" glyph-name="Z" d="M1240 1452l-861 -1246h848v-206h-1189v104l863 1239h-795v206h1134v-97z" unicode="Z"/>
<glyph horiz-adv-x="719" glyph-name="bracketleft" d="M658 -352h-436v1901h436v-160h-235v-1582h235v-159z" unicode="["/>
<glyph horiz-adv-x="883" glyph-name="backslash" d="M924 -258h-212l-730 1807h215z" unicode="\"/>
<glyph horiz-adv-x="719" glyph-name="bracketright" d="M500 -352h-436v159h234v1582h-234v160h436v-1901z" unicode="]"/>
<glyph horiz-adv-x="1531" glyph-name="asciicircum" d="M1296 669h-197l-341 655h-6l-319 -655h-195l459 906h107z" unicode="^"/>
<glyph horiz-adv-x="918" glyph-name="underscore" d="M918 -321h-918v129h918v-129z" unicode="_"/>
<glyph horiz-adv-x="628" glyph-name="grave" d="M556 1281h-175l-303 349h225z" unicode="`"/>
<glyph horiz-adv-x="1148" glyph-name="a" d="M193 1032q169 100 391 100q419 0 419 -433v-699h-228v168h-5q-113 -194 -336 -194q-163 0 -256.5 88t-93.5 237q0 312 371 364l321 44q0 247 -217 247q-199 0 -366 -129v207zM532 514q-120 -16 -169.5 -61t-49.5 -132q0 -73 53 -119.5t136 -46.5q118 0 196 83.5t78 210.5 v98z" unicode="a"/>
<glyph horiz-adv-x="1325" glyph-name="b" d="M401 149v-149h-235v1637h235v-715h5q128 210 374 210q210 0 330.5 -147.5t120.5 -399.5q0 -276 -136.5 -443.5t-365.5 -167.5q-214 0 -323 175h-5zM399 462q0 -126 80.5 -213t201.5 -87q147 0 228 112.5t81 311.5q0 167 -76.5 262.5t-208.5 95.5t-219 -95.5t-87 -246.5 v-140z" unicode="b"/>
<glyph horiz-adv-x="1036" glyph-name="c" d="M950 47q-122 -73 -313 -73q-242 0 -392 153t-150 400q0 277 161 441t429 164q165 0 267 -53v-220q-118 85 -255 85q-162 0 -262.5 -108.5t-100.5 -291.5q0 -179 95.5 -280.5t256.5 -101.5q140 0 264 90v-205z" unicode="c"/>
<glyph horiz-adv-x="1325" glyph-name="d" d="M1159 0h-234v175h-5q-120 -201 -366 -201q-210 0 -334.5 149.5t-124.5 403.5q0 275 140 440t365 165t320 -170h5v675h234v-1637zM927 648q0 126 -81.5 211t-201.5 85q-142 0 -226 -109t-84 -298q0 -174 79 -274.5t215 -100.5q132 0 215.5 99.5t83.5 251.5v135z" unicode="d"/>
<glyph horiz-adv-x="1171" glyph-name="e" d="M1092 490h-760q15 -335 341 -335q184 0 335 110v-194q-148 -97 -389 -97q-246 0 -385 150t-139 420q0 256 149.5 422t374.5 166q224 0 348.5 -141.5t124.5 -389.5v-111zM864 661q-1 142 -65 218t-182 76q-107 0 -186 -80.5t-98 -213.5h531z" unicode="e"/>
<glyph horiz-adv-x="747" glyph-name="f" d="M775 1445q-59 28 -121 28q-178 0 -178 -215v-152h256v-186h-256v-920h-234v920h-188v186h188v164q0 181 109 286.5t279 105.5q88 0 145 -20v-197z" unicode="f"/>
<glyph horiz-adv-x="1325" glyph-name="g" d="M1160 102q0 -622 -622 -622q-211 0 -358 72v216q182 -102 353 -102q392 0 392 401v110h-4q-122 -203 -367 -203q-208 0 -333.5 148.5t-125.5 396.5q0 280 137.5 446.5t366.5 166.5q217 0 322 -171h4v145h235v-1004zM927 648q0 123 -81 209.5t-200 86.5 q-145 0 -228.5 -109.5t-83.5 -303.5q0 -168 80 -268.5t211 -100.5q133 0 217.5 99t84.5 250v137z" unicode="g"/>
<glyph horiz-adv-x="1280" glyph-name="h" d="M1135 0h-235v634q0 310 -229 310q-116 0 -193 -89t-77 -227v-628h-235v1637h235v-708h5q126 203 355 203q374 0 374 -452v-680z" unicode="h"/>
<glyph horiz-adv-x="564" glyph-name="i" d="M141 1486q0 59 40.5 97.5t102.5 38.5q61 0 103 -38.5t42 -97.5t-42 -97.5t-103 -38.5t-102 39t-41 97zM164 0v1106h235v-1106h-235z" unicode="i"/>
<glyph horiz-adv-x="569" glyph-name="j" d="M144 1486q0 59 40.5 97.5t102.5 38.5q61 0 103 -38.5t42 -97.5t-42 -97.5t-103 -38.5t-102 39t-41 97zM402 37q0 -267 -113.5 -412t-324.5 -145q-78 0 -153 34v201q76 -45 143 -45q213 0 213 339v1097h235v-1069z" unicode="j"/>
<glyph horiz-adv-x="1147" glyph-name="k" d="M1151 0h-305l-440 537h-5v-537h-235v1637h235v-1039h5l417 508h292l-472 -529z" unicode="k"/>
<glyph horiz-adv-x="564" glyph-name="l" d="M164 0v1637h235v-1637h-235z" unicode="l"/>
<glyph horiz-adv-x="1947" glyph-name="m" d="M1802 0h-235v634q0 164 -53 237t-169 73q-100 0 -172 -92t-72 -225v-627h-234v650q0 294 -225 294q-104 0 -172.5 -89t-68.5 -230v-625h-235v1106h235v-174h5q119 200 348 200q233 0 315 -221q124 221 370 221q363 0 363 -449v-683z" unicode="m"/>
<glyph horiz-adv-x="1282" glyph-name="n" d="M1137 0h-234v625q0 319 -232 319q-117 0 -193.5 -88.5t-76.5 -224.5v-631h-235v1106h235v-181h5q123 207 360 207q371 0 371 -456v-676z" unicode="n"/>
<glyph horiz-adv-x="1316" glyph-name="o" d="M95 543q0 273 155.5 431t423.5 158q253 0 400 -153t147 -418q0 -267 -155 -427t-414 -160q-254 0 -405.5 155t-151.5 414zM334 548q0 -182 88.5 -284t240.5 -102q319 0 319 393q0 190 -82 289.5t-237 99.5t-242 -106t-87 -290z" unicode="o"/>
<glyph horiz-adv-x="1325" glyph-name="p" d="M401 149v-658h-235v1615h235v-184h5q128 210 372 210q211 0 332 -147.5t121 -399.5q0 -277 -137 -444t-367 -167q-210 0 -321 175h-5zM399 466q0 -129 80 -216.5t202 -87.5q147 0 228 112.5t81 311.5q0 171 -75 264.5t-210 93.5t-220.5 -98t-85.5 -248v-132z" unicode="p"/>
<glyph horiz-adv-x="1325" glyph-name="q" d="M1159 -509h-234v686h-5q-115 -203 -364 -203q-210 0 -335.5 147.5t-125.5 405.5q0 277 139 441t367 164q219 0 319 -171h5v145h234v-1615zM927 644q0 124 -79 212t-204 88q-145 0 -227.5 -109.5t-82.5 -301.5q0 -174 80 -272.5t208 -98.5q140 0 222.5 98.5t82.5 248.5 v135z" unicode="q"/>
<glyph horiz-adv-x="808" glyph-name="r" d="M794 882q-52 34 -138 34q-114 0 -184.5 -100t-70.5 -265v-551h-235v1106h235v-220h5q82 239 290 239q62 0 98 -14v-229z" unicode="r"/>
<glyph horiz-adv-x="967" glyph-name="s" d="M114 257q155 -105 322 -105q220 0 220 136q0 57 -46 93.5t-207 96.5q-169 65 -228 138.5t-59 184.5q0 153 128 242t317 89q145 0 271 -48v-208q-126 78 -282 78q-89 0 -144 -37t-55 -97q0 -59 40.5 -93t186.5 -90q180 -66 245.5 -140.5t65.5 -185.5q0 -157 -128 -247 t-336 -90q-178 0 -311 62v221z" unicode="s"/>
<glyph horiz-adv-x="789" glyph-name="t" d="M734 12q-65 -37 -187 -37q-315 0 -315 342v603h-187v186h187v259l234 71v-330h268v-186h-268v-562q0 -103 36.5 -149t117.5 -46q63 0 114 36v-187z" unicode="t"/>
<glyph horiz-adv-x="1282" glyph-name="u" d="M1116 0h-234v173h-5q-115 -199 -340 -199q-391 0 -391 469v663h234v-634q0 -310 238 -310q116 0 190 85t74 223v636h234v-1106z" unicode="u"/>
<glyph horiz-adv-x="1108" glyph-name="v" d="M1101 1106l-431 -1106h-249l-410 1106h255l249 -761q32 -98 39 -169h5q9 82 36 164l259 766h247z" unicode="v"/>
<glyph horiz-adv-x="1656" glyph-name="w" d="M1632 1106l-326 -1106h-245l-206 741q-14 49 -17 116h-5q-3 -44 -22 -113l-222 -744h-240l-327 1106h243l202 -793q12 -49 16 -108h7q4 56 20 111l233 790h219l208 -795q7 -27 16 -108h8q3 50 18 108l197 795h223z" unicode="w"/>
<glyph horiz-adv-x="1087" glyph-name="x" d="M1066 1106l-369 -552l364 -554h-273l-196 338q-28 48 -48 90h-5q-9 -26 -47 -89l-201 -339h-270l376 545l-358 561h273l194 -354q18 -33 46 -92h4q30 61 46 87l207 359h257z" unicode="x"/>
<glyph horiz-adv-x="1112" glyph-name="y" d="M1107 1106l-487 -1252q-145 -374 -420 -374q-90 0 -146 19v198q58 -26 120 -26q132 0 195 147l77 184l-438 1104h261l266 -789q9 -25 26 -106h5q5 32 27 104l277 791h237z" unicode="y"/>
<glyph horiz-adv-x="1021" glyph-name="z" d="M971 0h-938v85l619 835h-560v186h881v-92l-609 -828h607v-186z" unicode="z"/>
<glyph horiz-adv-x="719" glyph-name="braceleft" d="M645 -352q-193 1 -283 86.5t-90 269.5v301q0 212 -167 218v151q167 7 167 224v290q0 184 89 271.5t284 89.5v-161q-172 -3 -172 -204v-287q0 -238 -163 -295v-5q163 -55 163 -295v-281q0 -116 39.5 -165t132.5 -49v-159z" unicode="{"/>
<glyph horiz-adv-x="596" glyph-name="bar" d="M399 -520h-199v2211h199v-2211z" unicode="|"/>
<glyph horiz-adv-x="719" glyph-name="braceright" d="M616 523q-167 -6 -167 -219v-298q0 -188 -91 -272.5t-280 -85.5v159q92 2 132.5 49.5t40.5 164.5v283q0 238 162 292v5q-162 57 -162 299v284q0 201 -173 204v161q189 -1 280 -87.5t91 -272.5v-292q0 -215 167 -223v-151z" unicode="}"/>
<glyph horiz-adv-x="1531" glyph-name="asciitilde" d="M1313 818q-9 -172 -93.5 -263.5t-221.5 -91.5q-117 0 -284 110q-110 71 -171 71q-144 0 -150 -184h-172q5 164 89.5 259.5t226.5 95.5q117 0 255 -90q143 -93 207 -93q62 0 101 50.5t41 135.5h172z" unicode="~"/>
<glyph horiz-adv-x="607" glyph-name="uni00A0" unicode=" "/>
<glyph horiz-adv-x="663" glyph-name="exclamdown" d="M183 991q0 59 43 99.5t105 40.5q59 0 103 -41t44 -99q0 -59 -42.5 -99t-99.5 -40q-68 0 -110.5 40t-42.5 99zM456 -439h-245l27 1097h191z" unicode="¡"/>
<glyph glyph-name="cent" d="M1048 225q-99 -60 -224 -69v-204h-149v203q-221 22 -351 173.5t-130 375.5q0 232 127.5 395.5t353.5 200.5v229h149v-221q128 -4 224 -52v-224q-101 71 -224 81v-768q126 15 224 86v-206zM675 1101q-251 -72 -251 -377q0 -303 251 -369v746z" unicode="¢"/>
<glyph glyph-name="sterling" d="M1127 0h-999v181q227 68 227 321v175h-204v181h204v249q0 207 124 337.5t321 130.5q130 0 238 -48v-206q-109 65 -227 65q-231 0 -231 -302v-226h310v-181h-310v-142q0 -240 -192 -345h739v-190z" unicode="£"/>
<glyph horiz-adv-x="1230" glyph-name="currency" d="M1140 384l-118 -122l-150 150q-114 -78 -256 -78q-144 0 -258 78l-151 -150l-118 122l151 146q-78 120 -78 253q0 136 78 253l-151 149l118 122l151 -150q116 79 258 79q139 0 254 -79l152 150l118 -122l-150 -149q80 -120 80 -253q0 -130 -80 -253zM332 785 q0 -115 83.5 -199t200.5 -84q115 0 200 83.5t85 199.5q0 114 -86 198.5t-199 84.5q-116 0 -200 -82t-84 -201z" unicode="¤"/>
<glyph glyph-name="yen" d="M1169 1549l-384 -703h295v-169h-350v-203h350v-170h-350v-304h-231v304h-361v170h361v203h-361v169h302l-378 703h257l255 -544l47 -110h4q7 26 48 116l254 538h242z" unicode="¥"/>
<glyph horiz-adv-x="596" glyph-name="brokenbar" d="M399 760h-199v931h199v-931zM399 -520h-199v936h199v-936z" unicode="¦"/>
<glyph horiz-adv-x="1020" glyph-name="section" d="M746 456q95 -80 95 -196q0 -148 -111.5 -239.5t-287.5 -91.5q-155 0 -277 65v205q160 -92 293 -92q83 0 127 37t44 98q0 51 -43.5 90t-192.5 117q-252 135 -252 342q0 169 151 259q-108 92 -108 238q0 143 106 232.5t276 89.5q143 0 251 -51v-205q-124 80 -254 80 q-165 0 -165 -137q0 -67 42.5 -104t214.5 -118q252 -118 252 -323q0 -182 -161 -296zM443 962q-96 -51 -96 -153q0 -77 63.5 -132.5t201.5 -115.5q87 65 87 168q0 77 -60.5 128t-195.5 105z" unicode="§"/>
<glyph horiz-adv-x="953" glyph-name="dieresis" d="M565 1424q0 54 35.5 87.5t90.5 33.5q54 0 91 -34.5t37 -86.5t-37 -86.5t-90 -34.5q-55 0 -91 35.5t-36 85.5zM120 1424q0 53 37.5 87t89.5 34q55 0 92 -35t37 -86q0 -53 -37.5 -87t-89.5 -34q-54 0 -91.5 35.5t-37.5 85.5z" vert-adv-y="322" unicode="¨"/>
<glyph horiz-adv-x="1956" glyph-name="copyright" d="M163 773q0 339 237.5 573.5t580.5 234.5q341 0 577 -233t236 -574q0 -337 -237 -572t-579 -235q-345 0 -580 232t-235 574zM275 774q0 -296 206 -499t498 -203t497.5 204t205.5 497q0 297 -205.5 500.5t-497.5 203.5q-294 0 -499 -204t-205 -499zM1306 298 q-127 -74 -292 -74q-225 0 -376 149.5t-151 375.5q0 259 154.5 415.5t405.5 156.5q141 0 256 -58v-195q-104 80 -271 80q-151 0 -252 -103t-101 -279q0 -168 102 -271t260 -103q156 0 265 84v-178z" unicode="©"/>
<glyph horiz-adv-x="881" glyph-name="ordfeminine" d="M591 774v103h-4q-89 -124 -245 -124q-114 0 -185.5 65t-71.5 167q0 221 273 257l233 31q0 161 -158 161q-141 0 -272 -89v156q124 70 296 70q305 0 305 -305v-492h-171zM418 1129q-161 -22 -161 -130q0 -114 138 -114q79 0 137.5 59t58.5 136v73z" unicode="ª"/>
<glyph horiz-adv-x="1177" glyph-name="guillemotleft" d="M1094 216h-220l-333 363l333 371h222l-343 -371zM637 216h-218l-335 363l335 371h218l-340 -371z" unicode="«"/>
<glyph horiz-adv-x="1531" glyph-name="logicalnot" d="M1281 279h-170v449h-858v170h1028v-619z" unicode="¬"/>
<glyph horiz-adv-x="885" glyph-name="uni00AD" d="M745 520h-590v174h590v-174z" unicode="­"/>
<glyph horiz-adv-x="1956" glyph-name="registered" d="M163 773q0 339 237.5 573.5t580.5 234.5q341 0 577 -233t236 -574q0 -337 -237 -572t-579 -235q-345 0 -580 232t-235 574zM275 774q0 -296 206 -499t498 -203t497.5 204t205.5 497q0 297 -205.5 500.5t-497.5 203.5q-294 0 -499 -204t-205 -499zM1383 274h-210l-102 248 q-69 167 -161 167h-90v-415h-172v1018h309q188 0 286 -73.5t98 -208.5q0 -218 -251 -274v-5q90 -19 163 -178zM820 1146v-316h143q190 0 190 160q0 83 -51.5 119.5t-163.5 36.5h-118z" unicode="®"/>
<glyph horiz-adv-x="757" glyph-name="macron" d="M918 1508h-918v129h918v-129z" unicode="¯"/>
<glyph horiz-adv-x="836" glyph-name="degree" d="M422 1575q124 0 213 -88.5t89 -211.5t-89.5 -212.5t-212.5 -89.5q-125 0 -213.5 89t-88.5 213q0 123 89 211.5t213 88.5zM422 1115q66 0 112.5 47.5t46.5 112.5q0 66 -46.5 112.5t-112.5 46.5t-112.5 -46.5t-46.5 -112.5q0 -65 46.5 -112.5t112.5 -47.5z" unicode="°"/>
<glyph horiz-adv-x="1531" glyph-name="plusminus" d="M1281 720h-430v-430h-168v430h-429v170h429v431h168v-431h430v-170zM1280 0h-1027v170h1027v-170z" unicode="±"/>
<glyph horiz-adv-x="840" glyph-name="uni00B2" d="M735 631h-618v139l263 254q101 98 128 148t27 111q0 57 -37.5 93t-98.5 36q-120 0 -231 -111v186q102 83 259 83q131 0 211 -72t80 -194q0 -90 -54 -176t-172 -196l-154 -144v-5h397v-152z" unicode="²"/>
<glyph horiz-adv-x="840" glyph-name="uni00B3" d="M140 834q112 -79 236 -79q177 0 177 136q0 137 -218 137h-104v146h100q194 0 194 130q0 118 -146 118q-108 0 -205 -73v164q98 57 239 57q127 0 205 -64t78 -170q0 -161 -156 -218v-4q189 -45 189 -217q0 -126 -96.5 -207.5t-256.5 -81.5q-146 0 -236 57v169z" unicode="³"/>
<glyph horiz-adv-x="641" glyph-name="acute" d="M593 1630l-302 -349h-176l255 349h223z" unicode="´"/>
<glyph horiz-adv-x="1305" glyph-name="mu" d="M932 0q-26 78 -26 176h-4q-81 -201 -278 -201q-153 0 -219 111h-5v-514h-234v1534h234v-662q0 -129 65 -201t174 -72q122 0 191.5 86t69.5 233v616h237v-801q0 -220 37 -305h-242z" unicode="µ"/>
<glyph horiz-adv-x="1053" glyph-name="paragraph" d="M943 1415h-135v-1415h-140v1415h-155v-1415h-143v950q-119 0 -198 88.5t-79 213.5q0 127 84.5 212t207.5 85h558v-134z" unicode="¶"/>
<glyph horiz-adv-x="522" glyph-name="periodcentered" d="M259 545q-30 0 -56.5 10.5t-47 29.5t-32 45t-11.5 56q0 31 12 57t32.5 44.5t47.5 29t57 10.5t57 -10.5t47.5 -29t32 -44.5t11.5 -57t-12 -57t-32 -44.5t-47.5 -29t-58.5 -10.5z" unicode="·"/>
<glyph horiz-adv-x="461" glyph-name="cedilla" d="M55 -472v115q38 -7 77 -7q145 0 145 92q0 79 -132 79q-12 0 -44 -4v197h142v-104q204 -6 204 -169q0 -206 -302 -206q-44 0 -90 7z" unicode="¸"/>
<glyph horiz-adv-x="810" glyph-name="uni00B9" d="M721 631h-566v143h196v598l-208 -54v156l381 97v-797h197v-143z" unicode="¹"/>
<glyph horiz-adv-x="973" glyph-name="ordmasculine" d="M81 1156q0 193 113.5 303.5t300.5 110.5q179 0 286 -107.5t107 -290.5q0 -194 -110.5 -307t-297.5 -113q-184 0 -291.5 108t-107.5 296zM263 1160q0 -263 223 -263q105 0 163 70t58 195q0 127 -58 196t-161 69q-107 0 -166 -69.5t-59 -197.5z" unicode="º"/>
<glyph horiz-adv-x="1177" glyph-name="guillemotright" d="M1096 581l-336 -365h-217l338 365l-337 369h216zM639 581l-334 -365h-222l343 365l-342 369h221z" unicode="»"/>
<glyph horiz-adv-x="2030" glyph-name="onequarter" d="M1547 1549l-939 -1549h-194l940 1549h193zM1896 209h-119v-209h-174v209h-425v118l391 591h208v-573h119v-136zM1602 764q-18 -41 -42 -80l-216 -339h259v326q0 26 5 93h-6zM704 631h-566v143h196v598l-208 -54v156l381 97v-797h197v-143z" unicode="¼"/>
<glyph horiz-adv-x="2030" glyph-name="onehalf" d="M1547 1549l-939 -1549h-194l940 1549h193zM701 631h-566v143h196v598l-208 -54v156l381 97v-797h197v-143zM1923 0h-618v139l263 254q101 98 128 148t27 111q0 57 -37.5 93t-98.5 36q-120 0 -231 -111v186q102 83 259 83q131 0 211 -72t80 -194q0 -90 -54 -176t-172 -196 l-154 -144v-5h397v-152z" unicode="½"/>
<glyph horiz-adv-x="2093" glyph-name="threequarters" d="M140 834q112 -79 236 -79q177 0 177 136q0 137 -218 137h-104v146h100q194 0 194 130q0 118 -146 118q-108 0 -205 -73v164q98 57 239 57q127 0 205 -64t78 -170q0 -161 -156 -218v-4q189 -45 189 -217q0 -126 -96.5 -207.5t-256.5 -81.5q-146 0 -236 57v169zM1618 1549 l-939 -1549h-194l940 1549h193zM1959 209h-119v-209h-174v209h-425v118l391 591h208v-573h119v-136zM1665 764q-18 -41 -42 -80l-216 -339h259v326q0 26 5 93h-6z" unicode="¾"/>
<glyph horiz-adv-x="983" glyph-name="questiondown" d="M713 991q0 -59 -44 -99.5t-104 -40.5q-62 0 -104.5 42t-42.5 98q0 59 42.5 99.5t104.5 40.5q60 0 104 -41t44 -99zM683 673q24 -63 24 -151q0 -154 -163 -303q-117 -110 -154 -167.5t-37 -127.5q0 -87 62 -139.5t160 -52.5q183 0 327 142v-237q-166 -102 -357 -102 q-192 0 -308.5 94.5t-116.5 263.5q0 108 50 192t189 211q87 79 115.5 131t28.5 109q0 64 -32 137h212z" unicode="¿"/>
<glyph horiz-adv-x="1472" glyph-name="Agrave" d="M1450 0h-264l-145 403h-620l-138 -403h-264l584 1549h267zM974 602l-216 611q-12 33 -24 117h-7q-9 -69 -25 -115l-215 -613h487zM938 1657h-175l-303 349h225z" unicode="À"/>
<glyph horiz-adv-x="1472" glyph-name="Aacute" d="M1450 0h-264l-145 403h-620l-138 -403h-264l584 1549h267zM974 602l-216 611q-12 33 -24 117h-7q-9 -69 -25 -115l-215 -613h487zM995 2006l-302 -349h-176l255 349h223z" unicode="Á"/>
<glyph horiz-adv-x="1472" glyph-name="Acircumflex" d="M1450 0h-264l-145 403h-620l-138 -403h-264l584 1549h267zM974 602l-216 611q-12 33 -24 117h-7q-9 -69 -25 -115l-215 -613h487zM1064 1656h-163l-171 226l-171 -226h-163l240 350h187z" unicode="Â"/>
<glyph horiz-adv-x="1472" glyph-name="Atilde" d="M1450 0h-264l-145 403h-620l-138 -403h-264l584 1549h267zM974 602l-216 611q-12 33 -24 117h-7q-9 -69 -25 -115l-215 -613h487zM1091 1963q0 -127 -55 -202.5t-148 -75.5q-82 0 -177 53q-85 47 -130 47q-92 0 -92 -120h-119q0 129 54 202.5t153 73.5q77 0 168 -55 q82 -47 135 -47q88 0 88 124h123z" unicode="Ã"/>
<glyph horiz-adv-x="1472" glyph-name="Adieresis" d="M1450 0h-264l-145 403h-620l-138 -403h-264l584 1549h267zM974 602l-216 611q-12 33 -24 117h-7q-9 -69 -25 -115l-215 -613h487zM827 1799q0 54 35.5 87.5t90.5 33.5q54 0 91 -34.5t37 -86.5t-37 -86.5t-90 -34.5q-55 0 -91 35.5t-36 85.5zM382 1799q0 53 37.5 87 t89.5 34q55 0 92 -35t37 -86q0 -53 -37.5 -87t-89.5 -34q-54 0 -91.5 35.5t-37.5 85.5z" unicode="Ä"/>
<glyph horiz-adv-x="1472" glyph-name="Aring" d="M1450 0h-264l-145 403h-620l-138 -403h-264l565 1499q-91 57 -91 167q0 101 70.5 164t174.5 63t170 -62t66 -159q0 -108 -87 -168zM613 1671q0 -117 119 -117q51 0 85.5 34t34.5 83q0 51 -34.5 83.5t-85.5 32.5q-54 0 -86.5 -33t-32.5 -83zM972 609l-215 604 q-12 34 -23 114h-7q-11 -74 -25 -112l-213 -606h483z" unicode="Å"/>
<glyph horiz-adv-x="1961" glyph-name="AE" d="M1869 0h-857v403h-536l-191 -403h-279l766 1549h1062v-206h-583v-456h542v-205h-542v-476h618v-206zM1012 602v741h-96l-350 -741h446z" unicode="Æ"/>
<glyph horiz-adv-x="1373" glyph-name="Ccedilla" d="M1268 61q-175 -85 -413 -87v-78q203 -6 203 -169q0 -206 -307 -206q-43 0 -85 7v115q36 -7 76 -7q146 0 146 92q0 79 -133 79q-12 0 -42 -4v179q-286 33 -452.5 243.5t-166.5 518.5q0 362 224.5 596.5t578.5 234.5q223 0 371 -62v-243q-164 92 -363 92 q-249 0 -404 -164.5t-155 -437.5q0 -260 145 -417.5t383 -157.5q224 0 394 103v-227z" unicode="Ç"/>
<glyph horiz-adv-x="1140" glyph-name="Egrave" d="M1052 0h-858v1549h823v-206h-583v-456h541v-205h-541v-476h618v-206zM796 1657h-175l-303 349h225z" unicode="È"/>
<glyph horiz-adv-x="1140" glyph-name="Eacute" d="M1052 0h-858v1549h823v-206h-583v-456h541v-205h-541v-476h618v-206zM894 2005l-302 -349h-176l255 349h223z" unicode="É"/>
<glyph horiz-adv-x="1140" glyph-name="Ecircumflex" d="M1052 0h-858v1549h823v-206h-583v-456h541v-205h-541v-476h618v-206zM929 1658h-163l-171 226l-171 -226h-163l240 350h187z" unicode="Ê"/>
<glyph horiz-adv-x="1140" glyph-name="Edieresis" d="M1052 0h-858v1549h823v-206h-583v-456h541v-205h-541v-476h618v-206zM708 1800q0 54 35.5 87.5t90.5 33.5q54 0 91 -34.5t37 -86.5t-37 -86.5t-90 -34.5q-55 0 -91 35.5t-36 85.5zM263 1800q0 53 37.5 87t89.5 34q55 0 92 -35t37 -86q0 -53 -37.5 -87t-89.5 -34 q-54 0 -91.5 35.5t-37.5 85.5z" unicode="Ë"/>
<glyph horiz-adv-x="628" glyph-name="Igrave" d="M433 1353v-1v-1155v-1v-196h-240v196v1v1155v1v196h240v-196zM497 1654h-175l-303 349h225z" unicode="Ì"/>
<glyph horiz-adv-x="628" glyph-name="Iacute" d="M433 1353v-1v-1155v-1v-196h-240v196v1v1155v1v196h240v-196zM610 2003l-302 -349h-176l255 349h223z" unicode="Í"/>
<glyph horiz-adv-x="628" glyph-name="Icircumflex" d="M433 1353v-1v-1155v-1v-196h-240v196v1v1155v1v196h240v-196zM649 1654h-163l-171 226l-171 -226h-163l240 350h187z" unicode="Î"/>
<glyph horiz-adv-x="628" glyph-name="Idieresis" d="M433 1353v-1v-1155v-1v-196h-240v196v1v1155v1v196h240v-196zM411 1797q0 54 35.5 87.5t90.5 33.5q54 0 91 -34.5t37 -86.5t-37 -86.5t-90 -34.5q-55 0 -91 35.5t-36 85.5zM-34 1797q0 53 37.5 87t89.5 34q55 0 92 -35t37 -86q0 -53 -37.5 -87t-89.5 -34 q-54 0 -91.5 35.5t-37.5 85.5z" unicode="Ï"/>
<glyph horiz-adv-x="1579" glyph-name="Eth" d="M194 0v671h-175v210h175v668h470q821 0 821 -755q0 -358 -227 -576t-605 -218h-459zM434 1343v-462h338v-210h-338v-465h211q275 0 431.5 154t156.5 429q0 554 -582 554h-217z" unicode="Ð"/>
<glyph horiz-adv-x="1687" glyph-name="Ntilde" d="M1493 0h-268l-741 1142q-41 63 -60 109h-6q9 -60 9 -226v-1025h-233v1549h284l719 -1120q51 -80 68 -111h5q-11 72 -11 222v1009h234v-1549zM1221 1963q0 -127 -55 -202.5t-148 -75.5q-82 0 -177 53q-85 47 -130 47q-92 0 -92 -120h-119q0 129 54 202.5t153 73.5 q77 0 168 -55q82 -47 135 -47q88 0 88 124h123z" unicode="Ñ"/>
<glyph horiz-adv-x="1671" glyph-name="Ograve" d="M94 755q0 367 205.5 593.5t554.5 226.5q327 0 525 -220t198 -564q0 -365 -202 -591t-546 -226q-328 0 -531.5 218t-203.5 563zM346 772q0 -256 131 -421.5t354 -165.5q234 0 364 157.5t130 425.5q0 274 -125.5 434t-357.5 160q-226 0 -361 -166t-135 -424zM1021 1654 h-175l-303 349h225z" unicode="Ò"/>
<glyph horiz-adv-x="1671" glyph-name="Oacute" d="M94 755q0 367 205.5 593.5t554.5 226.5q327 0 525 -220t198 -564q0 -365 -202 -591t-546 -226q-328 0 -531.5 218t-203.5 563zM346 772q0 -256 131 -421.5t354 -165.5q234 0 364 157.5t130 425.5q0 274 -125.5 434t-357.5 160q-226 0 -361 -166t-135 -424zM1118 2003 l-302 -349h-176l255 349h223z" unicode="Ó"/>
<glyph horiz-adv-x="1671" glyph-name="Ocircumflex" d="M94 755q0 367 205.5 593.5t554.5 226.5q327 0 525 -220t198 -564q0 -365 -202 -591t-546 -226q-328 0 -531.5 218t-203.5 563zM346 772q0 -256 131 -421.5t354 -165.5q234 0 364 157.5t130 425.5q0 274 -125.5 434t-357.5 160q-226 0 -361 -166t-135 -424zM1169 1654 h-163l-171 226l-171 -226h-163l240 350h187z" unicode="Ô"/>
<glyph horiz-adv-x="1671" glyph-name="Otilde" d="M94 755q0 367 205.5 593.5t554.5 226.5q327 0 525 -220t198 -564q0 -365 -202 -591t-546 -226q-328 0 -531.5 218t-203.5 563zM346 772q0 -256 131 -421.5t354 -165.5q234 0 364 157.5t130 425.5q0 274 -125.5 434t-357.5 160q-226 0 -361 -166t-135 -424zM1195 1963 q0 -127 -55 -202.5t-148 -75.5q-82 0 -177 53q-85 47 -130 47q-92 0 -92 -120h-119q0 129 54 202.5t153 73.5q77 0 168 -55q82 -47 135 -47q88 0 88 124h123z" unicode="Õ"/>
<glyph horiz-adv-x="1671" glyph-name="Odieresis" d="M94 755q0 367 205.5 593.5t554.5 226.5q327 0 525 -220t198 -564q0 -365 -202 -591t-546 -226q-328 0 -531.5 218t-203.5 563zM346 772q0 -256 131 -421.5t354 -165.5q234 0 364 157.5t130 425.5q0 274 -125.5 434t-357.5 160q-226 0 -361 -166t-135 -424zM934 1798 q0 54 35.5 87.5t90.5 33.5q54 0 91 -34.5t37 -86.5t-37 -86.5t-90 -34.5q-55 0 -91 35.5t-36 85.5zM489 1798q0 53 37.5 87t89.5 34q55 0 92 -35t37 -86q0 -53 -37.5 -87t-89.5 -34q-54 0 -91.5 35.5t-37.5 85.5z" unicode="Ö"/>
<glyph horiz-adv-x="1531" glyph-name="multiply" d="M1253 275l-121 -121l-366 368l-366 -368l-121 122l368 364l-368 367l120 121l367 -368l368 368l119 -123l-367 -365z" unicode="×"/>
<glyph horiz-adv-x="1671" glyph-name="Oslash" d="M198 -59l-102 85l167 201q-169 211 -169 528q0 371 208 595.5t552 224.5q251 0 434 -136l144 170l102 -83l-149 -176q192 -214 192 -559q0 -370 -204.5 -593.5t-543.5 -223.5q-276 0 -470 159zM1149 1272q-124 100 -307 100q-225 0 -364.5 -167t-139.5 -435 q0 -213 86 -357zM505 306q130 -131 326 -131q230 0 366.5 158t136.5 434q0 246 -102 402z" unicode="Ø"/>
<glyph horiz-adv-x="1548" glyph-name="Ugrave" d="M1373 642q0 -668 -611 -668q-586 0 -586 646v929h240v-923q0 -441 364 -441q353 0 353 426v938h240v-907zM944 1657h-175l-303 349h225z" unicode="Ù"/>
<glyph horiz-adv-x="1548" glyph-name="Uacute" d="M1373 642q0 -668 -611 -668q-586 0 -586 646v929h240v-923q0 -441 364 -441q353 0 353 426v938h240v-907zM1071 2005l-302 -349h-176l255 349h223z" unicode="Ú"/>
<glyph horiz-adv-x="1548" glyph-name="Ucircumflex" d="M1373 642q0 -668 -611 -668q-586 0 -586 646v929h240v-923q0 -441 364 -441q353 0 353 426v938h240v-907zM1108 1658h-163l-171 226l-171 -226h-163l240 350h187z" unicode="Û"/>
<glyph horiz-adv-x="1548" glyph-name="Udieresis" d="M1373 642q0 -668 -611 -668q-586 0 -586 646v929h240v-923q0 -441 364 -441q353 0 353 426v938h240v-907zM873 1801q0 54 35.5 87.5t90.5 33.5q54 0 91 -34.5t37 -86.5t-37 -86.5t-90 -34.5q-55 0 -91 35.5t-36 85.5zM428 1801q0 53 37.5 87t89.5 34q55 0 92 -35t37 -86 q0 -53 -37.5 -87t-89.5 -34q-54 0 -91.5 35.5t-37.5 85.5z" unicode="Ü"/>
<glyph horiz-adv-x="1264" glyph-name="Yacute" d="M1257 1549l-508 -984v-565h-241v560l-496 989h275l312 -657q0 -1 37 -106h3q12 52 39 104l324 659h255zM919 2003l-302 -349h-176l255 349h223z" unicode="Ý"/>
<glyph horiz-adv-x="1281" glyph-name="Thorn" d="M434 329v-329h-240v1549h240v-238h228q264 0 403.5 -122t139.5 -352q0 -226 -159 -367t-424 -141h-188zM434 1111v-582h172q347 0 347 297q0 285 -333 285h-186z" unicode="Þ"/>
<glyph horiz-adv-x="1268" glyph-name="germandbls" d="M530 216q83 -54 185 -54q108 0 174.5 73t66.5 192q0 145 -101.5 237.5t-292.5 109.5v175q127 17 202.5 100.5t75.5 195.5q0 108 -55 168t-152 60q-232 0 -232 -310v-1163h-235v1178q0 221 131.5 352.5t350.5 131.5q196 0 314.5 -108.5t118.5 -282.5q0 -130 -78.5 -237 t-208.5 -150v-5q403 -78 403 -450q0 -195 -129 -325t-333 -130q-112 0 -205 30v212z" unicode="ß"/>
<glyph horiz-adv-x="1148" glyph-name="agrave" d="M193 1032q169 100 391 100q419 0 419 -433v-699h-228v168h-5q-113 -194 -336 -194q-163 0 -256.5 88t-93.5 237q0 312 371 364l321 44q0 247 -217 247q-199 0 -366 -129v207zM532 514q-120 -16 -169.5 -61t-49.5 -132q0 -73 53 -119.5t136 -46.5q118 0 196 83.5t78 210.5 v98zM768 1281h-175l-303 349h225z" unicode="à"/>
<glyph horiz-adv-x="1148" glyph-name="aacute" d="M193 1032q169 100 391 100q419 0 419 -433v-699h-228v168h-5q-113 -194 -336 -194q-163 0 -256.5 88t-93.5 237q0 312 371 364l321 44q0 247 -217 247q-199 0 -366 -129v207zM532 514q-120 -16 -169.5 -61t-49.5 -132q0 -73 53 -119.5t136 -46.5q118 0 196 83.5t78 210.5 v98zM852 1630l-302 -349h-176l255 349h223z" unicode="á"/>
<glyph horiz-adv-x="1148" glyph-name="acircumflex" d="M193 1032q169 100 391 100q419 0 419 -433v-699h-228v168h-5q-113 -194 -336 -194q-163 0 -256.5 88t-93.5 237q0 312 371 364l321 44q0 247 -217 247q-199 0 -366 -129v207zM532 514q-120 -16 -169.5 -61t-49.5 -132q0 -73 53 -119.5t136 -46.5q118 0 196 83.5t78 210.5 v98zM906 1281h-163l-171 226l-171 -226h-163l240 350h187z" unicode="â"/>
<glyph horiz-adv-x="1148" glyph-name="atilde" d="M193 1032q169 100 391 100q419 0 419 -433v-699h-228v168h-5q-113 -194 -336 -194q-163 0 -256.5 88t-93.5 237q0 312 371 364l321 44q0 247 -217 247q-199 0 -366 -129v207zM532 514q-120 -16 -169.5 -61t-49.5 -132q0 -73 53 -119.5t136 -46.5q118 0 196 83.5t78 210.5 v98zM929 1590q0 -127 -55 -202.5t-148 -75.5q-82 0 -177 53q-85 47 -130 47q-92 0 -92 -120h-119q0 129 54 202.5t153 73.5q77 0 168 -55q82 -47 135 -47q88 0 88 124h123z" unicode="ã"/>
<glyph horiz-adv-x="1148" glyph-name="adieresis" d="M193 1032q169 100 391 100q419 0 419 -433v-699h-228v168h-5q-113 -194 -336 -194q-163 0 -256.5 88t-93.5 237q0 312 371 364l321 44q0 247 -217 247q-199 0 -366 -129v207zM532 514q-120 -16 -169.5 -61t-49.5 -132q0 -73 53 -119.5t136 -46.5q118 0 196 83.5t78 210.5 v98zM664 1424q0 54 35.5 87.5t90.5 33.5q54 0 91 -34.5t37 -86.5t-37 -86.5t-90 -34.5q-55 0 -91 35.5t-36 85.5zM219 1424q0 53 37.5 87t89.5 34q55 0 92 -35t37 -86q0 -53 -37.5 -87t-89.5 -34q-54 0 -91.5 35.5t-37.5 85.5z" unicode="ä"/>
<glyph horiz-adv-x="1148" glyph-name="aring" d="M193 1032q169 100 391 100q419 0 419 -433v-699h-228v168h-5q-113 -194 -336 -194q-163 0 -256.5 88t-93.5 237q0 312 371 364l321 44q0 247 -217 247q-199 0 -366 -129v207zM532 514q-120 -16 -169.5 -61t-49.5 -132q0 -73 53 -119.5t136 -46.5q118 0 196 83.5t78 210.5 v98zM338 1488q0 97 67.5 160t171.5 63q102 0 167.5 -61t65.5 -155t-68.5 -157.5t-170.5 -63.5q-99 0 -166 60t-67 154zM454 1493q0 -114 117 -114q49 0 84 31.5t35 82.5t-33 83t-86 32t-85 -33t-32 -82z" unicode="å"/>
<glyph horiz-adv-x="1838" glyph-name="ae" d="M1758 490h-761q15 -335 339 -335q184 0 338 110v-193q-150 -98 -394 -98q-292 0 -419 228h-5q-153 -228 -408 -228q-167 0 -265.5 86.5t-98.5 239.5q0 326 410 354l281 19q0 281 -220 281q-189 0 -362 -126v204q175 100 384 100q251 0 333 -191h4q131 191 374 191 q220 0 345 -141t125 -393v-108zM1530 661q-6 294 -245 294q-109 0 -189 -82t-97 -212h531zM775 506l-201 -14q-144 -10 -204 -52t-60 -127q0 -70 52.5 -114t138.5 -44q116 0 195 83.5t79 205.5v62z" unicode="æ"/>
<glyph horiz-adv-x="1036" glyph-name="ccedilla" d="M950 47q-120 -72 -292 -73v-78q202 -6 202 -169q0 -206 -300 -206q-47 0 -92 7v115q41 -7 77 -7q145 0 145 92q0 79 -132 79q-11 0 -43 -4v183q-192 35 -306 184.5t-114 356.5q0 276 162.5 440.5t427.5 164.5q165 0 267 -53v-220q-118 85 -255 85q-164 0 -263.5 -111 t-99.5 -289q0 -177 95.5 -279.5t256.5 -102.5q140 0 264 90v-205z" unicode="ç"/>
<glyph horiz-adv-x="1171" glyph-name="egrave" d="M1092 490h-760q15 -335 341 -335q184 0 335 110v-194q-148 -97 -389 -97q-246 0 -385 150t-139 420q0 256 149.5 422t374.5 166q224 0 348.5 -141.5t124.5 -389.5v-111zM864 661q-1 142 -65 218t-182 76q-107 0 -186 -80.5t-98 -213.5h531zM823 1281h-175l-303 349h225z " unicode="è"/>
<glyph horiz-adv-x="1171" glyph-name="eacute" d="M1092 490h-760q15 -335 341 -335q184 0 335 110v-194q-148 -97 -389 -97q-246 0 -385 150t-139 420q0 256 149.5 422t374.5 166q224 0 348.5 -141.5t124.5 -389.5v-111zM864 661q-1 142 -65 218t-182 76q-107 0 -186 -80.5t-98 -213.5h531zM888 1630l-302 -349h-176 l255 349h223z" unicode="é"/>
<glyph horiz-adv-x="1171" glyph-name="ecircumflex" d="M1092 490h-760q15 -335 341 -335q184 0 335 110v-194q-148 -97 -389 -97q-246 0 -385 150t-139 420q0 256 149.5 422t374.5 166q224 0 348.5 -141.5t124.5 -389.5v-111zM864 661q-1 142 -65 218t-182 76q-107 0 -186 -80.5t-98 -213.5h531zM946 1281h-163l-171 226 l-171 -226h-163l240 350h187z" unicode="ê"/>
<glyph horiz-adv-x="1171" glyph-name="edieresis" d="M1092 490h-760q15 -335 341 -335q184 0 335 110v-194q-148 -97 -389 -97q-246 0 -385 150t-139 420q0 256 149.5 422t374.5 166q224 0 348.5 -141.5t124.5 -389.5v-111zM864 661q-1 142 -65 218t-182 76q-107 0 -186 -80.5t-98 -213.5h531zM705 1424q0 54 35.5 87.5 t90.5 33.5q54 0 91 -34.5t37 -86.5t-37 -86.5t-90 -34.5q-55 0 -91 35.5t-36 85.5zM260 1424q0 53 37.5 87t89.5 34q55 0 92 -35t37 -86q0 -53 -37.5 -87t-89.5 -34q-54 0 -91.5 35.5t-37.5 85.5z" unicode="ë"/>
<glyph horiz-adv-x="564" glyph-name="igrave" d="M164 0v1106h235v-1106h-235zM474 1281h-175l-303 349h225z" unicode="ì"/>
<glyph horiz-adv-x="564" glyph-name="iacute" d="M164 0v1106h235v-1106h-235zM568 1630l-302 -349h-176l255 349h223z" unicode="í"/>
<glyph horiz-adv-x="564" glyph-name="icircumflex" d="M164 0v1106h235v-1106h-235zM617 1281h-163l-171 226l-171 -226h-163l240 350h187z" unicode="î"/>
<glyph horiz-adv-x="564" glyph-name="idieresis" d="M164 0v1106h235v-1106h-235zM378 1424q0 54 35.5 87.5t90.5 33.5q54 0 91 -34.5t37 -86.5t-37 -86.5t-90 -34.5q-55 0 -91 35.5t-36 85.5zM-67 1424q0 53 37.5 87t89.5 34q55 0 92 -35t37 -86q0 -53 -37.5 -87t-89.5 -34q-54 0 -91.5 35.5t-37.5 85.5z" unicode="ï"/>
<glyph horiz-adv-x="1264" glyph-name="eth" d="M842 1047q-97 172 -213 276l-320 -159l-67 122l282 135q-142 122 -288 216h289q48 -32 169 -132l306 152l69 -119l-267 -130q366 -325 366 -826q0 -268 -150 -437.5t-393 -169.5q-247 0 -388.5 153t-141.5 417q0 261 144 422t374 161q130 0 224 -84zM334 549 q0 -178 80 -282.5t222 -104.5q132 0 212 106t80 287q0 389 -288 389q-142 0 -224 -106.5t-82 -288.5z" unicode="ð"/>
<glyph horiz-adv-x="1282" glyph-name="ntilde" d="M1137 0h-234v625q0 319 -232 319q-117 0 -193.5 -88.5t-76.5 -224.5v-631h-235v1106h235v-181h5q123 207 360 207q371 0 371 -456v-676zM1009 1590q0 -127 -55 -202.5t-148 -75.5q-82 0 -177 53q-85 47 -130 47q-92 0 -92 -120h-119q0 129 54 202.5t153 73.5 q77 0 168 -55q82 -47 135 -47q88 0 88 124h123z" unicode="ñ"/>
<glyph horiz-adv-x="1316" glyph-name="ograve" d="M95 543q0 273 155.5 431t423.5 158q253 0 400 -153t147 -418q0 -267 -155 -427t-414 -160q-254 0 -405.5 155t-151.5 414zM334 548q0 -182 88.5 -284t240.5 -102q319 0 319 393q0 190 -82 289.5t-237 99.5t-242 -106t-87 -290zM850 1281h-175l-303 349h225z" unicode="ò"/>
<glyph horiz-adv-x="1316" glyph-name="oacute" d="M95 543q0 273 155.5 431t423.5 158q253 0 400 -153t147 -418q0 -267 -155 -427t-414 -160q-254 0 -405.5 155t-151.5 414zM334 548q0 -182 88.5 -284t240.5 -102q319 0 319 393q0 190 -82 289.5t-237 99.5t-242 -106t-87 -290zM941 1630l-302 -349h-176l255 349h223z" unicode="ó"/>
<glyph horiz-adv-x="1316" glyph-name="ocircumflex" d="M95 543q0 273 155.5 431t423.5 158q253 0 400 -153t147 -418q0 -267 -155 -427t-414 -160q-254 0 -405.5 155t-151.5 414zM334 548q0 -182 88.5 -284t240.5 -102q319 0 319 393q0 190 -82 289.5t-237 99.5t-242 -106t-87 -290zM993 1281h-163l-171 226l-171 -226h-163 l240 350h187z" unicode="ô"/>
<glyph horiz-adv-x="1316" glyph-name="otilde" d="M95 543q0 273 155.5 431t423.5 158q253 0 400 -153t147 -418q0 -267 -155 -427t-414 -160q-254 0 -405.5 155t-151.5 414zM334 548q0 -182 88.5 -284t240.5 -102q319 0 319 393q0 190 -82 289.5t-237 99.5t-242 -106t-87 -290zM1023 1590q0 -127 -55 -202.5t-148 -75.5 q-82 0 -177 53q-85 47 -130 47q-92 0 -92 -120h-119q0 129 54 202.5t153 73.5q77 0 168 -55q82 -47 135 -47q88 0 88 124h123z" unicode="õ"/>
<glyph horiz-adv-x="1316" glyph-name="odieresis" d="M95 543q0 273 155.5 431t423.5 158q253 0 400 -153t147 -418q0 -267 -155 -427t-414 -160q-254 0 -405.5 155t-151.5 414zM334 548q0 -182 88.5 -284t240.5 -102q319 0 319 393q0 190 -82 289.5t-237 99.5t-242 -106t-87 -290zM752 1424q0 54 35.5 87.5t90.5 33.5 q54 0 91 -34.5t37 -86.5t-37 -86.5t-90 -34.5q-55 0 -91 35.5t-36 85.5zM307 1424q0 53 37.5 87t89.5 34q55 0 92 -35t37 -86q0 -53 -37.5 -87t-89.5 -34q-54 0 -91.5 35.5t-37.5 85.5z" unicode="ö"/>
<glyph horiz-adv-x="1531" glyph-name="divide" d="M646 1055q0 54 35.5 92.5t91.5 38.5q124 0 124 -129q0 -54 -36.5 -91t-87.5 -37q-52 0 -89.5 36.5t-37.5 89.5zM1281 555h-1028v171h1028v-171zM641 220q0 56 37 94.5t90 38.5q123 0 123 -131q0 -54 -35.5 -90t-87.5 -36t-89.5 35.5t-37.5 88.5z" unicode="÷"/>
<glyph horiz-adv-x="1316" glyph-name="oslash" d="M1280 1118l-170 -182q111 -151 111 -371q0 -272 -153 -431.5t-415 -159.5q-209 0 -348 104l-153 -165l-103 95l157 170q-111 149 -111 366q0 273 156.5 431t425.5 158q197 0 333 -100l166 179zM869 886q-79 67 -205 67q-161 0 -249 -106t-88 -298q0 -119 42 -202z M447 225q83 -70 215 -70q330 0 330 401q0 119 -41 211z" unicode="ø"/>
<glyph horiz-adv-x="1282" glyph-name="ugrave" d="M1116 0h-234v173h-5q-115 -199 -340 -199q-391 0 -391 469v663h234v-634q0 -310 238 -310q116 0 190 85t74 223v636h234v-1106zM809 1281h-175l-303 349h225z" unicode="ù"/>
<glyph horiz-adv-x="1282" glyph-name="uacute" d="M1116 0h-234v173h-5q-115 -199 -340 -199q-391 0 -391 469v663h234v-634q0 -310 238 -310q116 0 190 85t74 223v636h234v-1106zM934 1630l-302 -349h-176l255 349h223z" unicode="ú"/>
<glyph horiz-adv-x="1282" glyph-name="ucircumflex" d="M1116 0h-234v173h-5q-115 -199 -340 -199q-391 0 -391 469v663h234v-634q0 -310 238 -310q116 0 190 85t74 223v636h234v-1106zM965 1281h-163l-171 226l-171 -226h-163l240 350h187z" unicode="û"/>
<glyph horiz-adv-x="1282" glyph-name="udieresis" d="M1116 0h-234v173h-5q-115 -199 -340 -199q-391 0 -391 469v663h234v-634q0 -310 238 -310q116 0 190 85t74 223v636h234v-1106zM731 1424q0 54 35.5 87.5t90.5 33.5q54 0 91 -34.5t37 -86.5t-37 -86.5t-90 -34.5q-55 0 -91 35.5t-36 85.5zM286 1424q0 53 37.5 87t89.5 34 q55 0 92 -35t37 -86q0 -53 -37.5 -87t-89.5 -34q-54 0 -91.5 35.5t-37.5 85.5z" unicode="ü"/>
<glyph horiz-adv-x="1112" glyph-name="yacute" d="M1107 1106l-487 -1252q-145 -374 -420 -374q-90 0 -146 19v198q58 -26 120 -26q132 0 195 147l77 184l-438 1104h261l266 -789q9 -25 26 -106h5q5 32 27 104l277 791h237zM851 1630l-302 -349h-176l255 349h223z" unicode="ý"/>
<glyph horiz-adv-x="1325" glyph-name="thorn" d="M401 149v-658h-235v2146h235v-715h5q128 210 372 210q211 0 332 -147.5t121 -399.5q0 -277 -137 -444t-367 -167q-210 0 -321 175h-5zM399 466q0 -129 80 -216.5t202 -87.5q147 0 228 112.5t81 311.5q0 171 -75 264.5t-210 93.5t-220.5 -98t-85.5 -248v-132z" unicode="þ"/>
<glyph horiz-adv-x="564" glyph-name="dotlessi" d="M164 0v1106h235v-1106h-235z" unicode="ı"/>
<glyph horiz-adv-x="830" glyph-name="circumflex" d="M749 1281h-163l-171 226l-171 -226h-163l240 350h187z" unicode="ˆ"/>
<glyph horiz-adv-x="612" glyph-name="ring" d="M70 1488q0 97 67.5 160t171.5 63q102 0 167.5 -61t65.5 -155t-68.5 -157.5t-170.5 -63.5q-99 0 -166 60t-67 154zM186 1493q0 -114 117 -114q49 0 84 31.5t35 82.5t-33 83t-86 32t-85 -33t-32 -82z" unicode="˚"/>
<glyph horiz-adv-x="781" glyph-name="tilde" d="M751 1590q0 -127 -55 -202.5t-148 -75.5q-82 0 -177 53q-85 47 -130 47q-92 0 -92 -120h-119q0 129 54 202.5t153 73.5q77 0 168 -55q82 -47 135 -47q88 0 88 124h123z" unicode="˜"/>
<glyph horiz-adv-x="2030" glyph-name="fraction" d="M1547 1549l-939 -1549h-194l940 1549h193z" unicode="⁄"/>
<glyph horiz-adv-x="840" glyph-name="uni2074" d="M789 840h-119v-209h-174v209h-425v118l391 591h208v-573h119v-136zM495 1395q-18 -41 -42 -80l-216 -339h259v326q0 26 5 93h-6z" unicode="⁴"/>
<glyph horiz-adv-x="522" glyph-name="glyph312" d="M259 545q-30 0 -56.5 10.5t-47 29.5t-32 45t-11.5 56q0 31 12 57t32.5 44.5t47.5 29t57 10.5t57 -10.5t47.5 -29t32 -44.5t11.5 -57t-12 -57t-32 -44.5t-47.5 -29t-58.5 -10.5z"/>
</font>
</defs>
</svg>
