<?xml version="1.0" encoding="UTF-8" standalone="no"?>
<!DOCTYPE svg  PUBLIC '-//W3C//DTD SVG 1.1//EN'  'http://www.w3.org/Graphics/SVG/1.1/DTD/svg11.dtd'>
<svg xmlns="http://www.w3.org/2000/svg" version="1.1">
<defs>
<font id="MicrosoftJhengHeiRegular" horiz-adv-x="1187" vert-adv-y="2048">
<font-face panose-1="2 11 6 4 3 5 4 4 2 4" x-height="1106" bbox="-345 -521 2028 2007" underline-thickness="119" descent="-225" underline-position="-473" units-per-em="2048" unicode-range="U+0020-2074" font-family="Microsoft JhengHei" ascent="1823" cap-height="1549" font-weight="400"/>
<missing-glyph/>
<glyph unicode=" " glyph-name="space" horiz-adv-x="512"/>
<glyph unicode="!" glyph-name="exclam" horiz-adv-x="623" d="M396 1549l-19 -1116h-137l-19 1116h175zM196 95q0 49 34.5 83t80.5 34q45 0 80 -34t35 -83q0 -46 -33 -80t-77 -34q-53 0 -86.5 34t-33.5 80z"/>
<glyph unicode='&quot;' glyph-name="quotedbl" horiz-adv-x="852" d="M341 1549l-33 -483h-118l-32 483h183zM694 1549l-32 -483h-117l-33 483h182z"/>
<glyph unicode="#" glyph-name="numbersign" horiz-adv-x="1307" d="M1258 1112l-24 -109h-286l-69 -328h309l-28 -109h-302l-96 -432h-131l94 432h-271l-92 -432h-130l92 432h-288l19 109h292l66 328h-304l22 109h304l92 438h130l-91 -438h273l94 438h127l-91 -438h289zM820 1003h-275l-72 -328h277z"/>
<glyph unicode="$" glyph-name="dollar" d="M661 -226h-109v226q-230 0 -372 92v181q61 -55 172 -93t200 -36v564q-244 118 -309 212.5t-65 224.5q0 148 105 266.5t269 139.5v194h109v-190q212 -6 290 -59v-177q-105 86 -290 92v-581q201 -101 293.5 -195.5t92.5 -236.5q0 -154 -104 -258t-282 -131v-235zM552 1405 q-96 -21 -148 -85.5t-52 -151.5t34.5 -144t165.5 -134v515zM661 153q212 47 212 229q0 153 -212 270v-499z"/>
<glyph unicode="%" glyph-name="percent" horiz-adv-x="1803" d="M85 1160q0 190 100.5 301t270.5 111q164 0 255.5 -103.5t91.5 -286.5q0 -182 -101.5 -295.5t-267.5 -113.5q-160 0 -254.5 106.5t-94.5 280.5zM224 1170q0 -133 59.5 -207.5t161.5 -74.5q104 0 162 76.5t58 212.5q0 134 -57.5 208t-158.5 74q-103 0 -164 -79t-61 -210z M1465 1549l-992 -1561h-148l992 1561h148zM1006 363q0 189 100 302.5t269 113.5q163 0 255 -105t92 -291q0 -183 -102.5 -295t-265.5 -112q-157 0 -252.5 106t-95.5 281zM1143 372q0 -130 60.5 -205t160.5 -75q104 0 162 77.5t58 212.5t-57 207t-158 72q-106 0 -166 -77.5 t-60 -211.5z"/>
<glyph unicode="&amp;" glyph-name="ampersand" horiz-adv-x="1763" d="M1209 218q-228 -243 -556 -243q-242 0 -381.5 119t-139.5 325q0 321 358 476q-178 133 -178 325q0 160 109 257.5t288 97.5q167 0 271.5 -90.5t104.5 -237.5q0 -243 -298 -362q224 -83 435 -405q176 252 176 582q0 73 -19 149h165q13 -58 13 -144q0 -362 -250 -722 q91 -128 148 -170t132 -42q44 0 131 30v-159q-79 -29 -159 -29q-100 0 -172.5 47.5t-177.5 195.5zM651 957q140 49 208 113.5t68 161.5q0 96 -63 151.5t-155 55.5q-111 0 -174.5 -59.5t-63.5 -158.5q0 -165 180 -264zM1128 344q-143 224 -248 316.5t-260 150.5 q-172 -67 -245.5 -159t-73.5 -227q0 -142 98 -222.5t253 -80.5q284 0 476 222z"/>
<glyph unicode="&apos;" glyph-name="quotesingle" horiz-adv-x="500" d="M341 1549l-33 -483h-118l-32 483h183z"/>
<glyph unicode="(" glyph-name="parenleft" horiz-adv-x="657" d="M484 -352q-334 382 -334 943q0 564 334 958h152q-340 -411 -340 -956q0 -542 338 -945h-150z"/>
<glyph unicode=")" glyph-name="parenright" horiz-adv-x="657" d="M27 -352q337 401 337 945q0 547 -340 956h153q336 -394 336 -958q0 -560 -336 -943h-150z"/>
<glyph unicode="*" glyph-name="asterisk" horiz-adv-x="916" d="M836 1196l-296 -62l206 -265l-114 -79l-171 288l-171 -288l-114 79l205 265l-299 62l48 129l283 -106l-23 330h142l-24 -330l285 106z"/>
<glyph unicode="+" glyph-name="plus" horiz-adv-x="1510" d="M1263 575h-438v-436h-138v436h-436v140h436v436h138v-436h438v-140z"/>
<glyph unicode="," glyph-name="comma" horiz-adv-x="472" d="M333 244l-174 -530h-117l127 530h164z"/>
<glyph unicode="-" glyph-name="hyphen" horiz-adv-x="884" d="M745 551h-589v133h589v-133z"/>
<glyph unicode="." glyph-name="period" horiz-adv-x="472" d="M120 93q0 49 35 83.5t81 34.5q48 0 82 -34.5t34 -83.5q0 -48 -34.5 -82.5t-81.5 -34.5q-46 0 -81 33.5t-35 83.5z"/>
<glyph unicode="/" glyph-name="slash" horiz-adv-x="854" d="M870 1549l-743 -1806h-155l740 1806h158z"/>
<glyph unicode="0" glyph-name="zero" d="M94 743q0 410 133.5 621t385.5 211q483 0 483 -794q0 -386 -132.5 -596.5t-385.5 -210.5q-236 0 -360 202t-124 567zM264 752q0 -636 332 -636q329 0 329 645q0 671 -321 671q-340 0 -340 -680z"/>
<glyph unicode="1" glyph-name="one" d="M1060 0h-870v149h352v1218l-361 -109v161l528 165v-1435h351v-149z"/>
<glyph unicode="2" glyph-name="two" d="M1030 0h-927v151l451 454q224 226 275.5 327.5t51.5 215.5q0 137 -77.5 211t-222.5 74q-207 0 -398 -179v178q179 143 420 143q200 0 320.5 -111t120.5 -301q0 -146 -79.5 -287.5t-300.5 -362.5l-361 -357v-4h727v-152z"/>
<glyph unicode="3" glyph-name="three" d="M140 242q159 -126 358 -126q160 0 260.5 81t100.5 223q0 310 -437 310h-128v143h122q388 0 388 290q0 269 -296 269q-164 0 -308 -113v167q148 89 350 89q184 0 304.5 -101t120.5 -268q0 -304 -311 -394v-4q165 -14 265.5 -116t100.5 -254q0 -212 -152.5 -338 t-389.5 -126q-218 0 -348 83v185z"/>
<glyph unicode="4" glyph-name="four" d="M1111 416h-200v-416h-166v416h-732v110l692 1023h206v-995h200v-138zM745 554v682q0 71 4 161h-4q-8 -22 -59 -119l-487 -724h546z"/>
<glyph unicode="5" glyph-name="five" d="M177 219q158 -103 322 -103t267 94.5t103 250.5q0 157 -103 243t-297 86q-61 0 -243 -12v771h742v-152h-583v-464q87 5 132 5q244 0 382.5 -122.5t138.5 -344.5q0 -231 -150 -364t-394 -133q-214 0 -317 64v181z"/>
<glyph unicode="6" glyph-name="six" d="M1004 1371q-122 61 -253 61q-213 0 -336 -186.5t-122 -500.5h5q107 222 355 222q203 0 324 -132t121 -347q0 -221 -136 -367.5t-347 -146.5q-242 0 -368.5 189t-126.5 517q0 393 165 644t463 251q162 0 256 -45v-159zM305 507q0 -164 87.5 -277.5t228.5 -113.5 q137 0 221 100t84 251q0 169 -82 263t-225 94q-131 0 -222.5 -92t-91.5 -225z"/>
<glyph unicode="7" glyph-name="seven" d="M1085 1500l-618 -1500h-172l582 1397h-785v152h993v-49z"/>
<glyph unicode="8" glyph-name="eight" d="M446 816q-280 132 -280 378q0 170 130 275.5t322 105.5q172 0 291 -98.5t119 -258.5q0 -258 -288 -402v-4q339 -128 339 -420q0 -198 -141 -308t-377 -110q-193 0 -322.5 111.5t-129.5 291.5q0 298 337 435v4zM855 1196q0 110 -69.5 172.5t-184.5 62.5q-106 0 -184 -65.5 t-78 -165.5q0 -206 255 -311q261 110 261 307zM582 731q-301 -120 -301 -346q0 -125 90 -196.5t229 -71.5q134 0 221 71.5t87 189.5q0 236 -326 353z"/>
<glyph unicode="9" glyph-name="nine" d="M187 189q131 -73 273 -73q211 0 330 172.5t119 490.5q-2 -2 -4 0q-100 -202 -348 -202q-200 0 -327 137t-127 345q0 221 135.5 368.5t358.5 147.5q233 0 357 -182.5t124 -524.5q0 -422 -162.5 -658t-462.5 -236q-155 0 -266 52v163zM274 1084q0 -162 85 -259.5t234 -97.5 q132 0 218.5 87.5t86.5 211.5q0 173 -86.5 289.5t-230.5 116.5q-135 0 -221 -101.5t-86 -246.5z"/>
<glyph unicode=":" glyph-name="colon" horiz-adv-x="472" d="M120 1013q0 49 35 83.5t81 34.5q48 0 82 -34.5t34 -83.5t-34.5 -83t-81.5 -34q-46 0 -81 33.5t-35 83.5zM120 93q0 49 35 83.5t81 34.5q48 0 82 -34.5t34 -83.5q0 -48 -34.5 -82.5t-81.5 -34.5q-46 0 -81 33.5t-35 83.5z"/>
<glyph unicode=";" glyph-name="semicolon" horiz-adv-x="472" d="M123 1013q0 49 34 83.5t82 34.5q46 0 81 -34.5t35 -83.5q0 -50 -35 -83.5t-81 -33.5q-47 0 -81.5 34t-34.5 83zM333 244l-174 -530h-117l127 530h164z"/>
<glyph unicode="&lt;" glyph-name="less" horiz-adv-x="1510" d="M1219 141l-924 468v56l924 523v-156l-693 -389v-5l693 -342v-155z"/>
<glyph unicode="=" glyph-name="equal" horiz-adv-x="1510" d="M1263 807h-1012v137h1012v-137zM1263 347h-1012v138h1012v-138z"/>
<glyph unicode="&gt;" glyph-name="greater" horiz-adv-x="1510" d="M1219 608l-924 -467v154l693 341v7l-693 389v155l924 -523v-56z"/>
<glyph unicode="?" glyph-name="question" horiz-adv-x="992" d="M367 429q-25 75 -25 164q0 78 39 145.5t149 177.5q108 105 147 168.5t39 132.5q0 101 -72.5 159t-182.5 58q-183 0 -315 -144v181q167 104 340 104q175 0 284 -91t109 -247q0 -95 -43.5 -173.5t-155.5 -187.5q-111 -107 -147 -164t-36 -120q0 -74 37 -163h-167zM345 95 q0 46 34.5 81.5t80.5 35.5q45 0 80 -34t35 -83q0 -43 -32.5 -78.5t-77.5 -35.5q-54 0 -87 35t-33 79z"/>
<glyph unicode="@" glyph-name="at" horiz-adv-x="2112" d="M1429 1151q-51 -604 -51 -607q0 -227 132 -227q122 0 199 128.5t77 326.5q0 300 -190 490t-524 190q-320 0 -531 -224t-211 -565q0 -335 200 -540t540 -205q266 0 456 88v-129q-188 -80 -466 -80q-392 0 -631.5 237t-239.5 621q0 398 251.5 656.5t640.5 258.5 q364 0 606 -218t242 -571q0 -255 -126 -419.5t-306 -164.5q-235 0 -237 260h-5q-80 -260 -312 -260q-149 0 -239 109t-90 293q0 244 125.5 405.5t328.5 161.5q71 0 135.5 -38.5t82.5 -101.5h4q1 2 11 125h128zM760 597q0 -126 53.5 -202t153.5 -76q138 0 216.5 136t78.5 357 q0 234 -198 234q-134 0 -219 -127t-85 -322z"/>
<glyph unicode="A" glyph-name="A" horiz-adv-x="1419" d="M1393 0h-189l-168 440h-664l-157 -440h-190l596 1549h173zM978 596l-248 669q-10 28 -23 102h-5q-11 -68 -25 -102l-245 -669h546z"/>
<glyph unicode="B" glyph-name="B" horiz-adv-x="1258" d="M205 0v1549h433q193 0 311 -97t118 -257q0 -130 -69.5 -228t-196.5 -141v-4q155 -15 249.5 -116t94.5 -262q0 -197 -141.5 -320.5t-357.5 -123.5h-441zM375 1391v-509h188q154 0 240 73.5t86 205.5q0 230 -300 230h-214zM375 725v-567h251q160 0 250.5 76.5t90.5 211.5 q0 279 -382 279h-210z"/>
<glyph unicode="C" glyph-name="C" horiz-adv-x="1368" d="M1255 66q-171 -92 -427 -92q-326 0 -525.5 215t-199.5 556q0 358 219 594t569 236q220 0 364 -64v-184q-167 92 -368 92q-276 0 -440.5 -186t-164.5 -478q0 -277 154 -452t413 -175q234 0 406 104v-166z"/>
<glyph unicode="D" glyph-name="D" horiz-adv-x="1546" d="M205 0v1549h420q817 0 817 -755q0 -362 -220 -578t-613 -216h-404zM375 1393v-1237h236q309 0 481 166t172 467q0 604 -643 604h-246z"/>
<glyph unicode="E" glyph-name="E" horiz-adv-x="1115" d="M1019 0h-814v1549h779v-156h-609v-527h563v-156h-563v-554h644v-156z"/>
<glyph unicode="F" glyph-name="F" horiz-adv-x="1075" d="M984 1393h-609v-546h564v-156h-564v-691h-170v1549h779v-156z"/>
<glyph unicode="G" glyph-name="G" horiz-adv-x="1513" d="M1355 106q-232 -132 -516 -132q-329 0 -532.5 215.5t-203.5 564.5q0 358 226.5 589.5t573.5 231.5q256 0 423 -83v-193q-186 119 -444 119q-263 0 -431.5 -180.5t-168.5 -470.5q0 -296 155 -467t426 -171q187 0 321 75v443h-341v156h512v-697z"/>
<glyph unicode="H" glyph-name="H" horiz-adv-x="1562" d="M1357 0h-170v711h-812v-711h-170v1549h170v-684h812v684h170v-1549z"/>
<glyph unicode="I" glyph-name="I" horiz-adv-x="582" d="M375 0h-170v1549h170v-1549z"/>
<glyph unicode="J" glyph-name="J" horiz-adv-x="776" d="M586 551q0 -295 -113 -436t-306 -141q-86 0 -144 25v169q58 -40 148 -40q245 0 245 423v998h170v-998z"/>
<glyph unicode="K" glyph-name="K" horiz-adv-x="1273" d="M1269 0h-241l-607 710q-31 37 -41 52h-5v-762h-170v1549h170v-728h5q14 22 41 51l589 677h212l-672 -743z"/>
<glyph unicode="L" glyph-name="L" horiz-adv-x="1035" d="M1001 0h-796v1549h170v-1393h626v-156z"/>
<glyph unicode="M" glyph-name="M" horiz-adv-x="1977" d="M1602 0v1046q0 119 16 299h-5q-28 -110 -46 -146l-540 -1199h-76l-539 1191q-21 47 -45 154h-5q9 -82 9 -296v-1049h-166v1549h222l485 -1091q57 -129 72 -183h7q30 81 75 188l496 1086h210v-1549h-170z"/>
<glyph unicode="N" glyph-name="N" horiz-adv-x="1649" d="M1444 0h-214l-808 1251q-27 44 -48 93h-6q8 -48 8 -208v-1136h-171v1549h226l786 -1238q60 -96 63 -106h4q-11 77 -11 233v1111h171v-1549z"/>
<glyph unicode="O" glyph-name="O" horiz-adv-x="1667" d="M103 756q0 373 202.5 596t547.5 223q320 0 515.5 -218t195.5 -562q0 -371 -197.5 -596t-539.5 -225q-327 0 -525.5 219t-198.5 563zM282 772q0 -279 148 -461.5t396 -182.5q265 0 412.5 172.5t147.5 468.5q0 306 -142.5 478t-403.5 172q-254 0 -406 -183.5t-152 -463.5z "/>
<glyph unicode="P" glyph-name="P" horiz-adv-x="1231" d="M375 588v-588h-170v1549h418q243 0 380 -121t137 -340q0 -228 -161 -368t-397 -132h-207zM375 1392v-645h194q191 0 291.5 86.5t100.5 246.5q0 312 -368 312h-218z"/>
<glyph unicode="Q" glyph-name="Q" horiz-adv-x="1667" d="M1004 -6l375 -375h-238l-323 356q-346 6 -530.5 222.5t-184.5 558.5q0 370 192.5 593.5t558.5 223.5q335 0 522.5 -215.5t187.5 -562.5q0 -322 -138 -534.5t-422 -266.5zM840 1421q-262 0 -410.5 -179.5t-148.5 -469.5q0 -291 144 -468t401 -177q266 0 413 173.5 t147 471.5q0 306 -137.5 477.5t-408.5 171.5z"/>
<glyph unicode="R" glyph-name="R" horiz-adv-x="1315" d="M1302 0h-204l-260 436q-83 140 -151 183.5t-159 43.5h-153v-663h-170v1549h456q213 0 339 -109.5t126 -302.5q0 -321 -343 -417v-4q64 -28 105.5 -73t124.5 -178zM375 1391v-570h253q141 0 230 82.5t89 219.5q0 126 -81 197t-236 71h-255z"/>
<glyph unicode="S" glyph-name="S" horiz-adv-x="1171" d="M133 268q65 -59 187.5 -98.5t226.5 -39.5q338 0 338 246q0 69 -35 123t-94.5 93.5t-234.5 129.5q-252 129 -319 225t-67 217q0 187 152 299t382 112q232 0 329 -55v-197q-136 94 -351 94q-147 0 -240 -62.5t-93 -175.5q0 -70 32.5 -121.5t88.5 -89.5t218 -119 q228 -113 319 -220.5t91 -240.5q0 -198 -144 -306t-403 -108q-79 0 -205.5 26t-177.5 63v205z"/>
<glyph unicode="T" glyph-name="T" horiz-adv-x="1150" d="M1109 1393h-447v-1393h-171v1393h-446v156h1064v-156z"/>
<glyph unicode="U" glyph-name="U" horiz-adv-x="1515" d="M1329 623q0 -649 -585 -649q-558 0 -558 625v950h170v-938q0 -483 409 -483q394 0 394 466v955h170v-926z"/>
<glyph unicode="V" glyph-name="V" horiz-adv-x="1367" d="M1347 1549l-576 -1549h-187l-564 1549h190l436 -1238q20 -57 31 -136h5q7 63 35 138l446 1236h184z"/>
<glyph unicode="W" glyph-name="W" horiz-adv-x="2056" d="M2028 1549l-439 -1549h-201l-323 1141q-21 75 -25 157h-4q-6 -80 -28 -155l-325 -1143h-197l-457 1549h188l336 -1198q22 -79 26 -155h6q5 56 33 155l346 1198h161l334 -1207q16 -56 26 -144h4q4 62 30 148l322 1203h187z"/>
<glyph unicode="X" glyph-name="X" horiz-adv-x="1296" d="M1261 0h-208l-363 599q-15 25 -36 75h-5q-1 -5 -36 -75l-373 -599h-211l520 779l-479 770h210l322 -550q32 -55 56 -107h4q36 74 62 112l334 545h197l-488 -768z"/>
<glyph unicode="Y" glyph-name="Y" horiz-adv-x="1215" d="M1201 1549l-511 -976v-573h-171v570l-499 979h195l352 -708q8 -16 38 -93h3q11 35 42 93l370 708h181z"/>
<glyph unicode="Z" glyph-name="Z" horiz-adv-x="1256" d="M1209 1516l-915 -1360h892v-156h-1150v41l905 1352h-833v156h1101v-33z"/>
<glyph unicode="[" glyph-name="bracketleft" horiz-adv-x="657" d="M605 -352h-390v1901h390v-123h-240v-1656h240v-122z"/>
<glyph unicode="\" glyph-name="backslash" horiz-adv-x="830" d="M850 -259h-153l-727 1808h158z"/>
<glyph unicode="]" glyph-name="bracketright" horiz-adv-x="657" d="M445 -352h-389v122h240v1656h-240v123h389v-1901z"/>
<glyph unicode="^" glyph-name="asciicircum" horiz-adv-x="1510" d="M1263 675h-156l-362 670h-6l-337 -670h-152l455 900h63z"/>
<glyph unicode="_" glyph-name="underscore" horiz-adv-x="918" d="M918 -321h-918v129h918v-129z"/>
<glyph unicode="`" glyph-name="grave" horiz-adv-x="586" d="M500 1281h-130l-279 349h173z"/>
<glyph unicode="a" glyph-name="a" horiz-adv-x="1121" d="M207 1027q163 105 373 105q385 0 385 -409v-723h-167v174h-6q-115 -200 -340 -200q-164 0 -258.5 87.5t-94.5 231.5q0 307 364 359l334 48q0 288 -230 288q-201 0 -360 -137v176zM526 525q-142 -19 -197.5 -68.5t-55.5 -152.5q0 -83 59.5 -135t155.5 -52q133 0 221 95 t88 237v112z"/>
<glyph unicode="b" glyph-name="b" horiz-adv-x="1295" d="M348 162v-162h-167v1637h167v-727h5q131 222 383 222q211 0 333 -149t122 -398q0 -276 -136.5 -443.5t-369.5 -167.5q-219 0 -332 188h-5zM348 449q0 -141 93.5 -237t228.5 -96q163 0 256.5 126t93.5 348q0 185 -87 292.5t-235 107.5q-153 0 -251.5 -108.5t-98.5 -274.5 v-158z"/>
<glyph unicode="c" glyph-name="c" horiz-adv-x="1019" d="M930 52q-129 -78 -300 -78q-235 0 -379.5 153.5t-144.5 399.5q0 275 156 440t415 165q143 0 255 -54v-175q-124 87 -265 87q-170 0 -280.5 -122.5t-110.5 -325.5q0 -198 103 -312t277 -114q147 0 274 97v-161z"/>
<glyph unicode="d" glyph-name="d" horiz-adv-x="1298" d="M1116 0h-166v190h-4q-123 -216 -382 -216q-210 0 -334 149.5t-124 403.5q0 272 139 438.5t367 166.5t334 -181h4v686h166v-1637zM950 666q0 136 -92.5 230t-226.5 94q-166 0 -260.5 -122.5t-94.5 -331.5q0 -191 90.5 -305.5t243.5 -114.5q147 0 243.5 107.5t96.5 274.5 v168z"/>
<glyph unicode="e" glyph-name="e" horiz-adv-x="1154" d="M1063 512h-784q5 -191 101 -293t263 -102q187 0 345 125v-160q-145 -108 -384 -108q-231 0 -364.5 151t-133.5 425q0 252 144.5 417t361.5 165q213 0 332 -140t119 -390v-90zM891 659q-1 156 -75 242.5t-207 86.5q-121 0 -212.5 -87t-115.5 -242h610z"/>
<glyph unicode="f" glyph-name="f" horiz-adv-x="682" d="M717 1489q-53 29 -118 29q-187 0 -187 -238v-174h259v-144h-259v-962h-165v962h-189v144h189v182q0 175 99.5 274t244.5 99q81 0 126 -19v-153z"/>
<glyph unicode="g" glyph-name="g" horiz-adv-x="1298" d="M1116 87q0 -608 -576 -608q-204 0 -359 79v170q187 -104 358 -104q411 0 411 441v123h-4q-130 -214 -382 -214q-208 0 -333 149t-125 394q0 283 137 449t369 166q225 0 334 -181h4v155h166v-1019zM950 666q0 135 -93 229.5t-224 94.5q-166 0 -261.5 -122t-95.5 -339 q0 -188 92 -300.5t239 -112.5q149 0 246 107.5t97 274.5v168z"/>
<glyph unicode="h" glyph-name="h" horiz-adv-x="1247" d="M1090 0h-166v638q0 352 -263 352q-133 0 -223 -102t-90 -262v-626h-167v1637h167v-716h5q127 211 364 211q373 0 373 -451v-681z"/>
<glyph unicode="i" glyph-name="i" horiz-adv-x="531" d="M159 1504q0 47 31.5 79.5t76.5 32.5q47 0 79.5 -33t32.5 -79q0 -44 -32.5 -77t-79.5 -33t-77.5 32t-30.5 78zM182 0v1106h166v-1106h-166z"/>
<glyph unicode="j" glyph-name="j" horiz-adv-x="530" d="M158 1504q0 47 31 79.5t78 32.5t79.5 -33t32.5 -79q0 -44 -32.5 -77t-79.5 -33q-48 0 -78.5 32t-30.5 78zM347 48q0 -272 -109.5 -420.5t-310.5 -148.5q-74 0 -146 35v158q81 -48 153 -48q247 0 247 394v1088h166v-1058z"/>
<glyph unicode="k" glyph-name="k" horiz-adv-x="1090" d="M1087 0h-237l-497 530h-5v-530h-167v1637h167v-1038h5l472 507h221l-520 -535z"/>
<glyph unicode="l" glyph-name="l" horiz-adv-x="531" d="M182 0v1637h166v-1637h-166z"/>
<glyph unicode="m" glyph-name="m" horiz-adv-x="1897" d="M1740 0h-167v635q0 193 -58.5 274t-193.5 81q-113 0 -195 -106t-82 -252v-632h-166v658q0 332 -257 332q-118 0 -195.5 -101t-77.5 -257v-632h-167v1106h167v-175h5q116 201 342 201q108 0 194.5 -63.5t117.5 -167.5q123 231 368 231q365 0 365 -451v-681z"/>
<glyph unicode="n" glyph-name="n" horiz-adv-x="1246" d="M1090 0h-167v632q0 358 -262 358q-137 0 -225 -102.5t-88 -256.5v-631h-167v1106h167v-185h5q124 211 363 211q182 0 278 -117t96 -339v-676z"/>
<glyph unicode="o" glyph-name="o" horiz-adv-x="1292" d="M106 539q0 276 150.5 434.5t409.5 158.5q244 0 382.5 -153t138.5 -423q0 -262 -150 -422t-397 -160q-239 0 -386.5 154t-147.5 411zM276 546q0 -196 102.5 -313t273.5 -117q174 0 269.5 114t95.5 320q0 211 -94.5 325.5t-270.5 114.5q-172 0 -274 -118.5t-102 -325.5z "/>
<glyph unicode="p" glyph-name="p" horiz-adv-x="1295" d="M348 162v-671h-167v1615h167v-196h5q131 222 383 222q211 0 333 -147.5t122 -399.5q0 -276 -136.5 -443.5t-369.5 -167.5q-216 0 -332 188h-5zM348 448q0 -139 93 -235.5t229 -96.5q163 0 256.5 126t93.5 348q0 187 -88 293.5t-234 106.5q-152 0 -251 -107.5t-99 -274.5 v-160z"/>
<glyph unicode="q" glyph-name="q" horiz-adv-x="1298" d="M1116 -509h-166v701h-4q-116 -218 -380 -218q-210 0 -335 148t-125 405q0 275 138 440t371 165q228 0 331 -181h4v155h166v-1615zM950 662q0 135 -90 231.5t-231 96.5q-163 0 -258 -120.5t-95 -338.5q0 -195 91 -305t236 -110q162 0 254.5 109.5t92.5 270.5v166z"/>
<glyph unicode="r" glyph-name="r" horiz-adv-x="762" d="M749 935q-46 35 -133 35q-117 0 -192.5 -111.5t-75.5 -292.5v-566h-167v1106h167v-229h5q38 118 116 183t172 65q71 0 108 -15v-175z"/>
<glyph unicode="s" glyph-name="s" horiz-adv-x="934" d="M112 225q145 -107 318 -107q236 0 236 159q0 70 -51.5 114t-202.5 101q-180 71 -239 143t-59 179q0 142 121.5 230t298.5 88q142 0 254 -50v-174q-122 80 -281 80q-98 0 -159.5 -44t-61.5 -116t42.5 -110t191.5 -99q189 -72 253.5 -145.5t64.5 -180.5 q0 -148 -121.5 -233.5t-311.5 -85.5q-171 0 -293 67v184z"/>
<glyph unicode="t" glyph-name="t" horiz-adv-x="743" d="M684 11q-61 -35 -161 -35q-285 0 -285 321v665h-192v144h192v272l166 54v-326h280v-144h-280v-635q0 -113 38 -161t127 -48q69 0 115 37v-144z"/>
<glyph unicode="u" glyph-name="u" horiz-adv-x="1246" d="M1066 0h-167v175h-4q-109 -201 -341 -201q-396 0 -396 471v661h165v-633q0 -357 272 -357q134 0 219 99t85 254v637h167v-1106z"/>
<glyph unicode="v" glyph-name="v" horiz-adv-x="1050" d="M1039 1106l-443 -1106h-160l-420 1106h184l285 -812q33 -94 39 -151h5q13 91 34 147l300 816h176z"/>
<glyph unicode="w" glyph-name="w" horiz-adv-x="1587" d="M1561 1106l-332 -1106h-173l-232 801q-13 45 -17 100h-4q-1 -28 -23 -98l-251 -803h-166l-336 1106h175l234 -839q11 -40 15 -98h8q4 46 20 100l259 837h152l233 -841q9 -34 16 -98h9q1 41 18 98l230 841h165z"/>
<glyph unicode="x" glyph-name="x" horiz-adv-x="1002" d="M972 1106l-371 -562l365 -544h-195l-220 363q-23 38 -49 83h-5q0 -1 -50 -83l-226 -363h-192l378 541l-362 565h195l263 -467h4q11 17 22 36l260 431h183z"/>
<glyph unicode="y" glyph-name="y" horiz-adv-x="1062" d="M1050 1106l-512 -1289q-134 -338 -376 -338q-61 0 -109 13v152q56 -18 102 -18q135 0 202 162l90 214l-431 1104h185l305 -863q6 -18 23 -79h6q4 21 21 77l321 865h173z"/>
<glyph unicode="z" glyph-name="z" horiz-adv-x="996" d="M939 0h-902v49l660 913h-599v144h848v-43l-663 -919h656v-144z"/>
<glyph unicode="{" glyph-name="braceleft" horiz-adv-x="657" d="M590 -352q-323 5 -323 331v328q0 221 -169 231v121q169 10 169 234v321q0 331 323 335v-135q-170 -5 -170 -215v-322q0 -225 -162 -275v-5q162 -46 162 -272v-318q0 -124 38.5 -175t131.5 -52v-132z"/>
<glyph unicode="|" glyph-name="bar" horiz-adv-x="516" d="M336 -521h-153v2212h153v-2212z"/>
<glyph unicode="}" glyph-name="braceright" horiz-adv-x="657" d="M561 538q-168 -10 -168 -230v-329q0 -326 -323 -331v132q94 1 133.5 53.5t39.5 173.5v317q0 226 160 273v5q-160 50 -160 274v323q0 210 -173 215v135q323 -4 323 -335v-321q0 -223 168 -234v-121z"/>
<glyph unicode="~" glyph-name="asciitilde" horiz-adv-x="1510" d="M1286 808q-8 -157 -87 -244t-214 -87q-118 0 -286 120q-105 72 -173 72q-152 0 -158 -191h-141q5 154 85 242.5t215 88.5q115 0 254 -96q143 -98 214 -98q64 0 105.5 51.5t44.5 141.5h141z"/>
<glyph unicode=" " glyph-name="uni00A0" horiz-adv-x="606"/>
<glyph unicode="¡" glyph-name="exclamdown" horiz-adv-x="623" d="M196 1015q0 45 34 80t81 35t81 -34t34 -81t-34 -81.5t-76 -34.5q-54 0 -87 35t-33 81zM400 -438h-174l19 1115h137z"/>
<glyph unicode="¢" glyph-name="cent" d="M1024 226q-104 -65 -242 -76v-214h-132v217q-206 26 -328 176.5t-122 370.5q0 227 119.5 390.5t330.5 204.5v230h132v-218q133 -1 242 -56v-179q-110 78 -242 85v-863q135 14 242 94v-162zM650 1143q-128 -32 -203 -146t-75 -279q0 -160 73.5 -271.5t204.5 -140.5v837z "/>
<glyph unicode="£" glyph-name="sterling" d="M1078 0h-967v140q238 73 238 341v207h-215v146h215v279q0 202 117.5 332t300.5 130q125 0 228 -44v-160q-110 61 -228 61q-250 0 -250 -337v-261h322v-146h-322v-174q0 -265 -211 -370h772v-144z"/>
<glyph unicode="¤" glyph-name="currency" horiz-adv-x="1229" d="M1118 382l-96 -100l-148 149q-113 -83 -258 -83q-150 0 -260 83l-149 -149l-96 100l149 144q-83 124 -83 257q0 139 83 257l-149 146l96 101l149 -148q119 84 260 84q139 0 256 -84l150 148l96 -101l-148 -146q85 -123 85 -257q0 -131 -85 -257zM317 785q0 -122 88 -211 t211 -89q121 0 210.5 89.5t89.5 210.5q0 119 -91 209.5t-209 90.5q-122 0 -210.5 -87.5t-88.5 -212.5z"/>
<glyph unicode="¥" glyph-name="yen" d="M1117 1549l-384 -710h310v-147h-363v-226h363v-148h-363v-318h-167v318h-374v148h374v226h-374v147h318l-382 710h199l273 -557q21 -42 51 -122h4q18 55 54 128l276 551h185z"/>
<glyph unicode="¦" glyph-name="brokenbar" horiz-adv-x="516" d="M336 774h-153v917h153v-917zM336 -521h-153v918h153v-918z"/>
<glyph unicode="§" glyph-name="section" horiz-adv-x="986" d="M704 448q98 -79 98 -202q0 -140 -107 -228.5t-274 -88.5q-139 0 -255 59v165q138 -78 266 -78q90 0 141.5 42.5t51.5 110.5q0 61 -34.5 98t-197.5 123q-252 132 -252 343q0 177 161 264q-116 90 -116 241q0 137 102.5 225t262.5 88q139 0 233 -45v-165q-105 65 -238 65 q-185 0 -185 -159q0 -120 160 -193q257 -119 300.5 -207.5t43.5 -159.5q0 -182 -161 -298zM428 980q-112 -57 -112 -175q0 -85 67 -144.5t209 -122.5q96 77 96 190q0 84 -60.5 139t-199.5 113z"/>
<glyph unicode="¨" glyph-name="dieresis" horiz-adv-x="909" d="M551 1422q0 45 28.5 74t71.5 29q44 0 74 -29.5t30 -73.5t-30 -74.5t-72 -30.5t-72 30.5t-30 74.5zM138 1422q0 45 29.5 74t72.5 29t74 -30.5t31 -72.5q0 -44 -30.5 -74.5t-71.5 -30.5t-73 31t-32 74z"/>
<glyph unicode="©" glyph-name="copyright" horiz-adv-x="1971" d="M177 774q0 337 238 574t571 237t570.5 -237.5t237.5 -573.5q0 -337 -238 -574t-570 -237q-333 0 -571 238t-238 573zM269 774q0 -297 210.5 -506.5t506.5 -209.5q297 0 506.5 210t209.5 506t-210 506.5t-506 210.5q-294 0 -505.5 -209.5t-211.5 -507.5zM1311 285 q-124 -74 -290 -74q-228 0 -380 153.5t-152 382.5q0 268 157 427.5t406 159.5q143 0 255 -58v-156q-103 78 -276 78q-172 0 -282.5 -116.5t-110.5 -315.5q0 -194 113 -309t289 -115q157 0 271 84v-141z"/>
<glyph unicode="ª" glyph-name="ordfeminine" horiz-adv-x="864" d="M606 774v109h-5q-84 -129 -249 -129q-117 0 -189.5 64t-72.5 165q0 217 266 253l250 33q0 186 -163 186q-150 0 -276 -93v134q118 76 286 76q135 0 210.5 -76.5t75.5 -216.5v-505h-133zM407 1135q-184 -25 -184 -148q0 -55 42 -90.5t112 -35.5q91 0 160 69.5t69 160.5v71 z"/>
<glyph unicode="«" glyph-name="guillemotleft" horiz-adv-x="1108" d="M1009 216h-175l-321 363l321 371h177l-330 -371zM595 216h-172l-321 363l321 371h173l-326 -371z"/>
<glyph unicode="¬" glyph-name="logicalnot" horiz-adv-x="1510" d="M1263 273h-138v468h-874v138h1012v-606z"/>
<glyph unicode="­" glyph-name="uni00AD" horiz-adv-x="884" d="M745 551h-589v133h589v-133z"/>
<glyph unicode="®" glyph-name="registered" horiz-adv-x="1971" d="M177 774q0 337 238 574t571 237t570.5 -237.5t237.5 -573.5q0 -337 -238 -574t-570 -237q-333 0 -571 238t-238 573zM269 774q0 -297 210.5 -506.5t506.5 -209.5q297 0 506.5 210t209.5 506t-210 506.5t-506 210.5q-294 0 -505.5 -209.5t-211.5 -507.5zM1377 267h-168 l-114 247q-87 189 -189 189h-96v-436h-137v1032h285q178 0 276.5 -75.5t98.5 -205.5q0 -106 -68.5 -181t-193.5 -100v-5q85 -18 170 -192zM810 1180v-358h158q216 0 216 180q0 97 -57 137.5t-185 40.5h-132z"/>
<glyph unicode="¯" glyph-name="macron" horiz-adv-x="948" d="M918 1508h-918v129h918v-129z"/>
<glyph unicode="°" glyph-name="degree" horiz-adv-x="834" d="M416 1575q123 0 210.5 -88t87.5 -211q0 -122 -88 -210t-210 -88q-123 0 -210.5 88t-87.5 210q0 123 87.5 211t210.5 88zM416 1104q71 0 121.5 50.5t50.5 121.5t-50.5 121.5t-121.5 50.5t-121.5 -50.5t-50.5 -121.5t50.5 -121.5t121.5 -50.5z"/>
<glyph unicode="±" glyph-name="plusminus" horiz-adv-x="1510" d="M1263 701h-438v-437h-136v437h-439v138h439v437h136v-437h438v-138zM1263 0h-1012v139h1012v-139z"/>
<glyph unicode="²" glyph-name="uni00B2" horiz-adv-x="804" d="M706 631h-595v120l259 255q98 96 137 154t39 138q0 65 -41.5 104.5t-110.5 39.5q-128 0 -233 -110v156q88 82 253 82q125 0 199 -70.5t74 -187.5q0 -166 -220 -376l-181 -173v-5h420v-127z"/>
<glyph unicode="³" glyph-name="uni00B3" horiz-adv-x="804" d="M139 816q112 -82 235 -82q87 0 136.5 41t49.5 111q0 155 -239 155h-89v124h85q215 0 215 147q0 131 -157 131q-101 0 -200 -75v147q94 55 228 55q118 0 191 -63.5t73 -168.5q0 -163 -157 -221v-5q192 -45 192 -219q0 -125 -92 -205t-242 -80q-148 0 -229 57v151z"/>
<glyph unicode="´" glyph-name="acute" horiz-adv-x="621" d="M561 1630l-280 -349h-129l238 349h171z"/>
<glyph unicode="µ" glyph-name="mu" horiz-adv-x="1272" d="M951 0q-25 76 -25 182h-5q-93 -207 -305 -207q-187 0 -264 137h-5v-540h-166v1534h166v-679q0 -136 75.5 -219.5t198.5 -83.5q134 0 217 95.5t83 250.5v636h169v-823q0 -202 34 -283h-173z"/>
<glyph unicode="¶" glyph-name="paragraph" horiz-adv-x="1006" d="M893 1441h-140v-1441h-109v1441h-174v-1441h-111v980q-117 -3 -192.5 81t-75.5 205t79 202t194 81h529v-108z"/>
<glyph unicode="·" glyph-name="periodcentered" horiz-adv-x="472" d="M236 554q-24 0 -45 9.5t-37 25.5t-25 37.5t-9 45.5t9 45.5t25 37t37 25t45 9.5t45.5 -9.5t37 -25t24.5 -37t9 -45.5t-9 -45.5t-24.5 -37.5t-37 -25.5t-45.5 -9.5z"/>
<glyph unicode="¸" glyph-name="cedilla" horiz-adv-x="453" d="M55 -463v94q40 -7 76 -7q153 0 153 99q0 85 -140 85q-14 0 -45 -5v197h112v-113q206 0 206 -164q0 -193 -288 -193q-36 4 -74 7z"/>
<glyph unicode="¹" glyph-name="uni00B9" horiz-adv-x="771" d="M684 631h-540v117h201v649l-209 -60v131l343 104v-824h205v-117z"/>
<glyph unicode="º" glyph-name="ordmasculine" horiz-adv-x="949" d="M85 1155q0 190 109.5 302.5t292.5 112.5q172 0 274 -107.5t102 -291.5q0 -192 -107.5 -305.5t-286.5 -113.5q-177 0 -280.5 108t-103.5 295zM224 1159q0 -134 65.5 -211.5t185.5 -77.5q117 0 184.5 79.5t67.5 211.5q0 135 -66.5 215.5t-181.5 80.5q-116 0 -185.5 -79 t-69.5 -219z"/>
<glyph unicode="»" glyph-name="guillemotright" horiz-adv-x="1108" d="M1011 581l-323 -365h-171l324 365l-324 369h171zM598 581l-321 -365h-177l331 365l-332 369h178z"/>
<glyph unicode="¼" glyph-name="onequarter" horiz-adv-x="1975" d="M684 631h-540v117h201v649l-209 -60v131l343 104v-824h205v-117zM1495 1549l-924 -1549h-149l926 1549h147zM1835 222h-119v-222h-138v222h-424v96l400 600h162v-581h119v-115zM1579 785q-13 -33 -41 -79l-239 -369h279v353q0 17 5 95h-4z"/>
<glyph unicode="½" glyph-name="onehalf" horiz-adv-x="2053" d="M684 631h-540v117h201v649l-209 -60v131l343 104v-824h205v-117zM1495 1549l-924 -1549h-149l926 1549h147zM1886 0h-595v120l259 255q98 96 137 154t39 138q0 65 -41.5 104.5t-110.5 39.5q-128 0 -233 -110v156q88 82 253 82q125 0 199 -70.5t74 -187.5 q0 -166 -220 -376l-181 -173v-5h420v-127z"/>
<glyph unicode="¾" glyph-name="threequarters" horiz-adv-x="2047" d="M139 816q112 -82 235 -82q87 0 136.5 41t49.5 111q0 155 -239 155h-89v124h85q215 0 215 147q0 131 -157 131q-101 0 -200 -75v147q94 55 228 55q118 0 191 -63.5t73 -168.5q0 -163 -157 -221v-5q192 -45 192 -219q0 -125 -92 -205t-242 -80q-148 0 -229 57v151z M1576 1549l-924 -1549h-149l926 1549h147zM1907 222h-119v-222h-138v222h-424v96l400 600h162v-581h119v-115zM1651 785q-13 -33 -41 -79l-239 -369h279v353q0 17 5 95h-4z"/>
<glyph unicode="¿" glyph-name="questiondown" horiz-adv-x="992" d="M695 1015q0 -47 -35 -82t-80 -35t-79.5 35.5t-34.5 81.5q0 47 35 81t79 34t79.5 -34t35.5 -81zM673 681q26 -78 26 -164q0 -63 -30 -129t-139 -175q-127 -123 -167 -186t-40 -134q0 -98 72.5 -156.5t184.5 -58.5q182 0 314 143v-182q-164 -103 -340 -103 q-173 0 -283.5 91t-110.5 246q0 168 161 324q142 136 182 194.5t40 127.5q0 78 -36 162h166z"/>
<glyph unicode="À" glyph-name="Agrave" horiz-adv-x="1419" d="M1393 0h-189l-168 440h-664l-157 -440h-190l596 1549h173zM978 596l-248 669q-10 28 -23 102h-5q-11 -68 -25 -102l-245 -669h546zM883 1657h-130l-279 349h173z"/>
<glyph unicode="Á" glyph-name="Aacute" horiz-adv-x="1419" d="M1393 0h-189l-168 440h-664l-157 -440h-190l596 1549h173zM978 596l-248 669q-10 28 -23 102h-5q-11 -68 -25 -102l-245 -669h546zM925 2006l-280 -349h-129l238 349h171z"/>
<glyph unicode="Â" glyph-name="Acircumflex" horiz-adv-x="1419" d="M1393 0h-189l-168 440h-664l-157 -440h-190l596 1549h173zM978 596l-248 669q-10 28 -23 102h-5q-11 -68 -25 -102l-245 -669h546zM1002 1656h-124l-176 241l-175 -241h-123l231 349h135z"/>
<glyph unicode="Ã" glyph-name="Atilde" horiz-adv-x="1419" d="M1393 0h-189l-168 440h-664l-157 -440h-190l596 1549h173zM978 596l-248 669q-10 28 -23 102h-5q-11 -68 -25 -102l-245 -669h546zM1047 1945q0 -113 -52.5 -183t-137.5 -70q-75 0 -174 57q-80 45 -128 45q-96 0 -96 -122h-98q0 118 52.5 184.5t141.5 66.5q69 0 160 -56 q80 -48 139 -48q90 0 90 126h103z"/>
<glyph unicode="Ä" glyph-name="Adieresis" horiz-adv-x="1419" d="M1393 0h-189l-168 440h-664l-157 -440h-190l596 1549h173zM978 596l-248 669q-10 28 -23 102h-5q-11 -68 -25 -102l-245 -669h546zM813 1797q0 45 28.5 74t71.5 29q44 0 74 -29.5t30 -73.5t-30 -74.5t-72 -30.5t-72 30.5t-30 74.5zM400 1797q0 45 29.5 74t72.5 29 t74 -30.5t31 -72.5q0 -44 -30.5 -74.5t-71.5 -30.5t-73 31t-32 74z"/>
<glyph unicode="Å" glyph-name="Aring" horiz-adv-x="1419" d="M1393 0h-189l-168 440h-664l-157 -440h-190l572 1486q-112 55 -112 179q0 94 65 153.5t161 59.5q90 0 151 -58.5t61 -147.5q0 -122 -107 -181zM580 1672q0 -124 124 -124q52 0 88 36t36 88q0 55 -36.5 88t-87.5 33q-55 0 -89.5 -34t-34.5 -87zM978 595l-248 670 q-10 28 -23 102h-5q-11 -71 -25 -102l-245 -670h546z"/>
<glyph unicode="Æ" glyph-name="AE" horiz-adv-x="1892" d="M1787 0h-812v440h-554l-212 -440h-197l754 1549h986v-156h-608v-527h565v-156h-565v-554h643v-156zM975 596v797h-104l-379 -797h483z"/>
<glyph unicode="Ç" glyph-name="Ccedilla" horiz-adv-x="1368" d="M1255 66q-184 -93 -425 -92v-87q93 0 148 -43t55 -121q0 -194 -279 -194q-34 0 -83 8v94q40 -7 75 -7q155 0 155 99q0 85 -132 85q-14 0 -54 -5v178q-283 34 -447.5 246.5t-164.5 517.5q0 358 219 594t569 236q220 0 364 -64v-184q-167 92 -368 92q-271 0 -438 -183 t-167 -481q0 -283 157 -455t410 -172q234 0 406 104v-166z"/>
<glyph unicode="È" glyph-name="Egrave" horiz-adv-x="1115" d="M1019 0h-814v1549h779v-156h-609v-527h563v-156h-563v-554h644v-156zM753 1657h-130l-279 349h173z"/>
<glyph unicode="É" glyph-name="Eacute" horiz-adv-x="1115" d="M1019 0h-814v1549h779v-156h-609v-527h563v-156h-563v-554h644v-156zM862 2005l-280 -349h-129l238 349h171z"/>
<glyph unicode="Ê" glyph-name="Ecircumflex" horiz-adv-x="1115" d="M1019 0h-814v1549h779v-156h-609v-527h563v-156h-563v-554h644v-156zM887 1658h-124l-176 241l-175 -241h-123l231 349h135z"/>
<glyph unicode="Ë" glyph-name="Edieresis" horiz-adv-x="1115" d="M1019 0h-814v1549h779v-156h-609v-527h563v-156h-563v-554h644v-156zM702 1798q0 45 28.5 74t71.5 29q44 0 74 -29.5t30 -73.5t-30 -74.5t-72 -30.5t-72 30.5t-30 74.5zM289 1798q0 45 29.5 74t72.5 29t74 -30.5t31 -72.5q0 -44 -30.5 -74.5t-71.5 -30.5t-73 31t-32 74z "/>
<glyph unicode="Ì" glyph-name="Igrave" horiz-adv-x="582" d="M375 0h-170v1549h170v-1549zM448 1654h-130l-279 349h173z"/>
<glyph unicode="Í" glyph-name="Iacute" horiz-adv-x="582" d="M375 0h-170v1549h170v-1549zM546 2003l-280 -349h-129l238 349h171z"/>
<glyph unicode="Î" glyph-name="Icircumflex" horiz-adv-x="582" d="M375 0h-170v1549h170v-1549zM591 1654h-124l-176 241l-175 -241h-123l231 349h135z"/>
<glyph unicode="Ï" glyph-name="Idieresis" horiz-adv-x="582" d="M375 0h-170v1549h170v-1549zM397 1795q0 45 28.5 74t71.5 29q44 0 74 -29.5t30 -73.5t-30 -74.5t-72 -30.5t-72 30.5t-30 74.5zM-16 1795q0 45 29.5 74t72.5 29t74 -30.5t31 -72.5q0 -44 -30.5 -74.5t-71.5 -30.5t-73 31t-32 74z"/>
<glyph unicode="Ð" glyph-name="Eth" horiz-adv-x="1546" d="M205 0v696h-173v160h173v693h420q817 0 817 -755q0 -360 -228.5 -577t-607.5 -217h-401zM375 1393v-537h367v-160h-367v-540h236q310 0 481.5 167t171.5 466q0 604 -643 604h-246z"/>
<glyph unicode="Ñ" glyph-name="Ntilde" horiz-adv-x="1649" d="M1444 0h-214l-808 1251q-27 44 -48 93h-6q8 -48 8 -208v-1136h-171v1549h226l786 -1238q60 -96 63 -106h4q-11 77 -11 233v1111h171v-1549zM1197 1945q0 -113 -52.5 -183t-137.5 -70q-75 0 -174 57q-80 45 -128 45q-96 0 -96 -122h-98q0 118 52.5 184.5t141.5 66.5 q69 0 160 -56q80 -48 139 -48q90 0 90 126h103z"/>
<glyph unicode="Ò" glyph-name="Ograve" horiz-adv-x="1667" d="M103 756q0 373 202.5 596t547.5 223q320 0 515.5 -218t195.5 -562q0 -371 -197.5 -596t-539.5 -225q-327 0 -525.5 219t-198.5 563zM282 772q0 -279 148 -461.5t396 -182.5q265 0 412.5 172.5t147.5 468.5q0 306 -142.5 478t-403.5 172q-254 0 -406 -183.5t-152 -463.5z M989 1654h-130l-279 349h173z"/>
<glyph unicode="Ó" glyph-name="Oacute" horiz-adv-x="1667" d="M103 756q0 373 202.5 596t547.5 223q320 0 515.5 -218t195.5 -562q0 -371 -197.5 -596t-539.5 -225q-327 0 -525.5 219t-198.5 563zM282 772q0 -279 148 -461.5t396 -182.5q265 0 412.5 172.5t147.5 468.5q0 306 -142.5 478t-403.5 172q-254 0 -406 -183.5t-152 -463.5z M1078 2003l-280 -349h-129l238 349h171z"/>
<glyph unicode="Ô" glyph-name="Ocircumflex" horiz-adv-x="1667" d="M103 756q0 373 202.5 596t547.5 223q320 0 515.5 -218t195.5 -562q0 -371 -197.5 -596t-539.5 -225q-327 0 -525.5 219t-198.5 563zM282 772q0 -279 148 -461.5t396 -182.5q265 0 412.5 172.5t147.5 468.5q0 306 -142.5 478t-403.5 172q-254 0 -406 -183.5t-152 -463.5z M1133 1654h-124l-176 241l-175 -241h-123l231 349h135z"/>
<glyph unicode="Õ" glyph-name="Otilde" horiz-adv-x="1667" d="M103 756q0 373 202.5 596t547.5 223q320 0 515.5 -218t195.5 -562q0 -371 -197.5 -596t-539.5 -225q-327 0 -525.5 219t-198.5 563zM282 772q0 -279 148 -461.5t396 -182.5q265 0 412.5 172.5t147.5 468.5q0 306 -142.5 478t-403.5 172q-254 0 -406 -183.5t-152 -463.5z M1176 1945q0 -113 -52.5 -183t-137.5 -70q-75 0 -174 57q-80 45 -128 45q-96 0 -96 -122h-98q0 118 52.5 184.5t141.5 66.5q69 0 160 -56q80 -48 139 -48q90 0 90 126h103z"/>
<glyph unicode="Ö" glyph-name="Odieresis" horiz-adv-x="1668" d="M103 756q0 373 202.5 596t547.5 223q320 0 515.5 -218t195.5 -562q0 -371 -197.5 -596t-539.5 -225q-327 0 -525.5 219t-198.5 563zM282 772q0 -279 148 -461.5t396 -182.5q265 0 412.5 172.5t147.5 468.5q0 306 -142.5 478t-403.5 172q-254 0 -406 -183.5t-152 -463.5z M941 1795q0 45 28.5 74t71.5 29q44 0 74 -29.5t30 -73.5t-30 -74.5t-72 -30.5t-72 30.5t-30 74.5zM528 1795q0 45 29.5 74t72.5 29t74 -30.5t31 -72.5q0 -44 -30.5 -74.5t-71.5 -30.5t-73 31t-32 74z"/>
<glyph unicode="×" glyph-name="multiply" horiz-adv-x="1510" d="M1220 280l-99 -99l-367 367l-365 -367l-98 99l368 365l-368 367l99 97l364 -367l367 367l99 -97l-367 -367z"/>
<glyph unicode="Ø" glyph-name="Oslash" horiz-adv-x="1667" d="M184 -54l-81 67l171 207q-171 213 -171 536q0 372 203.5 595.5t546.5 223.5q253 0 434 -141l146 176l81 -65l-150 -180q200 -215 200 -570q0 -377 -200.5 -599t-536.5 -222q-287 0 -479 168zM1182 1305q-139 112 -342 112q-246 0 -401.5 -179t-155.5 -466 q0 -244 109 -411zM460 281q142 -151 366 -151q260 0 409 170t149 469q0 288 -131 460z"/>
<glyph unicode="Ù" glyph-name="Ugrave" horiz-adv-x="1515" d="M1329 623q0 -649 -585 -649q-558 0 -558 625v950h170v-938q0 -483 409 -483q394 0 394 466v955h170v-926zM888 1657h-130l-279 349h173z"/>
<glyph unicode="Ú" glyph-name="Uacute" horiz-adv-x="1515" d="M1329 623q0 -649 -585 -649q-558 0 -558 625v950h170v-938q0 -483 409 -483q394 0 394 466v955h170v-926zM1031 2005l-280 -349h-129l238 349h171z"/>
<glyph unicode="Û" glyph-name="Ucircumflex" horiz-adv-x="1515" d="M1329 623q0 -649 -585 -649q-558 0 -558 625v950h170v-938q0 -483 409 -483q394 0 394 466v955h170v-926zM1057 1658h-124l-176 241l-175 -241h-123l231 349h135z"/>
<glyph unicode="Ü" glyph-name="Udieresis" horiz-adv-x="1515" d="M1329 623q0 -649 -585 -649q-558 0 -558 625v950h170v-938q0 -483 409 -483q394 0 394 466v955h170v-926zM859 1799q0 45 28.5 74t71.5 29q44 0 74 -29.5t30 -73.5t-30 -74.5t-72 -30.5t-72 30.5t-30 74.5zM446 1799q0 45 29.5 74t72.5 29t74 -30.5t31 -72.5 q0 -44 -30.5 -74.5t-71.5 -30.5t-73 31t-32 74z"/>
<glyph unicode="Ý" glyph-name="Yacute" horiz-adv-x="1215" d="M1201 1549l-511 -976v-573h-171v570l-499 979h195l352 -708q8 -16 38 -93h3q11 35 42 93l370 708h181zM870 2003l-280 -349h-129l238 349h171z"/>
<glyph unicode="Þ" glyph-name="Thorn" horiz-adv-x="1231" d="M375 346v-346h-170v1549h170v-245h248q249 0 383 -122t134 -339q0 -221 -154 -359t-408 -138h-203zM375 1148v-645h194q190 0 291 85t101 245q0 315 -368 315h-218z"/>
<glyph unicode="ß" glyph-name="germandbls" horiz-adv-x="1191" d="M492 167q81 -51 183 -51q119 0 194 82t75 216q0 163 -108 266t-303 126v135q132 24 213 116.5t81 212.5q0 118 -59.5 183t-166.5 65q-253 0 -253 -338v-1180h-167v1208q0 205 118.5 329t313.5 124q174 0 279.5 -102t105.5 -269q0 -132 -78.5 -243t-214.5 -156v-5 q410 -81 410 -463q0 -193 -121.5 -321t-311.5 -128q-110 0 -190 28v165z"/>
<glyph unicode="à" glyph-name="agrave" horiz-adv-x="1121" d="M207 1027q163 105 373 105q385 0 385 -409v-723h-167v174h-6q-115 -200 -340 -200q-164 0 -258.5 87.5t-94.5 231.5q0 307 364 359l334 48q0 288 -230 288q-201 0 -360 -137v176zM526 525q-142 -19 -197.5 -68.5t-55.5 -152.5q0 -83 59.5 -135t155.5 -52q133 0 221 95 t88 237v112zM720 1281h-130l-279 349h173z"/>
<glyph unicode="á" glyph-name="aacute" horiz-adv-x="1121" d="M207 1027q163 105 373 105q385 0 385 -409v-723h-167v174h-6q-115 -200 -340 -200q-164 0 -258.5 87.5t-94.5 231.5q0 307 364 359l334 48q0 288 -230 288q-201 0 -360 -137v176zM526 525q-142 -19 -197.5 -68.5t-55.5 -152.5q0 -83 59.5 -135t155.5 -52q133 0 221 95 t88 237v112zM812 1630l-280 -349h-129l238 349h171z"/>
<glyph unicode="â" glyph-name="acircumflex" horiz-adv-x="1121" d="M207 1027q163 105 373 105q385 0 385 -409v-723h-167v174h-6q-115 -200 -340 -200q-164 0 -258.5 87.5t-94.5 231.5q0 307 364 359l334 48q0 288 -230 288q-201 0 -360 -137v176zM526 525q-142 -19 -197.5 -68.5t-55.5 -152.5q0 -83 59.5 -135t155.5 -52q133 0 221 95 t88 237v112zM864 1281h-124l-176 241l-175 -241h-123l231 349h135z"/>
<glyph unicode="ã" glyph-name="atilde" horiz-adv-x="1121" d="M207 1027q163 105 373 105q385 0 385 -409v-723h-167v174h-6q-115 -200 -340 -200q-164 0 -258.5 87.5t-94.5 231.5q0 307 364 359l334 48q0 288 -230 288q-201 0 -360 -137v176zM526 525q-142 -19 -197.5 -68.5t-55.5 -152.5q0 -83 59.5 -135t155.5 -52q133 0 221 95 t88 237v112zM907 1572q0 -113 -52.5 -183t-137.5 -70q-75 0 -174 57q-80 45 -128 45q-96 0 -96 -122h-98q0 118 52.5 184.5t141.5 66.5q69 0 160 -56q80 -48 139 -48q90 0 90 126h103z"/>
<glyph unicode="ä" glyph-name="adieresis" horiz-adv-x="1121" d="M207 1027q163 105 373 105q385 0 385 -409v-723h-167v174h-6q-115 -200 -340 -200q-164 0 -258.5 87.5t-94.5 231.5q0 307 364 359l334 48q0 288 -230 288q-201 0 -360 -137v176zM526 525q-142 -19 -197.5 -68.5t-55.5 -152.5q0 -83 59.5 -135t155.5 -52q133 0 221 95 t88 237v112zM658 1422q0 45 28.5 74t71.5 29q44 0 74 -29.5t30 -73.5t-30 -74.5t-72 -30.5t-72 30.5t-30 74.5zM245 1422q0 45 29.5 74t72.5 29t74 -30.5t31 -72.5q0 -44 -30.5 -74.5t-71.5 -30.5t-73 31t-32 74z"/>
<glyph unicode="å" glyph-name="aring" horiz-adv-x="1121" d="M207 1027q163 105 373 105q385 0 385 -409v-723h-167v174h-6q-115 -200 -340 -200q-164 0 -258.5 87.5t-94.5 231.5q0 307 364 359l334 48q0 288 -230 288q-201 0 -360 -137v176zM526 525q-142 -19 -197.5 -68.5t-55.5 -152.5q0 -83 59.5 -135t155.5 -52q133 0 221 95 t88 237v112zM341 1473q0 95 63 153.5t160 58.5q94 0 155 -59.5t61 -145.5q0 -90 -65.5 -150.5t-157.5 -60.5q-94 0 -155 58t-61 146zM435 1478q0 -123 122 -123q53 0 88.5 34.5t35.5 88.5t-35 88.5t-89 34.5q-52 0 -87 -36.5t-35 -86.5z"/>
<glyph unicode="æ" glyph-name="ae" horiz-adv-x="1840" d="M1751 512h-787q3 -187 98.5 -291t262.5 -104q192 0 349 125v-161q-142 -107 -386 -107q-291 0 -412 251h-5q-155 -251 -419 -251q-162 0 -257.5 86.5t-95.5 232.5q0 324 415 349l284 17q0 329 -235 329q-189 0 -356 -133v172q158 105 375 105q250 0 322 -221h4 q125 221 387 221q215 0 335.5 -141t120.5 -392v-87zM1578 659q-9 329 -280 329q-125 0 -218 -90t-114 -239h612zM798 512l-223 -13q-166 -10 -235.5 -58t-69.5 -146q0 -83 60.5 -130.5t155.5 -47.5q132 0 222 94.5t90 231.5v69z"/>
<glyph unicode="ç" glyph-name="ccedilla" horiz-adv-x="1019" d="M930 52q-127 -78 -297 -78v-87q93 0 148 -43t55 -121q0 -194 -275 -194q-41 0 -87 8v94q39 -7 76 -7q153 0 153 99q0 85 -132 85q-14 0 -54 -5v182q-191 36 -301 185.5t-110 356.5q0 272 157 438.5t414 166.5q143 0 255 -54v-175q-124 87 -265 87q-171 0 -281 -124.5 t-110 -323.5q0 -196 103.5 -311t276.5 -115q147 0 274 97v-161z"/>
<glyph unicode="è" glyph-name="egrave" horiz-adv-x="1154" d="M1063 512h-784q5 -191 101 -293t263 -102q187 0 345 125v-160q-145 -108 -384 -108q-231 0 -364.5 151t-133.5 425q0 252 144.5 417t361.5 165q213 0 332 -140t119 -390v-90zM891 659q-1 156 -75 242.5t-207 86.5q-121 0 -212.5 -87t-115.5 -242h610zM775 1281h-130 l-279 349h173z"/>
<glyph unicode="é" glyph-name="eacute" horiz-adv-x="1154" d="M1063 512h-784q5 -191 101 -293t263 -102q187 0 345 125v-160q-145 -108 -384 -108q-231 0 -364.5 151t-133.5 425q0 252 144.5 417t361.5 165q213 0 332 -140t119 -390v-90zM891 659q-1 156 -75 242.5t-207 86.5q-121 0 -212.5 -87t-115.5 -242h610zM854 1630l-280 -349 h-129l238 349h171z"/>
<glyph unicode="ê" glyph-name="ecircumflex" horiz-adv-x="1154" d="M1063 512h-784q5 -191 101 -293t263 -102q187 0 345 125v-160q-145 -108 -384 -108q-231 0 -364.5 151t-133.5 425q0 252 144.5 417t361.5 165q213 0 332 -140t119 -390v-90zM891 659q-1 156 -75 242.5t-207 86.5q-121 0 -212.5 -87t-115.5 -242h610zM900 1281h-124 l-176 241l-175 -241h-123l231 349h135z"/>
<glyph unicode="ë" glyph-name="edieresis" horiz-adv-x="1154" d="M1063 512h-784q5 -191 101 -293t263 -102q187 0 345 125v-160q-145 -108 -384 -108q-231 0 -364.5 151t-133.5 425q0 252 144.5 417t361.5 165q213 0 332 -140t119 -390v-90zM891 659q-1 156 -75 242.5t-207 86.5q-121 0 -212.5 -87t-115.5 -242h610zM699 1422 q0 45 28.5 74t71.5 29q44 0 74 -29.5t30 -73.5t-30 -74.5t-72 -30.5t-72 30.5t-30 74.5zM286 1422q0 45 29.5 74t72.5 29t74 -30.5t31 -72.5q0 -44 -30.5 -74.5t-71.5 -30.5t-73 31t-32 74z"/>
<glyph unicode="ì" glyph-name="igrave" horiz-adv-x="531" d="M182 0v1106h166v-1106h-166zM432 1281h-130l-279 349h173z"/>
<glyph unicode="í" glyph-name="iacute" horiz-adv-x="531" d="M182 0v1106h166v-1106h-166zM510 1630l-280 -349h-129l238 349h171z"/>
<glyph unicode="î" glyph-name="icircumflex" horiz-adv-x="531" d="M182 0v1106h166v-1106h-166zM566 1281h-124l-176 241l-175 -241h-123l231 349h135z"/>
<glyph unicode="ï" glyph-name="idieresis" horiz-adv-x="531" d="M182 0v1106h166v-1106h-166zM371 1422q0 45 28.5 74t71.5 29q44 0 74 -29.5t30 -73.5t-30 -74.5t-72 -30.5t-72 30.5t-30 74.5zM-42 1422q0 45 29.5 74t72.5 29t74 -30.5t31 -72.5q0 -44 -30.5 -74.5t-71.5 -30.5t-73 31t-32 74z"/>
<glyph unicode="ð" glyph-name="eth" horiz-adv-x="1232" d="M855 1049q-97 177 -214 289l-324 -163l-53 103l295 142q-121 110 -285 217h230q86 -58 188 -150l313 157l58 -99l-288 -142q350 -333 350 -838q0 -259 -140.5 -424t-373.5 -165q-234 0 -369.5 150t-135.5 413q0 264 141.5 427.5t376.5 163.5q133 0 227 -85zM276 545 q0 -201 93.5 -315t252.5 -114q153 0 242.5 119t89.5 315q0 440 -327 440q-160 0 -255.5 -118.5t-95.5 -326.5z"/>
<glyph unicode="ñ" glyph-name="ntilde" horiz-adv-x="1246" d="M1090 0h-167v632q0 358 -262 358q-137 0 -225 -102.5t-88 -256.5v-631h-167v1106h167v-185h5q124 211 363 211q182 0 278 -117t96 -339v-676zM975 1572q0 -113 -52.5 -183t-137.5 -70q-75 0 -174 57q-80 45 -128 45q-96 0 -96 -122h-98q0 118 52.5 184.5t141.5 66.5 q69 0 160 -56q80 -48 139 -48q90 0 90 126h103z"/>
<glyph unicode="ò" glyph-name="ograve" horiz-adv-x="1292" d="M106 539q0 276 150.5 434.5t409.5 158.5q244 0 382.5 -153t138.5 -423q0 -262 -150 -422t-397 -160q-239 0 -386.5 154t-147.5 411zM276 546q0 -196 102.5 -313t273.5 -117q174 0 269.5 114t95.5 320q0 211 -94.5 325.5t-270.5 114.5q-172 0 -274 -118.5t-102 -325.5z M799 1281h-130l-279 349h173z"/>
<glyph unicode="ó" glyph-name="oacute" horiz-adv-x="1292" d="M106 539q0 276 150.5 434.5t409.5 158.5q244 0 382.5 -153t138.5 -423q0 -262 -150 -422t-397 -160q-239 0 -386.5 154t-147.5 411zM276 546q0 -196 102.5 -313t273.5 -117q174 0 269.5 114t95.5 320q0 211 -94.5 325.5t-270.5 114.5q-172 0 -274 -118.5t-102 -325.5z M909 1630l-280 -349h-129l238 349h171z"/>
<glyph unicode="ô" glyph-name="ocircumflex" horiz-adv-x="1292" d="M106 539q0 276 150.5 434.5t409.5 158.5q244 0 382.5 -153t138.5 -423q0 -262 -150 -422t-397 -160q-239 0 -386.5 154t-147.5 411zM276 546q0 -196 102.5 -313t273.5 -117q174 0 269.5 114t95.5 320q0 211 -94.5 325.5t-270.5 114.5q-172 0 -274 -118.5t-102 -325.5z M948 1281h-124l-176 241l-175 -241h-123l231 349h135z"/>
<glyph unicode="õ" glyph-name="otilde" horiz-adv-x="1292" d="M106 539q0 276 150.5 434.5t409.5 158.5q244 0 382.5 -153t138.5 -423q0 -262 -150 -422t-397 -160q-239 0 -386.5 154t-147.5 411zM276 546q0 -196 102.5 -313t273.5 -117q174 0 269.5 114t95.5 320q0 211 -94.5 325.5t-270.5 114.5q-172 0 -274 -118.5t-102 -325.5z M1001 1572q0 -113 -52.5 -183t-137.5 -70q-75 0 -174 57q-80 45 -128 45q-96 0 -96 -122h-98q0 118 52.5 184.5t141.5 66.5q69 0 160 -56q80 -48 139 -48q90 0 90 126h103z"/>
<glyph unicode="ö" glyph-name="odieresis" horiz-adv-x="1292" d="M106 539q0 276 150.5 434.5t409.5 158.5q244 0 382.5 -153t138.5 -423q0 -262 -150 -422t-397 -160q-239 0 -386.5 154t-147.5 411zM276 546q0 -196 102.5 -313t273.5 -117q174 0 269.5 114t95.5 320q0 211 -94.5 325.5t-270.5 114.5q-172 0 -274 -118.5t-102 -325.5z M751 1422q0 45 28.5 74t71.5 29q44 0 74 -29.5t30 -73.5t-30 -74.5t-72 -30.5t-72 30.5t-30 74.5zM338 1422q0 45 29.5 74t72.5 29t74 -30.5t31 -72.5q0 -44 -30.5 -74.5t-71.5 -30.5t-73 31t-32 74z"/>
<glyph unicode="÷" glyph-name="divide" horiz-adv-x="1510" d="M653 1050q0 50 32 83t78 33q109 0 109 -114q0 -50 -32.5 -82t-76.5 -32t-77 32.5t-33 79.5zM1263 575h-1012v140h1012v-140zM647 234q0 49 32.5 83.5t78.5 34.5q107 0 107 -116q0 -47 -30 -78.5t-77 -31.5q-45 0 -78 32t-33 76z"/>
<glyph unicode="ø" glyph-name="oslash" horiz-adv-x="1292" d="M1266 1135l-184 -198q105 -147 105 -373q0 -268 -149 -429t-398 -161q-206 0 -343 111l-158 -174l-85 83l162 178q-110 149 -110 367q0 278 152.5 435.5t410.5 157.5q198 0 331 -107l177 192zM890 906q-88 83 -238 83q-172 0 -273.5 -119t-101.5 -325q0 -146 57 -248z M408 201q96 -84 242 -84q175 0 271 112t96 323q0 149 -53 255z"/>
<glyph unicode="ù" glyph-name="ugrave" horiz-adv-x="1246" d="M1066 0h-167v175h-4q-109 -201 -341 -201q-396 0 -396 471v661h165v-633q0 -357 272 -357q134 0 219 99t85 254v637h167v-1106zM753 1281h-130l-279 349h173z"/>
<glyph unicode="ú" glyph-name="uacute" horiz-adv-x="1246" d="M1066 0h-167v175h-4q-109 -201 -341 -201q-396 0 -396 471v661h165v-633q0 -357 272 -357q134 0 219 99t85 254v637h167v-1106zM902 1630l-280 -349h-129l238 349h171z"/>
<glyph unicode="û" glyph-name="ucircumflex" horiz-adv-x="1246" d="M1066 0h-167v175h-4q-109 -201 -341 -201q-396 0 -396 471v661h165v-633q0 -357 272 -357q134 0 219 99t85 254v637h167v-1106zM914 1281h-124l-176 241l-175 -241h-123l231 349h135z"/>
<glyph unicode="ü" glyph-name="udieresis" horiz-adv-x="1246" d="M1066 0h-167v175h-4q-109 -201 -341 -201q-396 0 -396 471v661h165v-633q0 -357 272 -357q134 0 219 99t85 254v637h167v-1106zM725 1422q0 45 28.5 74t71.5 29q44 0 74 -29.5t30 -73.5t-30 -74.5t-72 -30.5t-72 30.5t-30 74.5zM312 1422q0 45 29.5 74t72.5 29t74 -30.5 t31 -72.5q0 -44 -30.5 -74.5t-71.5 -30.5t-73 31t-32 74z"/>
<glyph unicode="ý" glyph-name="yacute" horiz-adv-x="1062" d="M1050 1106l-512 -1289q-134 -338 -376 -338q-61 0 -109 13v152q56 -18 102 -18q135 0 202 162l90 214l-431 1104h185l305 -863q6 -18 23 -79h6q4 21 21 77l321 865h173zM794 1630l-280 -349h-129l238 349h171z"/>
<glyph unicode="þ" glyph-name="thorn" horiz-adv-x="1295" d="M348 162v-671h-167v2146h167v-727h5q131 222 383 222q211 0 333 -147.5t122 -399.5q0 -276 -136.5 -443.5t-369.5 -167.5q-216 0 -332 188h-5zM348 448q0 -139 93 -235.5t229 -96.5q163 0 256.5 126t93.5 348q0 187 -88 293.5t-234 106.5q-152 0 -251 -107.5t-99 -274.5 v-160z"/>
<glyph unicode="ı" glyph-name="dotlessi" horiz-adv-x="531" d="M182 0v1106h166v-1106h-166z"/>
<glyph unicode="ˆ" glyph-name="circumflex" horiz-adv-x="819" d="M709 1281h-124l-176 241l-175 -241h-123l231 349h135z"/>
<glyph unicode="˚" glyph-name="ring" horiz-adv-x="621" d="M91 1473q0 95 63 153.5t160 58.5q94 0 155 -59.5t61 -145.5q0 -90 -65.5 -150.5t-157.5 -60.5q-94 0 -155 58t-61 146zM185 1478q0 -123 122 -123q53 0 88.5 34.5t35.5 88.5t-35 88.5t-89 34.5q-52 0 -87 -36.5t-35 -86.5z"/>
<glyph unicode="˜" glyph-name="tilde" horiz-adv-x="738" d="M712 1572q0 -113 -52.5 -183t-137.5 -70q-75 0 -174 57q-80 45 -128 45q-96 0 -96 -122h-98q0 118 52.5 184.5t141.5 66.5q69 0 160 -56q80 -48 139 -48q90 0 90 126h103z"/>
<glyph unicode="⁴" glyph-name="uni2074" horiz-adv-x="767" d="M730 853h-119v-222h-138v222h-424v96l400 600h162v-581h119v-115zM474 1416q-13 -33 -41 -79l-239 -369h279v353q0 17 5 95h-4z"/>
<glyph d="M728 1549l-924 -1549h-149l926 1549h147z" glyph-name="glyph271" horiz-adv-x="356"/>
<glyph d="M236 554q-24 0 -45 9.5t-37 25.5t-25 37.5t-9 45.5t9 45.5t25 37t37 25t45 9.5t45.5 -9.5t37 -25t24.5 -37t9 -45.5t-9 -45.5t-24.5 -37.5t-37 -25.5t-45.5 -9.5z" glyph-name="glyph276" horiz-adv-x="472"/>
</font>
</defs>
</svg>
